SplineFontDB: 3.2
FontName: Sorazora-Regular
FullName: Sorazora
FamilyName: Sorazora
Weight: Regular
Copyright: SIL Open Font License (OFL)
UComments: "Created for Xymyric 9. Drawn in Inkscape and compiled using FontForge."
FontLog: "Sorazora is a serif font designed for the 9th Edition of the Xymyric alphabet. It includes two styles (Roman, Italic) for one weight (Regular). The design of the serifs is inspired by Han characters and is descended from Xymyric 8. The most noticeable feature compared to V8 is the thin headline and shallow pen angle. This font can be regarded as a transitional style. The direction of the serifs is flipped to reflect the pen angle, which is opposite that of V8.+AAoACgAA-Xymyric 9 specification: https://docs.google.com/document/d/10HuhhSWbcs7u7IWC0UuAK0fY2e_X8Z23sTPiJAIG3fo/edit?usp+AD0A-sharing+AAoACgAA-This font:+AAoA    sorazora_serif_w4.otf+AAoACgAA-Designer:+AAoA    Kegfeng"
Version: 2.4
DefaultBaseFilename: sorazora_serif_w4
ItalicAngle: 0
UnderlinePosition: -79
UnderlineWidth: 39
Ascent: 735
Descent: 265
InvalidEm: 0
LayerCount: 2
Layer: 0 0 "Back" 1
Layer: 1 0 "Fore" 0
XUID: [1021 177 139733406 4461]
FSType: 0
OS2Version: 0
OS2_WeightWidthSlopeOnly: 0
OS2_UseTypoMetrics: 1
CreationTime: 1673642421
ModificationTime: 1675216169
PfmFamily: 17
TTFWeight: 400
TTFWidth: 5
LineGap: 72
VLineGap: 0
OS2TypoAscent: 0
OS2TypoAOffset: 1
OS2TypoDescent: 0
OS2TypoDOffset: 1
OS2TypoLinegap: 72
OS2WinAscent: 0
OS2WinAOffset: 1
OS2WinDescent: 0
OS2WinDOffset: 1
HheadAscent: 0
HheadAOffset: 1
HheadDescent: 0
HheadDOffset: 1
OS2Vendor: 'PfEd'
MarkAttachClasses: 1
DEI: 91125
LangName: 1033
GaspTable: 3 9 14 16 5 65535 15 1
OtfFeatName: 'ss01' 1033 "All disconnected"
OtfFeatName: 'ss02' 1033 "Override punctuation substitution"
OtfFeatName: 'ss03' 1033 "Traditional Xymyric figures"
OtfFeatName: 'ss04' 1033 "Double isolate K ligature"
OtfFeatName: 'ss05' 1033 "Use ideographic comma"
Encoding: Original
UnicodeInterp: none
NameList: AGL For New Fonts

StartChar: a
Encoding: 26 97 26
GlifName: a
Width: 815
Flags: W
HStem: -21.2556 45.2498<366.183 506.622> 366.661 35.892<186.136 237.954 319.215 541.368 622.63 765.485> 494.231 106.453<403.613 488.918>
VStem: 237.954 81.2607<73.005 366.661> 393.038 106.454<504.806 590.11> 541.368 81.2617<55.2939 366.66>
LayerCount: 2
Fore
SplineSet
499.4921875 547.458007812 m 0
 499.4921875 518.061523438 475.661132812 494.231445312 446.264648438 494.231445312 c 0
 416.869140625 494.231445312 393.038085938 518.061523438 393.038085938 547.458007812 c 0
 393.038085938 576.854492188 416.869140625 600.684570312 446.264648438 600.684570312 c 0
 475.661132812 600.684570312 499.4921875 576.854492188 499.4921875 547.458007812 c 0
548.265840017 15.4378730244 m 1
 497.755190539 -3.78246901594 448.781171081 -21.2556266998 392.847693429 -21.2556266998 c 0
 296.680632959 -21.2556266998 237.954101562 35.1661281386 237.954101562 136.584960938 c 2
 237.954101562 366.66082171 l 1
 32.619140625 366.661132812 l 6
 18.849609375 366.661132812 16.5498046875 370.600585938 25.794921875 379.229492188 c 4
 52.2666015625 403.93359375 99.060546875 443.180664062 131.006835938 468.166015625 c 1
 186.135742188 402.552734375 l 1
 677.66015625 402.552734375 l 2
 701.104492188 402.552734375 768.673828125 407.662109375 784.731445312 408.877929688 c 1
 766.45703125 355.955078125 l 1
 746.15625 361.459960938 698.256835938 366.66015625 677.173828125 366.66015625 c 2
 622.629882812 366.660238889 l 1
 622.629882812 55.2939453125 l 1
 656.471679688 9.521484375 l 1
 630.872070312 -3.103515625 592.397460938 -13.9580078125 559.095703125 -19.515625 c 1
 548.265840017 15.4378730244 l 1
541.368164062 62.6753944667 m 1
 541.368164062 366.660362009 l 1
 319.21484375 366.660698592 l 1
 319.21484375 160.139648438 l 2
 319.21484375 77.6669921875 357.21875 23.994140625 440.641601562 23.994140625 c 0
 473.682336572 23.994140625 498.83301228 27.2689346533 541.368164062 62.6753944667 c 1
EndSplineSet
Validated: 1
EndChar

StartChar: b
Encoding: 27 98 27
GlifName: b
Width: 548
Flags: W
HStem: -10.7051 21G<488.02 505.078> -9.75608e-15 35.8926<135.582 497.199> 194.574 35.8916<135.582 456.598> 366.66 35.8926<141.082 489.777>
VStem: 54.3203 81.2617<-37.1408 -7.10543e-15 35.8926 194.574 230.466 355.891>
LayerCount: 2
Fore
SplineSet
475.84765625 236.791992188 m 1x78
 457.569335938 183.869140625 l 1
 437.266601562 189.374023438 389.368164062 194.57421875 368.286132812 194.57421875 c 2
 135.58203125 194.57421875 l 1
 135.58203125 35.892578125 l 1
 409.374023438 35.892578125 l 2
 432.817382812 35.892578125 500.391601562 41.001953125 516.44921875 42.2177734375 c 1
 498.170898438 -10.705078125 l 1xb8
 477.868164062 -5.2001953125 429.970703125 0 408.887695312 0 c 2
 135.58203125 -9.75608482889e-15 l 1
 135.58203125 -33.8505859375 l 1
 113.84765625 -45.5830078125 81.40625 -57.1298828125 54.3203125 -62.8876953125 c 1
 54.3203125 355.890625 l 1
 12.5927734375 400.651367188 l 1
 35.5771484375 413.584960938 86.126953125 438.50390625 113.322265625 448.458007812 c 1
 141.08203125 402.552734375 l 1
 401.953125 402.552734375 l 2
 425.396484375 402.552734375 492.969726562 407.662109375 509.028320312 408.87890625 c 1
 490.749023438 355.955078125 l 1
 470.448242188 361.4609375 422.549804688 366.66015625 401.466796875 366.66015625 c 2
 135.58203125 366.66015625 l 1
 135.58203125 230.465820312 l 1
 368.772460938 230.465820312 l 2
 392.215820312 230.465820312 459.7890625 235.575195312 475.84765625 236.791992188 c 1x78
EndSplineSet
Validated: 1
EndChar

StartChar: c
Encoding: 28 99 28
GlifName: c
Width: 472
Flags: W
HStem: -233.054 21G<54.3242 67.8672> -14.04 21G<297.642 354.427> 58.5 19.4648<198.72 249.817> 366.66 35.8926<139.836 335.826> 412.692 20G<403.677 420.764>
VStem: 54.3242 81.2607<-207.307 353.826> 336.406 81.2607<73.1897 366.432>
LayerCount: 2
Fore
SplineSet
198.719726562 77.96484375 m 1
 198.860696768 77.9586077467 200.540983744 77.8599370833 203.394981988 77.6923431519 c 0
 223.077741481 76.5365221732 298.585129538 72.1025390625 309.9921875 72.1025390625 c 0
 329.43359375 72.1025390625 336.40625 77.7861328125 336.40625 94.087890625 c 2
 336.40625 366.6640625 l 1
 334.5703125 366.6640625 l 1
 135.584960938 366.66015625 l 1
 135.584960938 -204.016601562 l 1
 113.850585938 -215.75 81.41015625 -227.295898438 54.32421875 -233.053710938 c 1
 54.32421875 353.826171875 l 1
 12.5966796875 398.586914062 l 1
 35.5810546875 411.520507812 86.134765625 436.435546875 113.330078125 446.389648438 c 1
 139.8359375 402.552734375 l 1
 319.20703125 402.555664062 l 1
 355.548828125 415.455078125 385.557617188 424.41796875 421.795898438 432.692382812 c 1
 419.731445312 415.487304688 417.666992188 369.19140625 417.666992188 331.71484375 c 2
 417.666992188 78.619140625 l 2
 417.666992188 19.587890625 403.77734375 -3.4482421875 305.076171875 -14.0400390625 c 1
 290.208007812 39.845703125 269.818359375 49.8857421875 198.719726562 58.5 c 1
 198.719726562 77.96484375 l 1
EndSplineSet
Validated: 1
EndChar

StartChar: d
Encoding: 29 100 29
GlifName: d
Width: 552
Flags: W
HStem: -10.6455 39.9248<208.825 354.919> 376.557 34.6523<194.513 346.366>
VStem: 34.0566 82.8096<121.19 287.212> 428.578 90.2979<122.314 305.552>
LayerCount: 2
Fore
SplineSet
245.309570312 376.556640625 m 0
 172.473632812 376.556640625 116.866210938 293.08203125 116.866210938 213.665039062 c 0
 116.866210938 75.037109375 224.669921875 29.279296875 284.595703125 29.279296875 c 0
 359.724609375 29.279296875 428.578125 83.166015625 428.578125 213.994140625 c 0
 428.578125 350.482421875 334.955078125 376.556640625 245.309570312 376.556640625 c 0
124.388671875 454.708007812 m 1
 173.366210938 430.1484375 244.943359375 411.208984375 312.025390625 411.208984375 c 2
 346.33984375 411.208984375 l 2
 432.93359375 411.208984375 518.875976562 348.71875 518.875976562 234.783203125 c 0
 518.875976562 114.795898438 460.512695312 41.197265625 375.30859375 11.3916015625 c 0
 340.100585938 -0.923828125 284.150390625 -10.6455078125 248.719726562 -10.6455078125 c 0
 123.497070312 -10.6455078125 34.056640625 74.3837890625 34.056640625 183.323242188 c 0
 34.056640625 281.903320312 78.3779296875 349.833984375 159.40625 379.59375 c 1
 123.967773438 382.74609375 70.408203125 397.11328125 38.5732421875 409.737304688 c 1
 38.5732421875 425.313476562 l 1
 124.388671875 454.708007812 l 1
EndSplineSet
Validated: 1
EndChar

StartChar: e
Encoding: 30 101 30
GlifName: e
Width: 599
Flags: W
HStem: -233.054 21G<285.216 298.759> 155.644 35.8916<201.913 285.216 366.477 555.184> 366.66 35.8926<225.274 284.636> 412.688 20G<352.486 369.573>
VStem: 285.216 81.2607<-207.307 155.644 191.535 366.429>
LayerCount: 2
Fore
SplineSet
170.145507812 468.166015625 m 1
 225.274414062 402.552734375 l 1
 268.016601562 402.552734375 l 1
 304.359375 415.452148438 334.366210938 424.4140625 370.60546875 432.688476562 c 1
 368.541015625 415.484375 366.4765625 369.188476562 366.4765625 331.711914062 c 2
 366.4765625 191.53515625 l 1
 467.358398438 191.53515625 l 2
 490.802734375 191.53515625 558.375976562 196.64453125 574.43359375 197.861328125 c 1
 556.155273438 144.9375 l 1
 535.852539062 150.443359375 487.955078125 155.643554688 466.872070312 155.643554688 c 2
 366.4765625 155.643554688 l 1
 366.4765625 -204.016601562 l 1
 344.7421875 -215.749023438 312.302734375 -227.295898438 285.215820312 -233.053710938 c 1
 285.215820312 155.643554688 l 1
 48.396484375 155.643554688 l 2
 34.626953125 155.643554688 32.3271484375 159.583007812 41.572265625 168.211914062 c 0
 68.04296875 192.916992188 114.838867188 232.163085938 146.784179688 257.1484375 c 1
 201.913085938 191.53515625 l 1
 285.215820312 191.53515625 l 1
 285.215820312 366.66015625 l 1
 71.7578125 366.66015625 l 2
 57.98828125 366.66015625 55.6884765625 370.600585938 64.93359375 379.229492188 c 0
 91.404296875 403.93359375 138.200195312 443.180664062 170.145507812 468.166015625 c 1
EndSplineSet
Validated: 1
EndChar

StartChar: f
Encoding: 31 102 31
GlifName: f
Width: 530
Flags: W
HStem: -20.79 21G<54.3193 85.8052> 370.873 42.7896<241.164 384.698>
VStem: 54.3193 81.2607<37.9395 321.603 358.646 548.572> 417.396 84.1846<196.833 339.387>
LayerCount: 2
Fore
SplineSet
301.584960938 370.873046875 m 0
 241.453125 370.873046875 159.646484375 329.224609375 135.580078125 305.354492188 c 1
 135.580078125 37.939453125 l 1
 266.973632812 42.638671875 417.396484375 131.451171875 417.396484375 272.389648438 c 0
 417.396484375 351.904296875 364.359375 370.873046875 301.584960938 370.873046875 c 0
135.580078125 615.809570312 m 1
 135.580078125 358.646484375 l 1
 221.341796875 388.108398438 287.282226562 406.296875 313.267578125 412.763671875 c 1
 322.61189378 413.361460348 331.671867401 413.662629343 340.432742708 413.662629343 c 0
 440.528858894 413.662629343 501.581054688 374.348404692 501.581054688 288.934570312 c 0
 501.581054688 157.54296875 387.307617188 77.0380859375 290.940429688 39.044921875 c 0
 217.883789062 10.2421875 117.291015625 -13.09375 54.3193359375 -20.7900390625 c 1
 54.3193359375 548.572265625 l 1
 18.3056640625 588.875 l 1
 49.4814453125 598.60546875 102.51171875 611.29296875 135.580078125 615.809570312 c 1
EndSplineSet
Validated: 1
EndChar

StartChar: g
Encoding: 32 103 32
GlifName: g
Width: 472
Flags: W
HStem: -233.054 21G<54.3242 67.8672> -14.0391 21G<297.643 354.427> 58.501 19.4648<198.721 249.817> 366.661 35.8916<139.836 335.827> 412.692 20G<403.677 420.765> 494.231 106.453<200.21 285.515>
VStem: 54.3242 81.2617<-207.306 353.826> 189.636 106.453<504.806 590.11> 336.406 81.2607<73.1898 366.433>
LayerCount: 2
Fore
SplineSet
198.720703125 77.9658203125 m 1
 198.861523866 77.9595875782 200.538144277 77.8611151117 203.386215989 77.6938401315 c 0
 223.051752686 76.5388297964 298.568681802 72.103515625 309.9921875 72.103515625 c 0
 329.43359375 72.103515625 336.40625 77.787109375 336.40625 94.0888671875 c 2
 336.40625 366.665039062 l 1
 334.5703125 366.665039062 l 1
 135.5859375 366.661132812 l 1
 135.5859375 -204.015625 l 1
 113.850585938 -215.749023438 81.41015625 -227.295898438 54.32421875 -233.053710938 c 1
 54.32421875 353.826171875 l 1
 12.5966796875 398.587890625 l 1
 35.5810546875 411.521484375 86.134765625 436.435546875 113.330078125 446.389648438 c 1
 139.8359375 402.552734375 l 1
 319.208007812 402.556640625 l 1
 355.548828125 415.456054688 385.557617188 424.41796875 421.796875 432.692382812 c 1
 419.732421875 415.48828125 417.666992188 369.192382812 417.666992188 331.715820312 c 2
 417.666992188 78.619140625 l 2
 417.666992188 19.5888671875 403.77734375 -3.4482421875 305.077148438 -14.0390625 c 1
 290.208007812 39.8466796875 269.818359375 49.8857421875 198.720703125 58.5009765625 c 1
 198.720703125 77.9658203125 l 1
296.088867188 547.458007812 m 0
 296.088867188 518.061523438 272.258789062 494.231445312 242.862304688 494.231445312 c 0
 213.465820312 494.231445312 189.635742188 518.061523438 189.635742188 547.458007812 c 0
 189.635742188 576.854492188 213.465820312 600.684570312 242.862304688 600.684570312 c 0
 272.258789062 600.684570312 296.088867188 576.854492188 296.088867188 547.458007812 c 0
EndSplineSet
Validated: 1
EndChar

StartChar: h
Encoding: 33 104 33
GlifName: h
Width: 530
Flags: W
HStem: -218.401 106.453<209.625 294.929> -20.79 21G<54.3193 85.8047> 370.873 42.7896<241.164 384.698>
VStem: 54.3193 81.2607<37.9395 321.603 358.646 548.572> 199.051 106.453<-207.827 -122.523> 417.396 84.1846<196.833 339.387>
LayerCount: 2
Fore
SplineSet
301.584960938 370.873046875 m 0
 241.452148438 370.873046875 159.646484375 329.224609375 135.580078125 305.354492188 c 1
 135.580078125 37.939453125 l 1
 266.973632812 42.638671875 417.396484375 131.450195312 417.396484375 272.389648438 c 0
 417.396484375 351.904296875 364.359375 370.873046875 301.584960938 370.873046875 c 0
135.580078125 615.809570312 m 1
 135.580078125 358.646484375 l 1
 221.340820312 388.108398438 287.282226562 406.296875 313.267578125 412.763671875 c 1
 322.61189378 413.361460348 331.671867401 413.662629343 340.432742708 413.662629343 c 0
 440.528858894 413.662629343 501.581054688 374.348404692 501.581054688 288.934570312 c 0
 501.581054688 157.54296875 387.306640625 77.0380859375 290.940429688 39.044921875 c 0
 217.883789062 10.2421875 117.290039062 -13.09375 54.3193359375 -20.7900390625 c 1
 54.3193359375 548.572265625 l 1
 18.3046875 588.875 l 1
 49.4814453125 598.60546875 102.51171875 611.29296875 135.580078125 615.809570312 c 1
305.50390625 -165.174804688 m 0
 305.50390625 -194.571289062 281.672851562 -218.401367188 252.27734375 -218.401367188 c 0
 222.880859375 -218.401367188 199.05078125 -194.571289062 199.05078125 -165.174804688 c 0
 199.05078125 -135.779296875 222.880859375 -111.948242188 252.27734375 -111.948242188 c 0
 281.672851562 -111.948242188 305.50390625 -135.779296875 305.50390625 -165.174804688 c 0
EndSplineSet
Validated: 1
EndChar

StartChar: i
Encoding: 34 105 34
GlifName: i
Width: 366
Flags: W
HStem: -153.296 19.4639<54.1514 125.872> -12.1865 21G<106.304 116.246> 366.666 35.8877<156.631 230.184> 412.693 20G<298.035 315.121>
VStem: 106.304 59.6553<5.91434 244.021> 230.765 81.2549<-138.607 366.434>
LayerCount: 2
Fore
SplineSet
165.958984375 293.379882812 m 1
 165.958984375 9.1298828125 l 1
 150.001953125 0.5166015625 126.188476562 -7.9599609375 106.303710938 -12.1865234375 c 1
 106.303710938 244.021484375 l 1
 79.86328125 273.606445312 l 1
 102.756835938 280.75 141.681640625 290.063476562 165.958984375 293.379882812 c 1
54.1513671875 -133.83203125 m 1
 122.792612272 -136.868743536 186.661745166 -139.694335938 204.346679688 -139.694335938 c 0
 223.790039062 -139.694335938 230.764648438 -134.006835938 230.764648438 -117.705078125 c 2
 230.764648438 366.666015625 l 1
 38.1279296875 366.662109375 l 2
 25.8349609375 366.662109375 23.783203125 371.94921875 31.3017578125 379.23046875 c 0
 56.939453125 404.052734375 86.6533203125 430.1015625 114.586914062 452.595703125 c 1
 156.630859375 402.553710938 l 1
 213.564453125 402.557617188 l 1
 249.907226562 415.45703125 279.915039062 424.419921875 316.154296875 432.693359375 c 1
 314.086914062 415.489257812 312.01953125 369.193359375 312.01953125 331.716796875 c 2
 312.01953125 -133.177734375 l 2
 312.01953125 -192.208984375 298.129882812 -215.245117188 199.432617188 -225.836914062 c 1
 184.406479572 -171.378638632 183.750167193 -169.000007395 54.1513671875 -153.295898438 c 1
 54.1513671875 -133.83203125 l 1
EndSplineSet
Validated: 1
EndChar

StartChar: j
Encoding: 35 106 35
GlifName: j
Width: 599
Flags: W
HStem: -233.055 21G<285.215 298.758> 366.66 35.8926<201.916 285.215 366.477 555.187>
VStem: 285.215 81.2617<-207.308 366.66>
LayerCount: 2
Fore
SplineSet
146.788085938 468.166015625 m 1
 201.916015625 402.552734375 l 1
 467.362304688 402.552734375 l 2
 490.805664062 402.552734375 558.37890625 407.662109375 574.4375 408.87890625 c 1
 556.159179688 355.955078125 l 1
 535.856445312 361.4609375 487.958984375 366.66015625 466.875976562 366.66015625 c 2
 366.4765625 366.66015625 l 1
 366.4765625 -204.017578125 l 1
 344.743164062 -215.750976562 312.301757812 -227.296875 285.21484375 -233.0546875 c 1
 285.21484375 366.66015625 l 1
 48.3994140625 366.66015625 l 2
 34.6298828125 366.66015625 32.330078125 370.600585938 41.5751953125 379.229492188 c 0
 68.046875 403.93359375 114.841796875 443.180664062 146.788085938 468.166015625 c 1
EndSplineSet
Validated: 1
EndChar

StartChar: k
Encoding: 36 107 36
GlifName: k
Width: 190
Flags: W
HStem: -20.7891 21G<54.3174 67.8613> 412.689 20G<119.046 135.58> 494.263 106.39<0.0219756 77.2885 112.608 189.876>
VStem: -9.55566 96.4238<503.348 591.567> 54.3174 81.2627<4.95759 365.452> 103.03 96.4238<503.348 591.567>
LayerCount: 2
Fore
SplineSet
135.580078125 432.689453125 m 1xe8
 135.580078125 8.248046875 l 1
 113.84765625 -3.4853515625 81.4052734375 -15.03125 54.3173828125 -20.7890625 c 1
 54.3173828125 365.452148438 l 1
 18.3056640625 405.75390625 l 1
 49.484375 415.484375 102.51171875 428.171875 135.580078125 432.689453125 c 1xe8
199.454101562 547.458007812 m 0xe4
 199.454101562 518.079101562 177.870117188 494.263671875 151.241210938 494.263671875 c 0
 124.616210938 494.263671875 103.030273438 518.079101562 103.030273438 547.458007812 c 0
 103.030273438 576.8359375 124.616210938 600.65234375 151.241210938 600.65234375 c 0
 177.870117188 600.65234375 199.454101562 576.8359375 199.454101562 547.458007812 c 0xe4
86.8681640625 547.458007812 m 0xf0
 86.8681640625 518.079101562 65.27734375 494.262695312 38.65625 494.262695312 c 0
 12.0283203125 494.262695312 -9.5556640625 518.079101562 -9.5556640625 547.458007812 c 0
 -9.5556640625 576.8359375 12.0283203125 600.65234375 38.65625 600.65234375 c 0
 65.27734375 600.65234375 86.8681640625 576.8359375 86.8681640625 547.458007812 c 0xf0
EndSplineSet
Validated: 1
EndChar

StartChar: l
Encoding: 37 108 37
GlifName: l
Width: 190
Flags: W
HStem: -20.7891 21G<54.3164 67.8604> 412.689 20G<119.045 135.579>
VStem: 54.3164 81.2627<4.95759 365.452>
LayerCount: 2
Fore
SplineSet
165.005859375 -108.059570312 m 1
 164.369730445 -109.541689707 101.219318494 -253.331054688 94.9375 -253.331054688 c 0
 88.6548116037 -253.331054688 25.5042946658 -109.541693605 24.8681640625 -108.059570312 c 1
 37.0751953125 -108.059570312 l 1
 94.9375 -137.096679688 l 1
 152.798828125 -108.059570312 l 1
 165.005859375 -108.059570312 l 1
135.579101562 432.689453125 m 1
 135.579101562 8.248046875 l 1
 113.84765625 -3.4853515625 81.404296875 -15.03125 54.31640625 -20.7890625 c 1
 54.31640625 365.452148438 l 1
 18.3056640625 405.75390625 l 1
 49.4833984375 415.485351562 102.510742188 428.172851562 135.579101562 432.689453125 c 1
EndSplineSet
Validated: 1
EndChar

StartChar: m
Encoding: 38 109 38
GlifName: m
Width: 190
Flags: W
HStem: -218.401 106.453<57.1565 142.462> -20.7891 21G<54.3174 67.8613> 412.689 20G<119.046 135.58>
VStem: 46.582 106.454<-207.827 -122.523> 54.3174 81.2627<4.95759 365.452>
LayerCount: 2
Fore
SplineSet
153.036132812 -165.174804688 m 0xf0
 153.036132812 -194.571289062 129.205078125 -218.401367188 99.8095703125 -218.401367188 c 0
 70.4130859375 -218.401367188 46.58203125 -194.571289062 46.58203125 -165.174804688 c 0
 46.58203125 -135.779296875 70.4130859375 -111.948242188 99.8095703125 -111.948242188 c 0
 129.205078125 -111.948242188 153.036132812 -135.779296875 153.036132812 -165.174804688 c 0xf0
135.580078125 432.689453125 m 1xe8
 135.580078125 8.248046875 l 1
 113.84765625 -3.4853515625 81.4052734375 -15.03125 54.3173828125 -20.7890625 c 1
 54.3173828125 365.452148438 l 1
 18.3056640625 405.75390625 l 1
 49.484375 415.485351562 102.51171875 428.172851562 135.580078125 432.689453125 c 1xe8
EndSplineSet
Validated: 1
EndChar

StartChar: n
Encoding: 39 110 39
GlifName: n
Width: 191
Flags: W
HStem: -233.056 21G<54.3213 67.8647> 412.688 20G<119.048 135.582>
VStem: 54.3213 81.2607<-207.309 365.451>
LayerCount: 2
Fore
SplineSet
135.58203125 432.688476562 m 1
 135.58203125 -204.018554688 l 1
 113.84765625 -215.751953125 81.408203125 -227.298828125 54.3212890625 -233.055664062 c 1
 54.3212890625 365.451171875 l 1
 18.3076171875 405.75390625 l 1
 49.484375 415.483398438 102.513671875 428.171875 135.58203125 432.688476562 c 1
EndSplineSet
Validated: 1
EndChar

StartChar: o
Encoding: 40 111 40
GlifName: o
Width: 463
Flags: W
HStem: -20.793 21G<327.693 341.237> 164.932 106.453<141.87 227.175> 366.66 35.8926<180.539 327.116> 412.688 20G<394.965 412.051>
VStem: 131.296 106.454<175.506 260.811> 327.693 81.2617<4.95368 366.428>
LayerCount: 2
Fore
SplineSet
237.75 218.158203125 m 0
 237.75 188.76171875 213.918945312 164.931640625 184.522460938 164.931640625 c 0
 155.126953125 164.931640625 131.295898438 188.76171875 131.295898438 218.158203125 c 0
 131.295898438 247.5546875 155.126953125 271.384765625 184.522460938 271.384765625 c 0
 213.918945312 271.384765625 237.75 247.5546875 237.75 218.158203125 c 0
125.411132812 468.166015625 m 1
 180.5390625 402.552734375 l 1
 310.496891925 402.552734375 l 1
 346.837452128 415.451624241 376.846617592 424.414271309 413.083007812 432.688476562 c 1
 411.01953125 415.483398438 408.955078125 369.1875 408.955078125 331.7109375 c 2
 408.955078125 8.244140625 l 1
 387.220703125 -3.4892578125 354.780273438 -15.03515625 327.693359375 -20.79296875 c 1
 327.693359375 366.66015625 l 1
 27.0224609375 366.66015625 l 2
 13.2529296875 366.66015625 10.953125 370.600585938 20.1982421875 379.229492188 c 0
 46.6689453125 403.93359375 93.46484375 443.180664062 125.411132812 468.166015625 c 1
EndSplineSet
Validated: 1
EndChar

StartChar: p
Encoding: 41 112 41
GlifName: p
Width: 423
Flags: W
HStem: -233.056 21G<287.444 300.988> -20.793 21G<54.3232 67.8667> 366.661 35.8916<141.084 286.867> 412.688 20G<354.716 371.802>
VStem: 54.3232 81.2607<4.95368 355.891> 287.444 81.2622<-214.272 366.428>
LayerCount: 2
Fore
SplineSet
135.583984375 366.661132812 m 1
 135.583984375 8.244140625 l 1
 113.849609375 -3.4892578125 81.41015625 -15.03515625 54.3232421875 -20.79296875 c 1
 54.3232421875 355.890625 l 1
 12.595703125 400.651367188 l 1
 35.580078125 413.584960938 86.130859375 438.50390625 113.325195312 448.458007812 c 1
 141.08376021 402.552734375 l 1
 270.247868487 402.552734375 l 1
 306.58842869 415.451624241 336.597594154 424.414271309 372.833984375 432.688476562 c 1
 370.770507812 415.483398438 368.706054688 369.1875 368.706054688 331.7109375 c 2
 368.706054688 -204.017578125 l 1
 346.971679688 -215.750976562 314.53125 -227.297851562 287.444335938 -233.055664062 c 1
 287.444335938 -233.055664062 287.444335938 366.66015625 287.44386797 366.661132812 c 2
 135.583984375 366.661132812 l 1
EndSplineSet
Validated: 1
EndChar

StartChar: q
Encoding: 42 113 42
GlifName: q
Width: 815
Flags: W
HStem: -21.2556 45.2498<366.186 506.624> 366.66 35.8926<186.138 237.956 319.218 541.371 622.632 765.489> 496.435 35.8926<369.046 611.114>
VStem: 237.956 81.2617<73.0046 366.66> 541.371 81.2607<55.2939 366.66>
LayerCount: 2
Fore
SplineSet
548.2681967 15.4378994674 m 1
 497.756951807 -3.78328686381 448.782348517 -21.2556356606 392.850042698 -21.2556356606 c 0
 296.682550861 -21.2556356606 237.956054688 35.1659541058 237.956054688 136.583984375 c 2
 237.956054688 366.66015625 l 1
 32.62109375 366.66015625 l 2
 18.8515625 366.66015625 16.5517578125 370.600585938 25.796875 379.228515625 c 0
 52.267578125 403.93359375 99.0634765625 443.180664062 131.009765625 468.166015625 c 1
 186.137695312 402.552734375 l 1
 677.665039062 402.551757812 l 2
 701.109375 402.551757812 768.677734375 407.661132812 784.735351562 408.877929688 c 1
 766.4609375 355.955078125 l 1
 746.16015625 361.459960938 698.260742188 366.66015625 677.177734375 366.66015625 c 2
 622.631835938 366.66015625 l 1
 622.631835938 55.2939453125 l 1
 656.474609375 9.521484375 l 1
 630.875 -3.103515625 592.400390625 -13.9580078125 559.09765625 -19.515625 c 1
 548.2681967 15.4378994674 l 1
313.91796875 597.940429688 m 1
 369.045898438 532.327148438 l 1
 523.2890625 532.327148438 l 2
 546.732421875 532.327148438 614.305664062 537.436523438 630.364257812 538.653320312 c 1
 612.0859375 485.729492188 l 1
 591.784179688 491.234375 543.885742188 496.434570312 522.802734375 496.434570312 c 2
 215.529296875 496.434570312 l 2
 201.759765625 496.434570312 199.459960938 500.375 208.705078125 509.00390625 c 0
 235.176757812 533.708007812 281.971679688 572.955078125 313.91796875 597.940429688 c 1
541.37109375 62.6760841942 m 1
 541.37109375 366.66015625 l 1
 319.217773438 366.66015625 l 1
 319.217773438 160.139648438 l 2
 319.217773438 77.666015625 357.221679688 23.994140625 440.64453125 23.994140625 c 0
 473.685480806 23.994140625 498.835713065 27.2689771824 541.37109375 62.6760841942 c 1
EndSplineSet
Validated: 1
EndChar

StartChar: r
Encoding: 43 114 43
GlifName: r
Width: 501
Flags: W
HStem: -10.7051 21G<441.679 458.738> -9.75608e-15 35.8926<135.582 450.858> 366.66 35.8926<141.082 443.438>
VStem: 54.3203 81.2617<-37.1408 -7.10543e-15 35.8926 355.891>
LayerCount: 2
Fore
SplineSet
113.322265625 448.458007812 m 1x70
 141.08203125 402.552734375 l 1
 355.61328125 402.552734375 l 2
 379.056640625 402.552734375 446.629882812 407.662109375 462.688476562 408.87890625 c 1
 444.409179688 355.955078125 l 1
 424.108398438 361.4609375 376.209960938 366.66015625 355.126953125 366.66015625 c 2
 135.58203125 366.66015625 l 1
 135.58203125 35.892578125 l 1
 363.034179688 35.892578125 l 2
 386.477539062 35.892578125 454.05078125 41.001953125 470.109375 42.2177734375 c 1
 451.830078125 -10.705078125 l 1xb0
 431.528320312 -5.2001953125 383.630859375 0 362.547851562 0 c 2
 135.58203125 -9.75608482889e-15 l 1
 135.58203125 -33.8505859375 l 1
 113.84765625 -45.5830078125 81.4072265625 -57.1298828125 54.3203125 -62.8876953125 c 1
 54.3203125 355.890625 l 1
 12.5927734375 400.651367188 l 1
 35.5771484375 413.584960938 86.1279296875 438.50390625 113.322265625 448.458007812 c 1x70
EndSplineSet
Validated: 1
EndChar

StartChar: s
Encoding: 44 115 44
GlifName: s
Width: 190
Flags: W
HStem: -20.7891 21G<54.3174 67.8608> 412.689 20G<119.045 135.58>
VStem: 54.3174 81.2627<4.95759 365.452>
LayerCount: 2
Fore
SplineSet
135.580078125 432.689453125 m 1
 135.580078125 8.248046875 l 1
 113.84765625 -3.4853515625 81.404296875 -15.03125 54.3173828125 -20.7890625 c 1
 54.3173828125 365.452148438 l 1
 18.3056640625 405.75390625 l 1
 49.4833984375 415.485351562 102.510742188 428.172851562 135.580078125 432.689453125 c 1
EndSplineSet
Validated: 1
EndChar

StartChar: t
Encoding: 45 116 45
GlifName: t
Width: 552
Flags: W
HStem: -10.6455 39.9248<208.824 354.919> 155.258 106.453<229.921 315.225> 376.557 34.6523<194.512 346.366>
VStem: 34.0566 82.8086<121.19 287.212> 219.347 106.453<165.832 251.136> 428.578 90.2979<122.314 305.552>
LayerCount: 2
Fore
SplineSet
245.30859375 376.556640625 m 0
 172.47265625 376.556640625 116.865234375 293.08203125 116.865234375 213.665039062 c 0
 116.865234375 75.037109375 224.669921875 29.279296875 284.595703125 29.279296875 c 0
 359.724609375 29.279296875 428.578125 83.166015625 428.578125 213.994140625 c 0
 428.578125 350.482421875 334.954101562 376.556640625 245.30859375 376.556640625 c 0
124.388671875 454.708007812 m 1
 173.366210938 430.1484375 244.943359375 411.208984375 312.025390625 411.208984375 c 2
 346.33984375 411.208984375 l 2
 432.93359375 411.208984375 518.875976562 348.71875 518.875976562 234.783203125 c 0
 518.875976562 114.795898438 460.512695312 41.197265625 375.30859375 11.3916015625 c 0
 340.100585938 -0.923828125 284.150390625 -10.6455078125 248.719726562 -10.6455078125 c 0
 123.497070312 -10.6455078125 34.056640625 74.3837890625 34.056640625 183.323242188 c 0
 34.056640625 281.903320312 78.376953125 349.833984375 159.40625 379.59375 c 1
 123.967773438 382.74609375 70.4072265625 397.11328125 38.5732421875 409.737304688 c 1
 38.5732421875 425.313476562 l 1
 124.388671875 454.708007812 l 1
325.799804688 208.484375 m 0
 325.799804688 179.087890625 301.96875 155.2578125 272.573242188 155.2578125 c 0
 243.176757812 155.2578125 219.346679688 179.087890625 219.346679688 208.484375 c 0
 219.346679688 237.879882812 243.176757812 261.7109375 272.573242188 261.7109375 c 0
 301.96875 261.7109375 325.799804688 237.879882812 325.799804688 208.484375 c 0
EndSplineSet
Validated: 1
EndChar

StartChar: u
Encoding: 46 117 46
GlifName: u
Width: 190
Flags: W
HStem: -233.055 21G<54.3145 67.8584> 412.69 20G<119.043 135.577> 494.231 106.453<52.2936 137.596>
VStem: 41.7197 106.452<504.806 590.11> 54.3145 81.2627<-207.308 365.453>
LayerCount: 2
Fore
SplineSet
135.577148438 432.690429688 m 1xe8
 135.577148438 -204.017578125 l 1
 113.845703125 -215.75 81.40234375 -227.296875 54.314453125 -233.0546875 c 1
 54.314453125 365.453125 l 1
 18.3037109375 405.754882812 l 1
 49.4814453125 415.485351562 102.508789062 428.173828125 135.577148438 432.690429688 c 1xe8
148.171875 547.458007812 m 0xf0
 148.171875 518.061523438 124.3359375 494.231445312 94.9462890625 494.231445312 c 0
 65.548828125 494.231445312 41.7197265625 518.061523438 41.7197265625 547.458007812 c 0
 41.7197265625 576.854492188 65.548828125 600.684570312 94.9462890625 600.684570312 c 0
 124.3359375 600.684570312 148.171875 576.854492188 148.171875 547.458007812 c 0xf0
EndSplineSet
Validated: 1
EndChar

StartChar: v
Encoding: 47 118 47
GlifName: v
Width: 530
Flags: W
HStem: -20.79 21G<54.3076 85.7944> 370.873 42.7896<241.156 384.691>
VStem: 54.3076 81.2627<37.9395 321.603 358.646 548.572> 417.393 84.1826<196.833 339.387>
LayerCount: 2
Fore
SplineSet
332.259765625 -108.51953125 m 1
 331.623725238 -110.001716683 268.477572116 -253.791992188 262.1875 -253.791992188 c 0
 255.907819296 -253.791992188 192.757124099 -110.001693291 192.12109375 -108.51953125 c 1
 204.326171875 -108.51953125 l 1
 262.1875 -137.557617188 l 1
 320.0546875 -108.51953125 l 1
 332.259765625 -108.51953125 l 1
301.575195312 370.873046875 m 0
 241.448242188 370.873046875 159.641601562 329.224609375 135.5703125 305.354492188 c 1
 135.5703125 37.939453125 l 1
 266.96875 42.638671875 417.392578125 131.450195312 417.392578125 272.389648438 c 0
 417.392578125 351.904296875 364.349609375 370.873046875 301.575195312 370.873046875 c 0
135.5703125 615.809570312 m 1
 135.5703125 358.646484375 l 1
 221.334960938 388.108398438 287.2734375 406.296875 313.2578125 412.763671875 c 1
 322.602521127 413.361460348 331.662849767 413.662629343 340.424045706 413.662629343 c 0
 440.523825218 413.662629343 501.575195312 374.348404692 501.575195312 288.934570312 c 0
 501.575195312 157.54296875 387.295898438 77.0380859375 290.9296875 39.044921875 c 0
 217.877929688 10.2421875 117.28125 -13.09375 54.3076171875 -20.7900390625 c 1
 54.3076171875 548.572265625 l 1
 18.296875 588.875 l 1
 49.474609375 598.60546875 102.501953125 611.29296875 135.5703125 615.809570312 c 1
EndSplineSet
Validated: 1
EndChar

StartChar: w
Encoding: 48 119 48
GlifName: w
Width: 677
Flags: W
HStem: -233.056 21G<541.375 554.919> -21.2556 45.2498<366.194 507.045> 366.66 35.8926<186.141 237.969 319.224 540.795> 412.688 20G<608.645 625.731>
VStem: 237.969 81.2549<73.0046 366.66> 541.375 81.2627<-207.309 12.833 47.1168 366.428>
LayerCount: 2
Fore
SplineSet
541.375 12.833032175 m 1
 500.100550909 -2.61831130713 450.070715805 -21.2556356606 392.858506873 -21.2556356606 c 0
 296.69158336 -21.2556356606 237.96875 35.1659541058 237.96875 136.583984375 c 2
 237.96875 366.66015625 l 1
 32.626953125 366.66015625 l 2
 18.85546875 366.66015625 16.560546875 370.600585938 25.80078125 379.229492188 c 0
 52.27734375 403.93359375 99.06640625 443.180664062 131.016601562 468.166015625 c 1
 186.140625 402.552734375 l 1
 524.175249578 402.551915721 l 1
 560.517823019 415.451245013 590.5255385 424.413119701 626.764648438 432.6875 c 1
 624.697265625 415.483398438 622.637695312 369.1875 622.637695312 331.7109375 c 2
 622.637695312 -204.018554688 l 1
 600.8984375 -215.751953125 568.462890625 -227.297851562 541.375 -233.055664062 c 1
 541.375 12.833032175 l 1
319.223632812 366.66015625 m 1
 319.223632812 160.139648438 l 2
 319.223632812 77.666015625 357.228515625 23.994140625 440.654296875 23.994140625 c 0
 473.694807687 23.994140625 498.843292441 27.2685982269 541.375 62.6699385127 c 1
 541.375 366.66015625 l 1
 319.223632812 366.66015625 l 1
EndSplineSet
Validated: 1
EndChar

StartChar: x
Encoding: 49 120 49
GlifName: x
Width: 355
Flags: W
HStem: -153.298 19.4648<42.8232 110.88> 366.665 35.8877<145.303 218.856> 412.692 20G<286.707 303.792> 494.231 106.453<135.211 220.514>
VStem: 124.638 106.452<504.806 590.11> 219.437 81.2549<-138.608 366.433>
LayerCount: 2
Fore
SplineSet
231.08984375 547.458007812 m 4xf8
 231.08984375 518.061523438 207.25390625 494.231445312 177.864257812 494.231445312 c 4
 148.465820312 494.231445312 124.637695312 518.061523438 124.637695312 547.458007812 c 4
 124.637695312 576.854492188 148.465820312 600.684570312 177.864257812 600.684570312 c 4
 207.25390625 600.684570312 231.08984375 576.854492188 231.08984375 547.458007812 c 4xf8
103.258789062 452.594726562 m 5
 145.302734375 402.552734375 l 5
 202.236328125 402.556640625 l 5
 238.579101562 415.456054688 268.586914062 424.41796875 304.826171875 432.692382812 c 5
 302.758789062 415.48828125 300.69140625 369.192382812 300.69140625 331.715820312 c 6
 300.69140625 -133.178710938 l 6
 300.69140625 -192.209960938 286.802734375 -215.24609375 188.104492188 -225.837890625 c 5
 187.964861718 -225.331836785 187.826580189 -224.830288401 187.689526209 -224.333192351 c 0
 173.232766589 -171.89839164 172.4343378 -169.002483047 42.8232421875 -153.297851562 c 5
 42.8232421875 -133.833007812 l 5
 46.285122207 -133.986162574 50.0363696349 -134.152706811 54.0181864496 -134.329487643 c 0
 99.4439573861 -136.346256859 174.878188103 -139.6953125 193.018554688 -139.6953125 c 4
 212.462890625 -139.6953125 219.436523438 -134.0078125 219.436523438 -117.706054688 c 6
 219.436523438 366.665039062 l 5xf4
 26.7973767899 366.661132677 l 2
 19.2704509132 366.661132677 15.5838025471 368.644526903 15.5838025471 371.854383438 c 0
 15.5838025471 380.486171622 94.8229286732 445.801269561 103.258789062 452.594726562 c 5
EndSplineSet
Validated: 1
EndChar

StartChar: y
Encoding: 50 121 50
GlifName: y
Width: 510
Flags: W
HStem: -233.056 21G<54.3223 67.8657> -20.793 21G<256.302 269.845> 364.596 35.8926<141.08 256.302 337.563 459.016>
VStem: 54.3223 81.2627<-207.308 353.826> 256.302 81.2617<4.95293 364.596>
LayerCount: 2
Fore
SplineSet
113.323242188 446.393554688 m 1
 141.080078125 400.48828125 l 1
 371.184570312 400.48828125 l 2
 394.629882812 400.48828125 462.201171875 405.59765625 478.26171875 406.814453125 c 1
 459.987304688 353.890625 l 1
 439.682617188 359.396484375 391.783203125 364.595703125 370.698242188 364.595703125 c 2
 337.563476562 364.595703125 l 1
 337.563476562 8.2431640625 l 1
 315.83203125 -3.4892578125 283.388671875 -15.0361328125 256.301757812 -20.79296875 c 1
 256.301757812 364.595703125 l 1
 135.584960938 364.595703125 l 1
 135.584960938 -204.017578125 l 1
 113.845703125 -215.750976562 81.4091796875 -227.297851562 54.322265625 -233.055664062 c 1
 54.322265625 353.826171875 l 1
 12.5947265625 398.586914062 l 1
 35.5771484375 411.520507812 86.125 436.439453125 113.323242188 446.393554688 c 1
EndSplineSet
Validated: 1
EndChar

StartChar: z
Encoding: 51 122 51
GlifName: z
Width: 355
Flags: W
HStem: -153.297 19.4648<42.8242 114.544> 366.665 35.8877<145.303 218.857> 412.693 20G<286.707 303.793>
VStem: 219.437 81.2559<-138.608 366.433>
LayerCount: 2
Fore
SplineSet
42.82421875 -133.83203125 m 1
 110.514096126 -136.828193548 175.266538608 -139.694335938 193.018554688 -139.694335938 c 0
 212.462890625 -139.694335938 219.436523438 -134.006835938 219.436523438 -117.706054688 c 2
 219.436523438 366.665039062 l 1
 26.80078125 366.661132812 l 2
 14.5078125 366.661132812 12.455078125 371.948242188 19.9736328125 379.229492188 c 0
 45.6123046875 404.051757812 75.326171875 430.100585938 103.259765625 452.594726562 c 1
 145.302734375 402.552734375 l 1
 202.237304688 402.556640625 l 1
 238.579101562 415.456054688 268.586914062 424.418945312 304.826171875 432.693359375 c 1
 302.759765625 415.48828125 300.692382812 369.192382812 300.692382812 331.715820312 c 2
 300.692382812 -133.178710938 l 2
 300.692382812 -192.209960938 286.802734375 -215.24609375 188.104492188 -225.836914062 c 1
 173.07839454 -171.378783377 172.422320678 -169.00101658 42.82421875 -153.296875 c 1
 42.82421875 -133.83203125 l 1
EndSplineSet
Validated: 1
EndChar

StartChar: zero
Encoding: 52 48 52
GlifName: zero
Width: 473
VWidth: 800
Flags: W
HStem: -13.1807 30.4502<183.261 290.011> 384.77 30.4512<182.272 291>
VStem: 29.4932 69.6465<104.179 300.265> 374.127 69.6465<104.179 300.265>
LayerCount: 2
Fore
SplineSet
236.63671875 384.76953125 m 0
 165.467773438 384.76953125 99.1396484375 318.828125 99.1396484375 201.01953125 c 0
 99.1396484375 83.2109375 166.063476562 17.26953125 236.63671875 17.26953125 c 0
 307.209960938 17.26953125 374.126953125 83.2109375 374.126953125 201.01953125 c 0
 374.126953125 318.828125 307.805664062 384.76953125 236.63671875 384.76953125 c 0
236.63671875 415.220703125 m 0
 343.927734375 415.220703125 443.7734375 335.168945312 443.7734375 201.01953125 c 0
 443.7734375 66.8701171875 339.057617188 -13.1806640625 236.63671875 -13.1806640625 c 0
 134.215820312 -13.1806640625 29.4931640625 66.8701171875 29.4931640625 201.01953125 c 0
 29.4931640625 335.168945312 129.345703125 415.220703125 236.63671875 415.220703125 c 0
EndSplineSet
Validated: 1
EndChar

StartChar: one
Encoding: 53 49 53
GlifName: one
Width: 270
VWidth: 800
Flags: W
HStem: 0 24<24 93.7678 177.355 247> 378 24<24 94.1035 176.989 247>
VStem: 95 81<24.4002 377.678>
LayerCount: 2
Fore
SplineSet
24 0 m 1
 24 24 l 1
 63 24 l 2
 87 24 95 28 95 45 c 2
 95 358 l 2
 95 375 87 378 63 378 c 2
 24 378 l 1
 24 402 l 1
 247 402 l 1
 247 378 l 1
 209 378 l 2
 185 378 176 375 176 358 c 2
 176 45 l 2
 176 28 185 24 209 24 c 2
 247 24 l 1
 247 0 l 1
 24 0 l 1
EndSplineSet
Validated: 1
EndChar

StartChar: two
Encoding: 54 50 54
GlifName: two
Width: 335
VWidth: 800
Flags: W
HStem: 0 65<91 306.034> 362 52<82.1597 189.745>
VStem: 216 78<241.063 337.185>
LayerCount: 2
Fore
SplineSet
18 17 m 1
 35.7106170011 76.4570713608 83.326191518 116.978904405 127.423246351 154.506404847 c 0
 173.644451832 193.841601168 216 229.887043626 216 281 c 0
 216 330 179 362 132 362 c 0
 95 362 59 343 48 313 c 1
 24 313 l 1
 39 374 94 414 163 414 c 0
 235 414 294 369 294 302 c 0
 294 250.154433973 259.207583179 223.160594247 201.516150924 178.400459188 c 0
 201.344303691 178.267130805 201.172253278 178.133644784 201 178 c 0
 197.539862749 175.404897062 194.266796589 172.435651942 190.93806715 169.415910466 c 0
 186.57061763 165.453867679 182.107345593 161.404897062 177 158 c 0
 127 118 104 96 91 65 c 1
 277 65 l 2
 296 65 300 71 307 89 c 1
 325 89 l 1
 307 20 l 2
 306.694254177 18.6241437954 306.411878481 17.3651382264 306.149300252 16.1944020179 c 0
 304.694254177 9.70690632575 303.847127088 5.92988961868 303 0 c 1
 18 0 l 1
 18 17 l 1
EndSplineSet
Validated: 1
EndChar

StartChar: three
Encoding: 55 51 55
GlifName: three
Width: 325
VWidth: 800
Flags: W
HStem: -243 19<8.31579 26.396> 161 17<72 95.2115> 365 49<71.2584 163.012>
VStem: 185 81<243.473 343.639> 208 82<-63.7969 88.0882>
LayerCount: 2
Fore
SplineSet
15 343 m 1xf0
 46 383 94 414 150 414 c 0
 218 414 266 370 266 309 c 0xf0
 266 257 230 217 183 190 c 1
 244 172 290 121 290 33 c 0
 290 -105 178 -209 12 -243 c 1
 2 -224 l 1
 136 -182 208 -97 208 4 c 0xe8
 208 94 150 150 72 161 c 1
 72 178 l 1
 127 193 185 231 185 290 c 0
 185 339 146 365 109 365 c 0
 79 365 51 347 34 330 c 1
 15 343 l 1xf0
EndSplineSet
Validated: 1
EndChar

StartChar: four
Encoding: 56 52 56
GlifName: four
Width: 478
VWidth: 800
Flags: W
HStem: 8 21G<-10 9.5> 19 54<84 261 342 465.204> 395 20G<303.417 342>
VStem: 261 81<-193.616 19 73 285>
LayerCount: 2
Fore
SplineSet
342 -160 m 2x70
 342 -174.489451477 347.85 -192.7 348 -193 c 2
 269 -238 l 1
 259 -232 l 1
 261 -218 261 -204 261 -189 c 2
 261 19 l 1
 46 19 l 2x70
 20 19 17 18 2 8 c 1xb0
 -10 17 l 1
 320 415 l 1
 342 415 l 1
 342 73 l 1
 415 73 l 2
 437 73 464 73 482 75 c 1
 490 68 l 1
 463 16 l 1
 448 18 432 19 406 19 c 2
 342 19 l 1
 342 -160 l 2x70
261 73 m 1
 261 285 l 1
 84 73 l 1
 261 73 l 1
EndSplineSet
Validated: 1
EndChar

StartChar: five
Encoding: 57 53 57
GlifName: five
Width: 350
VWidth: 800
Flags: W
HStem: -243 19<29.3158 41.2865> 338 64<118 286.062>
VStem: 226 85<-59.7402 87.233>
LayerCount: 2
Fore
SplineSet
104 402 m 1
 254 402 l 2
 278 402 285 406 291 419 c 1
 309 419 l 1
 286 359 l 2
 285.366750419 357.100251258 284.633249581 355.300753774 283.862981551 353.411055346 c 0
 282.200502516 349.332495807 280.366750419 344.833752096 279 338 c 1
 118 338 l 1
 93 249 l 1
 244 235 311 142 311 39 c 0
 311 -87 211 -207 33 -243 c 1
 23 -224 l 1
 141 -184 226 -108 226 2 c 0
 226 84 177 169 39 184 c 1
 104 402 l 1
EndSplineSet
Validated: 1
EndChar

StartChar: six
Encoding: 58 54 58
GlifName: six
Width: 450
VWidth: 800
Flags: W
HStem: -10 36<190.732 293.184> 282 51<192.313 300.939> 578 20<362.261 384.4>
VStem: 37 86<116.842 240.905> 343 79<93.5061 236.868>
LayerCount: 2
Fore
SplineSet
123 222 m 1
 125 91 180 26 242 26 c 0
 299 26 343 81 343 154 c 0
 343 213 314 282 243 282 c 0
 201 282 158 258 123 222 c 1
125 262 m 1
 166 304 220 333 278 333 c 0
 376 333 422 250 422 178 c 0
 422 83 342 -10 234 -10 c 0
 132 -10 37 74 37 233 c 0
 37 376 114 544 383 598 c 1
 387 578 l 1
 206 529 134 404 125 262 c 1
EndSplineSet
Validated: 1
EndChar

StartChar: seven
Encoding: 59 55 59
GlifName: seven
Width: 398
VWidth: 800
Flags: W
HStem: 338 64<51.25 331>
VStem: 97 62<-212 -142.278>
LayerCount: 2
Fore
SplineSet
52 402 m 1
 392 402 l 1
 392 387 l 1
 286 165 l 2
 223 31 172 -129 159 -212 c 1
 97 -212 l 1
 115 -130 171 0 246 158 c 2
 331 338 l 1
 101 338 l 2
 75 338 62 335 53 319 c 2
 45 306 l 1
 29 306 l 1
 46 373 l 1
 46 374 l 1
 46.7684537883 377.842268941 47.6845378827 381.536907577 48.5780816813 385.14063944 c 0
 50.0101007525 390.916084094 51.3842268941 396.458042047 52 402 c 1
EndSplineSet
Validated: 1
EndChar

StartChar: eight
Encoding: 60 56 60
GlifName: eight
Width: 433
VWidth: 800
Flags: W
HStem: -8 34<172.011 282.577> 566 30<158.165 258.086>
VStem: 34 72<89.0986 230.57> 52 64<428.978 522.543> 307 67<406.766 523.63> 334 68<87.1321 209.17>
LayerCount: 2
Fore
SplineSet
224 596 m 0xd0
 310 596 374 539 374 473 c 0xd8
 374 423 339 375 273 334 c 1
 297 318 l 1
 357 281 402 245 402 170 c 0
 402 68 318 -8 213 -8 c 0
 114 -8 34 60 34 155 c 0xe4
 34 236 92 286 170 310 c 1
 154 319 l 1
 93 356 52 403 52 457 c 0
 52 533 132 596 224 596 c 0xd0
195 294 m 1
 137 266 106 223 106 166 c 0
 106 91 160 26 226 26 c 0
 282 26 334 72 334 143 c 0xe4
 334 190 311 223 257 257 c 1
 195 294 l 1
246 350 m 1
 277 376 307 402 307 454 c 0
 307 514 266 566 210 566 c 0
 168 566 116 537 116 482 c 0xd8
 116 439 148 412 202 378 c 2
 246 350 l 1
EndSplineSet
Validated: 1
EndChar

StartChar: nine
Encoding: 61 57 61
GlifName: nine
Width: 450
VWidth: 800
Flags: W
HStem: -235 20<47.25 69.3907> 70 54<162.149 264.965> 376 35<146.554 250.949>
VStem: 26 80<184.493 316.606>
LayerCount: 2
Fore
SplineSet
327 190 m 1
 320 312 261 376 198 376 c 0
 144 376 106 329 106 266 c 0
 106 196 152 124 226 124 c 0
 270 124 300 149 327 190 c 1
327 143 m 1
 296 102 241 70 180 70 c 0
 78 70 26 159 26 235 c 0
 26 326 101 411 206 411 c 0
 312 411 412 324 412 171 c 0
 412 21 318 -181 49 -235 c 1
 44 -215 l 1
 229 -165 319 -13 327 143 c 1
EndSplineSet
Validated: 1
EndChar

StartChar: period
Encoding: 62 46 62
GlifName: period
Width: 178
VWidth: 800
Flags: W
HStem: -19 119<43.7454 136.255>
VStem: 30 120<-5.25464 86.6614>
LayerCount: 2
Fore
SplineSet
150 41 m 0
 150 8 123 -19 90 -19 c 0
 57 -19 30 8 30 41 c 0
 30 74 57 100 90 100 c 0
 123 100 150 74 150 41 c 0
EndSplineSet
Validated: 1
EndChar

StartChar: comma
Encoding: 63 44 63
GlifName: comma
Width: 173
VWidth: 800
Flags: W
HStem: -2 102<39.3665 97.509>
VStem: 99 58<-57.9812 40>
LayerCount: 2
Fore
SplineSet
82 100 m 0
 132 100 157 67 157 13 c 0
 157 -45 117 -99 48 -134 c 1
 26 -110 l 1
 79 -79 99 -46 99 -20 c 0
 99 -9 95 -4 85 -2 c 0
 46 5 28 23 28 52 c 0
 28 75 50 100 82 100 c 0
EndSplineSet
Validated: 1
EndChar

StartChar: colon
Encoding: 64 58 64
GlifName: colon
Width: 179
VWidth: 800
Flags: W
HStem: -19 119<43.7454 136.255> 264 119<43.7454 136.255>
VStem: 30 120<-5.25464 86.6614 277.339 369.255>
LayerCount: 2
Fore
SplineSet
150 41 m 0
 150 8 123 -19 90 -19 c 0
 57 -19 30 8 30 41 c 0
 30 74 57 100 90 100 c 0
 123 100 150 74 150 41 c 0
150 323 m 0
 150 290 123 264 90 264 c 0
 57 264 30 290 30 323 c 0
 30 356 57 383 90 383 c 0
 123 383 150 356 150 323 c 0
EndSplineSet
Validated: 1
EndChar

StartChar: semicolon
Encoding: 65 59 65
GlifName: semicolon
Width: 178
VWidth: 800
Flags: W
HStem: -2 102<40.9366 101.578> 264 119<43.7454 136.255>
VStem: 30 120<277.339 369.255> 102 57<-57.9812 40>
LayerCount: 2
Fore
SplineSet
150 323 m 0xe0
 150 290 123 264 90 264 c 0
 57 264 30 290 30 323 c 0
 30 356 57 383 90 383 c 0
 123 383 150 356 150 323 c 0xe0
84 100 m 0
 134 100 159 67 159 13 c 0
 159 -45 119 -99 50 -134 c 1
 28 -110 l 1
 81 -79 102 -46 102 -20 c 0xd0
 102 -9 96 -4 86 -2 c 0
 47 5 30 23 30 52 c 0
 30 75 52 100 84 100 c 0
EndSplineSet
Validated: 1
EndChar

StartChar: exclam
Encoding: 66 33 66
GlifName: exclam
Width: 236
VWidth: 800
Flags: W
HStem: -19 119<71.7454 164.255>
VStem: 58 120<-5.25464 86.6614 396.125 598.563>
LayerCount: 2
Fore
SplineSet
118 614 m 0
 149 614 174 589 174 558 c 0
 174 544 171 515 169 498 c 2
 128 172 l 1
 108 172 l 1
 67 498 l 2
 64 520 62 542 62 558 c 0
 62 589 87 614 118 614 c 0
178 41 m 0
 178 8 151 -19 118 -19 c 0
 85 -19 58 8 58 41 c 0
 58 74 85 100 118 100 c 0
 151 100 178 74 178 41 c 0
EndSplineSet
Validated: 1
EndChar

StartChar: question
Encoding: 67 63 67
GlifName: question
Width: 280
VWidth: 800
Flags: W
HStem: -19 119<35.7454 128.255> 540 96<21.0346 69.4226>
VStem: 22 120<-5.25464 86.6614> 68 21<162 198> 207 39<357.477 461.642>
LayerCount: 2
Fore
SplineSet
142 41 m 0xe8
 142 8 115 -19 82 -19 c 0
 49 -19 22 8 22 41 c 0
 22 74 49 100 82 100 c 0
 115 100 142 74 142 41 c 0xe8
16 636 m 1
 102.705317891 617.033211711 246 505.844410304 246 383 c 0
 246 331.954192389 222.325980564 311.162990282 164 282 c 0
 132 266 101 250 98 226 c 2
 89 162 l 1
 68 162 l 1xd8
 63 198 l 2
 53 277 49 295 44 309 c 1
 95 335 154 369 189 393 c 0
 201 401 207 407 207 428 c 0
 207 473 127 510 32 540 c 1
 19 559 13 585 13 609 c 0
 13 619 14 628 16 636 c 1
EndSplineSet
Validated: 1
EndChar

StartChar: quotesingle
Encoding: 68 39 68
GlifName: quotesingle
Width: 149
VWidth: 800
Flags: W
HStem: 458.437 198.905<59.4649 82.3369>
VStem: 27.8525 94.6349<537.789 649.777> 62.3555 19.9814<458.437 486.606>
LayerCount: 2
Fore
SplineSet
62.35546875 458.436523438 m 1xa0
 38.836980397 613.298428372 30.0363428795 639.54941748 28.224018659 644.955310323 c 0
 27.969204215 645.715383804 27.8525390625 646.063378554 27.8525390625 646.298828125 c 0
 27.8525390625 652.297851562 44.5380859375 657.341796875 66.453125 657.341796875 c 0
 88.6021853312 657.341796875 122.487425301 645.836712876 122.487425301 623.010388404 c 0xc0
 122.487425301 621.051523931 122.237881163 619.009285421 121.709960938 616.883789062 c 2
 82.3369140625 458.436523438 l 1
 62.35546875 458.436523438 l 1xa0
EndSplineSet
Validated: 1
EndChar

StartChar: quotedbl
Encoding: 69 34 69
GlifName: quotedbl
Width: 268
VWidth: 800
Flags: W
HStem: 458.437 198.905<59.421 82.293 177.703 200.574>
VStem: 27.8086 94.6349<537.789 649.777> 62.3115 19.9814<458.437 486.606> 146.091 94.6341<537.773 649.777> 180.594 19.9805<458.437 486.606>
LayerCount: 2
Fore
SplineSet
180.59375 458.436523438 m 1x88
 157.081227998 613.259141809 148.27664018 639.539068 146.462773511 644.953095683 c 0
 146.207646717 645.71459792 146.090820312 646.063301274 146.090820312 646.298828125 c 0
 146.090820312 652.297851562 162.775390625 657.341796875 184.69140625 657.341796875 c 0
 206.839358856 657.341796875 240.724926871 645.836929327 240.724926871 623.011032571 c 0x90
 240.724926871 621.051971654 240.475320909 619.00951841 239.947265625 616.883789062 c 2
 200.57421875 458.436523438 l 1
 180.59375 458.436523438 l 1x88
62.3115234375 458.436523438 m 1xa0
 38.7930350845 613.298428372 29.992397567 639.54941748 28.1800733465 644.955310323 c 0
 27.9252589025 645.715383804 27.80859375 646.063378554 27.80859375 646.298828125 c 0
 27.80859375 652.297851562 44.494140625 657.341796875 66.4091796875 657.341796875 c 0
 88.5582400187 657.341796875 122.443479989 645.836712876 122.443479989 623.010388404 c 0xc0
 122.443479989 621.051523931 122.193935851 619.009285421 121.666015625 616.883789062 c 2
 82.29296875 458.436523438 l 1
 62.3115234375 458.436523438 l 1xa0
EndSplineSet
Validated: 1
EndChar

StartChar: quoteleft
Encoding: 70 8216 70
GlifName: quoteleft
Width: 172
VWidth: 800
Flags: W
HStem: 438 104<75.491 133.279>
VStem: 16 58<499 597.389>
LayerCount: 2
Fore
SplineSet
91 438 m 0
 41 438 16 472 16 526 c 0
 16 584 57 639 126 674 c 1
 147 648 l 1
 94 617 74 584 74 558 c 0
 74 547 79 544 89 542 c 0
 128 535 145 515 145 486 c 0
 145 463 123 438 91 438 c 0
EndSplineSet
Validated: 1
EndChar

StartChar: quoteright
Encoding: 71 8217 71
GlifName: quoteright
Width: 172
VWidth: 800
Flags: W
HStem: 570 104<39.6279 97.509>
VStem: 99 58<514.338 613>
LayerCount: 2
Fore
SplineSet
82 674 m 0
 132 674 157 640 157 586 c 0
 157 528 117 473 48 438 c 1
 26 464 l 1
 79 495 99 527 99 553 c 0
 99 564 95 568 85 570 c 0
 46 577 28 596 28 625 c 0
 28 648 50 674 82 674 c 0
EndSplineSet
Validated: 1
EndChar

StartChar: quotedblleft
Encoding: 72 8220 72
GlifName: quotedblleft
Width: 315
VWidth: 800
Flags: W
HStem: 438 104<75.491 133.279 216.379 275.565>
VStem: 16 58<499 597.389> 158 58<499 597.389>
LayerCount: 2
Fore
SplineSet
91 438 m 0
 41 438 16 472 16 526 c 0
 16 584 57 639 126 674 c 1
 147 648 l 1
 94 617 74 584 74 558 c 0
 74 547 79 544 89 542 c 0
 128 535 145 515 145 486 c 0
 145 463 123 438 91 438 c 0
234 438 m 0
 184 438 158 472 158 526 c 0
 158 584 199 639 268 674 c 1
 290 648 l 1
 237 617 216 584 216 558 c 0
 216 547 221 544 231 542 c 0
 270 535 288 515 288 486 c 0
 288 463 266 438 234 438 c 0
EndSplineSet
Validated: 1
EndChar

StartChar: quotedblright
Encoding: 73 8221 73
GlifName: quotedblright
Width: 315
VWidth: 800
Flags: W
HStem: 570 104<39.6279 97.509 181.628 241.578>
VStem: 99 58<514.338 613> 242 57<514.338 613>
LayerCount: 2
Fore
SplineSet
224 674 m 0
 274 674 299 640 299 586 c 0
 299 528 259 473 190 438 c 1
 169 464 l 1
 222 495 242 527 242 553 c 0
 242 564 237 568 227 570 c 0
 188 577 170 596 170 625 c 0
 170 648 192 674 224 674 c 0
82 674 m 0
 132 674 157 640 157 586 c 0
 157 528 117 473 48 438 c 1
 26 464 l 1
 79 495 99 527 99 553 c 0
 99 564 95 568 85 570 c 0
 46 577 28 596 28 625 c 0
 28 648 50 674 82 674 c 0
EndSplineSet
Validated: 1
EndChar

StartChar: hyphen
Encoding: 74 45 74
GlifName: hyphen
Width: 493
VWidth: 800
Flags: W
HStem: 146 62<94 401>
VStem: 94 307<146 208>
LayerCount: 2
Fore
SplineSet
94 208 m 1
 401 208 l 1
 401 146 l 1
 94 146 l 1
 94 208 l 1
EndSplineSet
Validated: 1
EndChar

StartChar: endash
Encoding: 75 8211 75
GlifName: endash
Width: 392
VWidth: 800
Flags: W
HStem: 146 62<0 393>
LayerCount: 2
Fore
SplineSet
0 208 m 1
 393 208 l 1
 393 146 l 1
 0 146 l 1
 0 208 l 1
EndSplineSet
Validated: 1
EndChar

StartChar: emdash
Encoding: 76 8212 76
GlifName: emdash
Width: 780
VWidth: 800
Flags: W
HStem: 146 62<0 781>
LayerCount: 2
Fore
SplineSet
0 208 m 1
 781 208 l 1
 781 146 l 1
 0 146 l 1
 0 208 l 1
EndSplineSet
Validated: 1
EndChar

StartChar: ellipsis
Encoding: 77 8230 77
GlifName: ellipsis
Width: 626
Flags: W
HStem: -19.1787 119.506<43.4903 135.69 266.708 358.903 489.925 582.119>
VStem: 29.8389 119.503<-5.52618 86.6749> 253.057 119.496<-5.52393 86.6724> 476.275 119.495<-5.52393 86.6724>
LayerCount: 2
Fore
SplineSet
595.770507812 40.57421875 m 0
 595.770507812 7.5966796875 568.997070312 -19.177734375 536.01953125 -19.1787109375 c 0
 503.044921875 -19.173828125 476.275390625 7.5986328125 476.275390625 40.57421875 c 0
 476.275390625 73.5498046875 503.044921875 100.322265625 536.01953125 100.327148438 c 0
 568.997070312 100.326171875 595.770507812 73.552734375 595.770507812 40.57421875 c 0
372.552734375 40.57421875 m 0
 372.552734375 7.5986328125 345.783203125 -19.173828125 312.80859375 -19.1787109375 c 0
 279.831054688 -19.177734375 253.056640625 7.5966796875 253.056640625 40.57421875 c 0
 253.056640625 73.552734375 279.831054688 100.326171875 312.80859375 100.327148438 c 0
 345.783203125 100.322265625 372.552734375 73.5498046875 372.552734375 40.57421875 c 0
149.341796875 40.57421875 m 0
 149.341796875 7.5966796875 122.568359375 -19.177734375 89.5908203125 -19.1787109375 c 0
 56.6123046875 -19.177734375 29.8388671875 7.5966796875 29.8388671875 40.57421875 c 0
 29.8388671875 73.552734375 56.6123046875 100.326171875 89.5908203125 100.327148438 c 0
 122.568359375 100.326171875 149.341796875 73.552734375 149.341796875 40.57421875 c 0
EndSplineSet
Validated: 1
EndChar

StartChar: at
Encoding: 78 64 78
GlifName: at
Width: 784
Flags: W
HStem: -151.245 29.2627<300.877 483.494> -2.37891 39.501<347.903 473.005> 252.11 46.4934<303.552 404.472> 366.66 35.8916<352.778 622.904> 516.155 29.4551<301.308 484.906>
VStem: 40.1973 38.0195<87.9051 304.282> 198.485 84.9189<97.1088 232.591> 517.076 83.2412<99.1477 236.161> 705.541 38.0264<83.7966 283.177>
LayerCount: 2
Fore
SplineSet
393.865234375 545.610351562 m 0
 472.862304688 545.610351562 547.672851562 523.668945312 622.483398438 462.40234375 c 1
 594.77734375 438.61328125 l 1
 528.684570312 494.61328125 460.936523438 516.155273438 392.63671875 516.155273438 c 0
 238.181640625 516.155273438 78.216796875 394.609375 78.216796875 195.638671875 c 0
 78.216796875 -3.3330078125 238.880859375 -121.982421875 391.87890625 -121.982421875 c 0
 544.884765625 -121.982421875 705.541015625 -4.8291015625 705.541015625 195.638671875 c 0
 705.541015625 305.66015625 642.338867188 366.66015625 538.682617188 366.66015625 c 2
 352.778320312 366.66015625 l 1
 387.604492188 361.298828125 421.725585938 352.310546875 468.065429688 339.89453125 c 0
 557.309570312 315.983398438 600.317382812 257.877929688 600.317382812 186.520507812 c 0
 600.317382812 86.8642578125 523.387695312 -2.37890625 394.504882812 -2.37890625 c 0
 276.3046875 -2.37890625 198.485351562 77.0634765625 198.485351562 163.450195312 c 0
 198.485351562 253.7471937 266.495262332 298.603682264 331.831418117 298.603682264 c 0
 376.701118411 298.603682264 420.309802149 277.44812574 439.763671875 235.326171875 c 1
 415.825195312 220.583007812 l 1
 403.0141275 240.414476064 378.095226275 252.110326113 353.29740981 252.110326113 c 0
 318.229780871 252.110326113 283.404296875 228.720999745 283.404296875 171.874023438 c 0
 283.404296875 79.3994140625 361.451171875 37.1220703125 410.234375 37.1220703125 c 0
 479.879882812 37.1220703125 517.076171875 85.515625 517.076171875 155.977539062 c 0
 517.076171875 269.207236297 437.605952373 290.106154824 318.925821459 321.316417011 c 0
 270.525426752 334.044655488 217.921092905 347.878437427 161.569335938 366.66015625 c 1
 161.569335938 378.33984375 l 1
 235.555664062 406.163085938 l 1
 250.5703125 404.23046875 276.473632812 402.551757812 298.6328125 402.551757812 c 2
 529.030273438 402.551757812 l 2
 660.509765625 402.551757812 743.567382812 335.357421875 743.567382812 196.313476562 c 0
 743.567382812 0.943359375 592.615234375 -151.245117188 392.534179688 -151.245117188 c 0
 192.452148438 -151.245117188 40.197265625 -0.4951171875 40.197265625 196.313476562 c 0
 40.197265625 393.122070312 192.297851562 545.610351562 393.865234375 545.610351562 c 0
EndSplineSet
Validated: 1
EndChar

StartChar: numbersign
Encoding: 79 35 79
GlifName: numbersign
Width: 590
Flags: W
HStem: 0 21G<133.547 173.25 336.828 376.531> 123.227 68.6123<62.3193 159.647 209.647 362.929 412.929 518.915> 412.451 68.6123<115.332 220.908 270.908 424.19 474.19 571.949>
LayerCount: 2
Fore
SplineSet
461.525390625 588.717773438 m 1
 496.9921875 588.717773438 l 1
 474.189756422 481.063476562 l 1
 586.471679688 481.063476562 l 1
 571.94921875 412.451171875 l 1
 459.656872978 412.451171875 l 1
 412.928623214 191.838867188 l 1
 533.458984375 191.838867188 l 1
 518.915039062 123.2265625 l 1
 398.39573977 123.2265625 l 1
 372.294921875 0 l 1
 336.828125 0 l 1
 362.928942895 123.2265625 l 1
 195.114285362 123.2265625 l 1
 169.013671875 0 l 1
 133.546875 0 l 1
 159.647488487 123.2265625 l 1
 47.7744140625 123.2265625 l 1
 62.3193359375 191.838867188 l 1
 174.180258118 191.838867188 l 1
 220.908141931 412.451171875 l 1
 100.809570312 412.451171875 l 1
 115.33203125 481.063476562 l 1
 235.440911561 481.063476562 l 1
 258.243164062 588.717773438 l 1
 293.709960938 588.717773438 l 1
 270.907708436 481.063476562 l 1
 438.722959547 481.063476562 l 1
 461.525390625 588.717773438 l 1
424.190076103 412.451171875 m 1
 256.374938806 412.451171875 l 1
 209.647054993 191.838867188 l 1
 377.461826339 191.838867188 l 1
 424.190076103 412.451171875 l 1
EndSplineSet
Validated: 1
EndChar

StartChar: percent
Encoding: 80 37 80
GlifName: percent
Width: 615
Flags: W
HStem: -11.4531 20.624<428.989 493.349> -0.000976562 21G<77.2461 139.528> 229.022 20.624<429.066 493.336> 339.068 20.626<121.298 185.59> 579.547 20.626<121.285 185.648>
VStem: 22.9092 55.3525<395.642 543.601> 228.641 55.3818<395.46 542.809> 330.612 55.3887<45.9015 192.312> 536.365 55.3594<45.1173 193.075>
LayerCount: 2
Fore
SplineSet
489.098632812 588.716796875 m 5x7f80
 537.387695312 588.716796875 l 5
 125.536132812 -0.0009765625 l 5
 77.24609375 -0.0009765625 l 5
 489.098632812 588.716796875 l 5x7f80
153.469726562 600.172851562 m 4
 232.1640625 600.172851562 284.022460938 541.719726562 284.022460938 469.623046875 c 4
 283.99999472 397.500628974 232.556201416 339.068847667 153.44528328 339.068359363 c 4
 74.338984554 339.068359363 22.9091796875 397.523063152 22.9091796875 469.618164062 c 4
 22.931640625 541.724609375 74.7890625 600.172851562 153.469726562 600.172851562 c 4
153.469726562 579.546875 m 4
 111.403320312 579.546875 78.26171875 537.783203125 78.26171875 469.616210938 c 4
 78.2832023716 401.464304003 111.835537367 359.694335784 153.442888354 359.694335784 c 4
 195.028146452 359.694335921 228.640625 400.586761849 228.640625 469.625 c 4
 228.640625 538.662109375 195.512695312 579.546875 153.469726562 579.546875 c 4
461.165039062 -11.453125 m 4xbf80
 382.469726562 -11.453125 330.612304688 46.9990234375 330.612304688 119.091796875 c 4
 330.634765625 191.201171875 382.072265625 249.642578125 461.186523438 249.646484375 c 4
 540.286132812 249.646484375 591.724609375 191.193359375 591.724609375 119.1015625 c 4
 591.703125 46.9912109375 539.844726562 -11.453125 461.165039062 -11.453125 c 4xbf80
461.165039062 9.1708984375 m 4
 503.23046875 9.1708984375 536.365234375 50.9365234375 536.365234375 119.1015625 c 4
 536.343751256 187.25089999 502.800795787 229.022461366 461.201629506 229.022461366 c 4
 419.703230416 229.020026052 386.000971707 188.299331113 386.000971707 119.045062334 c 4
 386.000971707 50.038574108 419.130383927 9.1708984375 461.165039062 9.1708984375 c 4
EndSplineSet
Validated: 1
EndChar

StartChar: ampersand
Encoding: 81 38 81
GlifName: ampersand
Width: 705
Flags: W
HStem: -25.4258 21G<208.468 222.744> -7.28613 13.6123<368.252 387.661> 332.933 86.2754<85.3681 135.813> 377.068 41.9121<368.896 505.033>
VStem: 35.5039 76.0993<70.9463 117.227> 240.351 92.6522<506.106 562.293> 576.025 88.8105<130.372 305.741>
LayerCount: 2
Fore
SplineSet
214.36138775 414.094742245 m 1x9e
 161.881590702 382.057963556 140.98641853 359.723785648 128.80804691 346.706715668 c 0
 120.174126219 337.478195359 115.921422632 332.932617188 107.901367188 332.932617188 c 0
 93.2177734375 332.932617188 53.189453125 403.369140625 53.189453125 419.4140625 c 0
 53.189453125 426.360351562 54.7861328125 432.626953125 58.111328125 438.260742188 c 1
 67.7998046875 424.768554688 76.8564453125 419.208007812 93.328125 419.208007812 c 0xae
 123.406903682 419.208007812 170.494750226 431.918368144 222.619709976 452.076233871 c 1
 231.487765399 492.724759487 240.350752109 537.477940891 240.350752109 554.799913762 c 0
 240.350752109 574.836474859 234.206900412 591.237387802 214.736328125 604.509765625 c 1
 219.089584852 606.80902586 224.086496078 607.847878786 229.511633875 607.847878786 c 0
 269.578580267 607.847878786 333.002929688 551.184168232 333.002929688 527.106445312 c 0
 333.002929688 522.243935936 329.411296386 519.57410423 323.021801921 514.824489368 c 0
 312.522802788 507.020084403 294.46959523 493.600277343 272.383779496 455.61013342 c 1
 288.563270529 436.700497 302.943359375 410.612566535 302.943359375 400.8359375 c 0
 302.943359375 395.352503549 299.720632677 393.461955134 292.889462508 389.454585242 c 0
 281.775355808 382.934715957 261.109589834 370.811556044 229.231022053 328.495464007 c 1
 228.131165091 318.99266607 227.534396628 309.443216781 227.522638271 299.931102834 c 1
 307.723299449 374.710234167 377.680839052 418.98046875 470.676757812 418.98046875 c 0
 576.614257812 418.98046875 664.8359375 359.860351562 664.8359375 227.435546875 c 0
 664.8359375 81.4267578125 548.643554688 2.6318359375 371.20703125 -7.2861328125 c 1
 365.4609375 6.326171875 l 1x5e
 496.249023438 35.775390625 576.025390625 105.078125 576.025390625 221.803710938 c 0
 576.025390625 312.13671875 516.85546875 377.068359375 429.71484375 377.068359375 c 0
 355.686395328 377.068359375 298.542525622 328.994035906 230.95084839 224.559422458 c 1
 232.075066497 211.242823999 240.836580315 140.824493411 246.693322728 93.7524882756 c 0
 249.733660005 69.3165882765 251.991210936 51.1721247671 251.991210938 50.5732421875 c 0
 251.991210938 19.216796875 228.986328125 -25.42578125 216.501953125 -25.42578125 c 0
 200.434032684 -25.42578125 187.109757091 1.11052899616 177.924565545 27.0488237943 c 0
 172.700061497 41.8024329064 161.502079893 73.4246963587 124.291311041 118.015782711 c 1
 118.69772048 101.13702288 114.776756358 87.193925291 111.603241217 75.9087847139 c 0
 103.885764866 48.4651451979 100.588581125 36.740234375 88.40625 36.740234375 c 0
 73.1923828125 36.740234375 35.50390625 98.9228515625 35.50390625 137.041015625 c 0
 35.50390625 147.358123833 47.8658497582 163.515647472 71.4561331955 194.349032371 c 0
 101.038571783 233.014388708 148.278020954 294.758119876 210.939037474 397.003545608 c 0
 212.04825353 402.820244954 213.193495789 408.498928492 214.36138775 414.094742245 c 1x9e
189.583984375 108.901367188 m 1
 189.590320143 109.065569178 189.715961904 110.70770856 189.931355495 113.522905483 c 0
 191.460689677 133.511322305 197.514648438 212.636638772 197.514648438 241.770507812 c 0
 197.514648438 256.040287051 197.761007858 269.314812312 198.217596945 281.743029768 c 1
 188.407838919 265.13354552 158.6350044 211.884913535 132.649929856 141.821785674 c 1
 182.410317528 111.951316877 182.410317528 111.951316877 189.583984375 108.901367188 c 1
EndSplineSet
Validated: 1
EndChar

StartChar: asciicircum
Encoding: 82 94 82
GlifName: asciicircum
Width: 395
Flags: W
HStem: 349.386 239.332
LayerCount: 2
Fore
SplineSet
168.03515625 588.717773438 m 1
 226.852539062 588.717773438 l 1
 365.953125 349.385742188 l 1
 303.244140625 349.385742188 l 1
 197.439453125 536.665039062 l 1
 91.6357421875 349.385742188 l 1
 28.93359375 349.385742188 l 1
 168.03515625 588.717773438 l 1
EndSplineSet
Validated: 1
EndChar

StartChar: asterisk
Encoding: 83 42 83
GlifName: asterisk
Width: 351
Flags: W
HStem: 449.34 79.2253<38.9972 72.5723>
VStem: 98.3878 79.16<357.448 405.695>
LayerCount: 2
Fore
SplineSet
28.9414333519 513.28230328 m 0
 28.9414333519 522.708218137 28.9414333519 528.565129562 41.776512819 528.565129562 c 0
 57.2980216496 528.565129562 91.5897482256 519.999892155 167.350585938 498.823242188 c 1
 166.983398438 483.788085938 l 1
 48.4951171875 449.33984375 l 1
 41.3962579238 462.329605384 28.9414333519 493.946533637 28.9414333519 513.28230328 c 0
101.390625 357.375976562 m 0
 99.7812904122 358.923240284 98.3878190265 360.26296649 98.3878190265 363.183211281 c 0
 98.3878190265 371.914016531 110.843519076 394.772464163 167.225585938 479.54296875 c 1
 181.41015625 474.545898438 l 1
 177.547851562 351.2109375 l 1
 169.899173808 349.769060384 156.89267325 348.509671671 143.605097515 348.509671671 c 0
 126.231435638 348.509671671 108.377251273 350.662706331 101.390625 357.375976562 c 0
263.37890625 379.791015625 m 0
 248.208984375 396.375976562 218.193359375 432.206054688 185.522460938 473.452148438 c 1
 194.65234375 485.397460938 l 1
 310.763671875 443.62109375 l 2
 310.677365674 442.951201978 299.295206353 372.382210975 276.533139046 372.382210975 c 0
 272.504948201 372.382210975 268.120359223 374.59230412 263.37890625 379.791015625 c 0
310.1015625 534.084960938 m 0
 289.620117188 524.7890625 246.274414062 507.298828125 196.961914062 488.96875 c 1
 188.40625 501.349609375 l 1
 264.018554688 598.859375 l 1
 280.262695312 591.173828125 319.009765625 565.9375 322.01953125 549.104492188 c 0
 323.166992188 542.920898438 321.50390625 539.266601562 310.1015625 534.084960938 c 0
165.166089297 642.311565589 m 0
 174.597402487 642.311565589 176.647189164 636.310998781 177.783203125 626.192382812 c 0
 180.276367188 603.859375 183.55078125 557.22265625 185.728515625 504.647460938 c 1
 171.323242188 500.354492188 l 1
 101.934570312 602.392578125 l 1
 113.820431357 614.967774031 147.519594884 642.311565589 165.166089297 642.311565589 c 0
EndSplineSet
Validated: 1
EndChar

StartChar: less
Encoding: 84 60 84
GlifName: less
Width: 424
Flags: W
HStem: -24.7725 21G<350.279 384.228>
LayerCount: 2
Fore
SplineSet
21.2314453125 208.948242188 m 5
 384.227539062 422.810546875 l 5
 384.227539062 357.791992188 l 5
 111.108398438 199.01953125 l 5
 384.227539062 40.24609375 l 5
 384.227539062 -24.7724609375 l 5
 21.2314453125 189.076171875 l 5
 21.2314453125 208.948242188 l 5
EndSplineSet
Validated: 1
EndChar

StartChar: asciitilde
Encoding: 85 126 85
GlifName: asciitilde
Width: 685
Flags: W
HStem: 211.026 70.708<406.553 541.778> 290.893 70.7041<142.801 276.689>
LayerCount: 2
Fore
SplineSet
456.478515625 211.026367188 m 0
 400.580888308 211.026367188 356.027741757 232.245909017 312.851278637 252.809771193 c 0
 272.263125615 272.140886444 232.89154661 290.892578125 186.456054688 290.892578125 c 0
 143.470703125 290.892578125 101.640625 267.477539062 70.3671875 225.377929688 c 1
 47.48046875 236.626953125 l 1
 79.0185546875 305.13671875 144.854492188 361.596679688 228.095703125 361.596679688 c 0
 282.895531666 361.596679688 326.763487709 340.690432404 369.609925716 320.271012194 c 0
 410.506311505 300.780932614 450.472047145 281.734375 498.125 281.734375 c 0
 541.110351562 281.734375 582.940429688 305.150390625 614.213867188 347.245117188 c 1
 637.100585938 335.99609375 l 1
 605.5625 267.483398438 539.719726562 211.026367188 456.478515625 211.026367188 c 0
EndSplineSet
Validated: 1
EndChar

StartChar: greater
Encoding: 86 62 86
GlifName: greater
Width: 424
Flags: W
HStem: -24.7725 21G<40.1826 74.1315>
LayerCount: 2
Fore
SplineSet
403.178710938 208.948242188 m 5
 403.178710938 189.076171875 l 5
 40.1826171875 -24.7724609375 l 5
 40.1826171875 40.24609375 l 5
 313.301757812 199.01953125 l 5
 40.1826171875 357.791992188 l 5
 40.1826171875 422.810546875 l 5
 403.178710938 208.948242188 l 5
EndSplineSet
Validated: 1
EndChar

StartChar: equal
Encoding: 87 61 87
GlifName: equal
Width: 471
Flags: W
HStem: 81.918 53.8291<38.9326 431.782> 249.325 53.8291<38.9326 431.782>
LayerCount: 2
Fore
SplineSet
38.9326171875 303.154296875 m 1
 431.782226562 303.154296875 l 1
 431.782226562 249.325195312 l 1
 38.9326171875 249.325195312 l 1
 38.9326171875 303.154296875 l 1
38.9326171875 135.747070312 m 1
 431.782226562 135.747070312 l 1
 431.782226562 81.91796875 l 1
 38.9326171875 81.91796875 l 1
 38.9326171875 135.747070312 l 1
EndSplineSet
Validated: 1
EndChar

StartChar: plus
Encoding: 88 43 88
GlifName: plus
Width: 471
Flags: W
HStem: -9.61035 21G<206.488 264.225> 173.057 53.8291<38.9316 206.488 264.225 431.781>
VStem: 206.488 57.7363<-9.61035 173.057 226.886 391.025>
LayerCount: 2
Fore
SplineSet
206.48828125 226.885742188 m 1
 206.48828125 391.025390625 l 1
 264.224609375 391.025390625 l 1
 264.224609375 226.885742188 l 1
 431.78125 226.885742188 l 1
 431.78125 173.056640625 l 1
 264.224609375 173.056640625 l 1
 264.224609375 -9.6103515625 l 1
 206.48828125 -9.6103515625 l 1
 206.48828125 173.056640625 l 1
 38.931640625 173.056640625 l 1
 38.931640625 226.885742188 l 1
 206.48828125 226.885742188 l 1
EndSplineSet
Validated: 1
EndChar

StartChar: dollar
Encoding: 89 36 89
GlifName: dollar
Width: 413
Flags: W
HStem: -17.7899 35.3207<134.188 183.919 232.443 273.626> 570.083 32.1682<161.189 183.919 232.443 282.932>
VStem: 50.7988 19.7822<138.741 149.659> 52.792 67.5273<426.353 519.93> 183.919 48.5244<-88.7451 -16.1099 18.0313 252.337 389.592 566.211 602.24 675.011> 323.667 65.7695<75.3295 190.282> 341.515 19.2676<465.874 479.74>
LayerCount: 2
Fore
SplineSet
183.918945312 675.010742188 m 1xd8
 232.443359375 675.010742188 l 1
 232.443359375 602.239914004 l 1
 233.223606293 602.247279957 234.00615994 602.250976562 234.791015625 602.250976562 c 0
 296.153320312 602.250976562 342.095703125 583.9296875 373.759765625 559.282226562 c 1
 368.403320312 551.303710938 365.107421875 527.935546875 363.88671875 510.3671875 c 2
 360.782226562 465.874023438 l 1
 341.514648438 465.874023438 l 1xda
 339.822265625 479.740234375 l 2
 333.18580116 534.1118083 280.2802634 564.51998773 232.443359375 570.082752308 c 1
 232.443359375 355.423252341 l 1
 291.143554688 314.189453125 l 2
 342.31640625 278.250976562 389.436523438 244.303710938 389.436523438 160.318359375 c 0
 389.436523438 84.3746386351 339.672738249 -1.54002421851 232.443359375 -16.1099276865 c 1
 232.443359375 -88.7451171875 l 1
 183.918945312 -88.7451171875 l 1
 183.918945312 -17.7898500564 l 1
 116.600374202 -13.7276697901 68.3160522144 15.8567932282 32.9072265625 43.458984375 c 1
 39.78515625 65.384765625 43.736328125 89.72265625 50.798828125 149.659179688 c 1
 70.5810546875 149.659179688 l 1xec
 71.7138671875 138.741210938 l 2
 76.6703189978 90.8619930022 105.821447799 28.4625780006 183.918945312 17.5308380533 c 1
 183.918945312 286.209643659 l 1
 132.782226562 321.90625 l 2
 90.546875 351.38671875 52.7919921875 389.912109375 52.7919921875 447.526367188 c 0
 52.7919921875 509.613236129 99.5479360483 577.017052805 183.918945312 596.617295769 c 1
 183.918945312 675.010742188 l 1xd8
232.443359375 252.336588268 m 1
 232.443359375 18.0312943184 l 1
 286.572784924 28.1813150653 323.666992188 72.5266703047 323.666992188 121.052734375 c 0xcc
 323.666992188 188.291773071 282.908486148 217.108794842 232.443359375 252.336588268 c 1
183.918945312 389.592292266 m 1
 183.918945312 566.210784297 l 1
 141.943560191 553.002584128 120.319335938 514.725989231 120.319335938 478.649414062 c 0xd8
 120.319335938 444.894290946 138.609758605 422.384817011 183.918945312 389.592292266 c 1
EndSplineSet
Validated: 1
EndChar

StartChar: parenleft
Encoding: 90 40 90
GlifName: parenleft
Width: 353
Flags: W
VStem: 50.9814 86.1924<0.963118 373.938>
LayerCount: 2
Fore
SplineSet
137.173828125 187.456054688 m 0
 137.173828125 -69.4244930082 213.474349738 -144.876392366 326.211914062 -186.14453125 c 1
 326.211914062 -213.805664062 l 1
 211.513671875 -197.676757812 116.0078125 -132.1953125 76.693359375 -13.650390625 c 0
 58.8828125 40.046875 50.9814453125 104.560546875 50.9814453125 187.456054688 c 0
 50.9814453125 270.3515625 58.8828125 334.865234375 76.693359375 388.5625 c 0
 116.0078125 507.107421875 211.513671875 572.588867188 326.211914062 588.717773438 c 1
 326.211914062 561.056640625 l 1
 213.441369004 519.776428982 137.173828125 444.292853926 137.173828125 187.456054688 c 0
EndSplineSet
Validated: 1
EndChar

StartChar: parenright
Encoding: 91 41 91
GlifName: parenright
Width: 353
Flags: W
VStem: 216.148 86.1914<0.974052 373.949>
LayerCount: 2
Fore
SplineSet
216.1484375 187.456054688 m 0
 216.1484375 444.336137973 139.847157351 519.788340598 27.1103515625 561.056640625 c 1
 27.1103515625 588.717773438 l 1
 141.80859375 572.588867188 237.314453125 507.107421875 276.62890625 388.5625 c 0
 294.439453125 334.865234375 302.33984375 270.3515625 302.33984375 187.456054688 c 0
 302.33984375 104.560546875 294.439453125 40.046875 276.62890625 -13.650390625 c 0
 237.314453125 -132.1953125 141.80859375 -197.676757812 27.1103515625 -213.805664062 c 1
 27.1103515625 -186.14453125 l 1
 139.880331978 -144.864087359 216.1484375 -69.3800231685 216.1484375 187.456054688 c 0
EndSplineSet
Validated: 1
EndChar

StartChar: bracketleft
Encoding: 92 91 92
GlifName: bracketleft
Width: 310
Flags: W
HStem: -211.798 35.6484<160.362 283.345> 553.068 35.6494<160.362 283.345>
VStem: 79.0996 81.2627<-176.149 553.068>
LayerCount: 2
Fore
SplineSet
79.099609375 592.610351562 m 1
 107.563476562 590.6640625 160.97265625 588.717773438 224.984375 588.717773438 c 2
 283.344726562 588.717773438 l 1
 283.344726562 556.71875 l 1
 160.362304688 553.068359375 l 1
 160.362304688 -176.149414062 l 1
 283.344726562 -179.798828125 l 1
 283.344726562 -211.797851562 l 1
 224.984375 -211.797851562 l 2
 160.97265625 -211.797851562 107.5703125 -213.744140625 79.099609375 -215.69140625 c 1
 79.099609375 592.610351562 l 1
EndSplineSet
Validated: 1
EndChar

StartChar: bracketright
Encoding: 93 93 93
GlifName: bracketright
Width: 310
Flags: W
HStem: -211.798 31.999<27.1025 150.085> 556.719 31.999<27.1025 150.085>
VStem: 150.085 81.2627<-176.149 553.068>
LayerCount: 2
Fore
SplineSet
231.34765625 592.610351562 m 1
 231.34765625 -215.69140625 l 1
 202.876953125 -213.744140625 149.474609375 -211.797851562 85.462890625 -211.797851562 c 2
 27.1025390625 -211.797851562 l 1
 27.1025390625 -179.798828125 l 1
 150.084960938 -176.149414062 l 1
 150.084960938 553.068359375 l 1
 27.1025390625 556.71875 l 1
 27.1025390625 588.717773438 l 1
 85.462890625 588.717773438 l 2
 149.474609375 588.717773438 202.883789062 590.6640625 231.34765625 592.610351562 c 1
EndSplineSet
Validated: 1
EndChar

StartChar: braceleft
Encoding: 94 123 94
GlifName: braceleft
Width: 248
Flags: W
HStem: -213.806 28.4062<190.469 221.055> 175.777 23.3574<31.1406 61.983> 560.312 28.4062<190.472 221.055>
VStem: 82.8171 82.6661<-170.957 164.661 210.25 545.873>
LayerCount: 2
Fore
SplineSet
77.3139365615 -57.0133644911 m 0
 77.3139365615 -24.6584817424 81.1193945509 63.0985638598 82.4013261726 92.6609797628 c 0
 82.66098058 98.6488276735 82.8171041985 102.249168958 82.8171041985 102.518032766 c 0
 82.8171041985 147.472795454 73.6959331987 168.251803388 31.140625 175.77734375 c 1
 31.140625 199.134765625 l 1
 73.6959331987 206.660305987 82.8171041985 227.439313921 82.8171041985 272.394076609 c 0
 82.8171041985 284.81406025 81.926703451 302.021391393 80.8622134144 322.59306388 c 0
 79.2803051188 353.164039879 77.3139365615 391.164855815 77.3139365615 431.925414836 c 0
 77.3139365615 559.053890061 104.036112136 588.717773438 221.0546875 588.717773438 c 1
 221.0546875 560.311523438 l 1
 171.251931449 551.484865234 161.453757735 520.760278582 161.453757735 453.868962349 c 0
 161.453757735 434.876975182 162.362725529 409.167490656 163.317227681 382.170100323 c 0
 164.372403822 352.325220382 165.48322614 320.906429326 165.48322614 295.248916211 c 0
 165.48322614 235.29539818 160.516302575 206.819149788 124.034179688 187.456054688 c 1
 160.517410566 168.092371515 165.48322614 139.613933494 165.48322614 79.6631931643 c 0
 165.48322614 72.1297290625 163.395749524 -5.91071035295 162.225755266 -49.651016379 c 0
 161.770212752 -66.6815007667 161.453757735 -78.5121907114 161.453757735 -78.9568529735 c 0
 161.453757735 -145.848169207 171.251931449 -176.572755859 221.0546875 -185.399414062 c 1
 221.0546875 -213.805664062 l 1
 104.025067679 -213.805664062 77.3139365615 -184.130506663 77.3139365615 -57.0133644911 c 0
EndSplineSet
Validated: 1
EndChar

StartChar: braceright
Encoding: 95 125 95
GlifName: braceright
Width: 248
Flags: W
HStem: -213.806 28.4062<27.1016 58.5206> 175.777 23.3574<186.174 217.016> 560.312 28.4062<27.1016 58.5218>
VStem: 86.7033 84.0907<-166.578 168.024 206.888 541.487>
LayerCount: 2
Fore
SplineSet
86.703334504 -78.9541115208 m 0
 86.703334504 -59.6273107572 85.7665106354 -33.3306511493 84.7921611608 -5.98064723722 c 0
 83.7364970525 23.6518596262 82.6367825585 54.5208614566 82.6367825585 79.1014893399 c 0
 82.6367825585 146.36304308 90.778841059 169.743380572 124.122070312 187.456054688 c 1
 90.7787416642 205.168781604 82.6367546282 228.549682924 82.6367546282 295.810342653 c 0
 82.6367546282 320.390639592 83.7364696707 351.259575641 84.7921379482 380.892121606 c 0
 85.7664977359 408.242343084 86.703334504 434.539295627 86.703334504 453.866220896 c 0
 86.703334504 520.759439113 76.904998913 551.484744652 27.1015625 560.311523438 c 1
 27.1015625 588.717773438 l 1
 147.749856553 588.717773438 170.794255852 555.874745988 170.794255852 430.492458515 c 0
 170.794255852 389.715300441 168.855063298 352.502624877 167.289257276 322.455154171 c 0
 166.229077968 302.110548092 165.340074071 285.050760235 165.340074071 272.393460949 c 0
 165.340074071 227.439124207 174.46112918 206.660271633 217.015625 199.134765625 c 1
 217.015625 175.77734375 l 1
 174.46112918 168.251837742 165.340074071 147.472985168 165.340074071 102.518648426 c 0
 165.340074071 89.8604553984 166.229080001 72.8010729463 167.289247687 52.4572198595 c 0
 168.854985163 22.4118472354 170.794054884 -14.7975018554 170.794054884 -55.5735247895 c 0
 170.794054884 -180.973178654 147.744883359 -213.805664063 27.1015625 -213.805664062 c 1
 27.1015625 -185.399414062 l 1
 76.904998913 -176.572635277 86.703334504 -145.847329738 86.703334504 -78.9541115208 c 0
EndSplineSet
Validated: 1
EndChar

StartChar: bar
Encoding: 96 124 96
GlifName: bar
Width: 213
Flags: W
VStem: 79.1064 54.668<-211.798 588.718>
LayerCount: 2
Fore
SplineSet
79.1064453125 588.717773438 m 1
 133.774414062 588.717773438 l 1
 133.774414062 -211.797851562 l 1
 79.1064453125 -211.797851562 l 1
 79.1064453125 588.717773438 l 1
EndSplineSet
Validated: 1
EndChar

StartChar: slash
Encoding: 97 47 97
GlifName: slash
Width: 217
Flags: W
HStem: 0 21G<0 60.9243>
VStem: 0 216.642
LayerCount: 2
Fore
SplineSet
161.193359375 588.717773438 m 1
 216.641601562 588.717773438 l 1
 55.4482421875 0 l 1
 0 0 l 1
 161.193359375 588.717773438 l 1
EndSplineSet
Validated: 1
EndChar

StartChar: backslash
Encoding: 98 92 98
GlifName: backslash
Width: 217
Flags: W
HStem: 0 21G<155.718 216.642>
VStem: 0 216.642
LayerCount: 2
Fore
SplineSet
55.4482421875 588.717773438 m 1
 216.641601562 0 l 1
 161.194335938 0 l 1
 0 588.717773438 l 1
 55.4482421875 588.717773438 l 1
EndSplineSet
Validated: 1
EndChar

StartChar: underscore
Encoding: 100 95 100
GlifName: underscore
Width: 781
Flags: W
HStem: -204.035 61.6152<0.0078125 780.815>
LayerCount: 2
Fore
SplineSet
0.0078125 -142.419921875 m 1
 780.815429688 -142.419921875 l 1
 780.815429688 -204.03515625 l 1
 0.0078125 -204.03515625 l 1
 0.0078125 -142.419921875 l 1
EndSplineSet
Validated: 1
EndChar

StartChar: grave
Encoding: 101 96 101
GlifName: grave
Width: 309
Flags: W
HStem: 461.852 176.383
VStem: 64.8945 182.866
LayerCount: 2
Fore
SplineSet
216.619140625 461.8515625 m 1
 64.89453125 616.19921875 l 2
 64.3432484116 617.612552917 64.0803208589 618.953853468 64.0803208589 620.224270225 c 0
 64.0803208589 632.584094761 88.9670764942 638.234589404 115.324953826 638.234589404 c 0
 142.370239651 638.234589404 170.964380921 632.285523861 175.811523438 621.53125 c 2
 247.760742188 461.8515625 l 1
 216.619140625 461.8515625 l 1
EndSplineSet
Validated: 1
EndChar

StartChar: placeholder
Encoding: 103 57424 103
GlifName: placeholder
Width: 422
VWidth: 800
Flags: W
HStem: -188 86<50 67 355 372> -188 17<67 120 133 204 217 288 300 355> -85 77<50 67 355 372> 14 81<50 67 355 372> 108 79<50 67 355 372> 126 8<111.947 116 161.348 181.906 255.824 260 308.361 330.872> 170 8<95.2812 100 110 128 137 148 158 182 192 203 212 223 233 244 254 272 281 296 303.931 332.495> 204 86<50 67 355 372> 228 9<156.464 178.923> 249 7<318 337.769> 274 8<113 124.993 152 164.486 197 207.938 236 245.959 276 288 297 307.993> 306 77<50 67 355 372> 405 81<50 67 355 372> 498 90<50 67 355 372> 570 18<67 120 133 204 217 288 300 355>
VStem: 50 70<-188 -171 570 588> 50 17<-171 -102 -85 -8 10 90 108 187 204 290 306 383 401 481 498 570> 103 9<134.605 170 229.125 273> 125 10<134.417 170 203.875 273.926> 133 71<-188 -171 570 588> 148 10<135.019 170> 167 10<250.183 272.437> 177 15<193.003 201.932> 182 10<137 170 178 193 273.004 274> 187 9<229.125 236 243.665 273> 203 9<126.026 170> 208 9<204.017 229 238 269.801> 217 71<-188 -171 570 588> 223 10<99.866 170 178 193 198 200> 244 10<134.857 170 262 273.47> 266 10<203.073 273> 272 9<134.872 170> 288 9<153 161.547 229.017 274> 300 72<-188 -171 570 588> 308 10<203.505 249 256 274> 355 17<-171 -98 -81 -4 14 95 112 191 209 294 311 387 405 486 502 570>
LayerCount: 2
Fore
SplineSet
50 481 m 1x301880
 67 482 l 1
 67 401 l 1
 50 400 l 1
 50 481 l 1x301880
50 383 m 1
 67 383 l 1
 67 306 l 1
 50 306 l 1
 50 383 l 1
50 290 m 1x311880
 67 290 l 1
 67 204 l 1
 50 204 l 1
 50 290 l 1x311880
50 187 m 1x381880
 67 187 l 1
 67 108 l 1
 50 108 l 1
 50 187 l 1x381880
50 90 m 1
 67 91 l 1
 67 10 l 1
 50 10 l 1
 50 90 l 1
50 -8 m 1
 67 -8 l 1
 67 -85 l 1
 50 -85 l 1
 50 -8 l 1
50 -102 m 1xb01880
 67 -102 l 1xb01880
 67 -171 l 1x701880
 120 -171 l 1
 120 -188 l 1x7019
 50 -188 l 1xb019
 50 -102 l 1xb01880
50 588 m 1x301d
 120 588 l 1
 120 570 l 1x301b
 67 570 l 1x301a80
 67 498 l 1
 50 498 l 1x301c80
 50 528 50 558 50 588 c 1x301d
133 588 m 1x301a10
 204 588 l 1
 204 570 l 1
 133 570 l 1
 133 588 l 1x301a10
217 588 m 1x301a0010
 288 588 l 1
 288 570 l 1
 217 570 l 1
 217 588 l 1x301a0010
300 588 m 1x301a000040
 372 588 l 1x301c000040
 372 502 l 1
 355 502 l 1
 355 570 l 1x301a000010
 300 570 l 1
 300 588 l 1x301a000040
372 486 m 1x3018000010
 372 405 l 1
 355 405 l 1
 355 486 l 1
 372 486 l 1x3018000010
372 387 m 1
 372 311 l 1
 355 310 l 1
 355 387 l 1
 372 387 l 1
372 294 m 1
 372 209 l 1
 355 208 l 1
 355 294 l 1
 372 294 l 1
187 236 m 1x30b800a0
 183 234 183 234 168 228 c 0
 162 228 147 228 141 240 c 1
 141 243 l 1
 149 245 150 246 150 246 c 1
 162 246 167 254 167 262 c 0
 167 267 165 275 152 275 c 1
 152 280 l 1
 160 282 l 2
 162 282 177 282 177 262 c 0
 177 247 164 242 156 239 c 1
 163 237 163 237 164 237 c 0
 173 235 184 242 187 250 c 1
 187 273 l 1x30b804a0
 187 273 182 278 182 279 c 2
 182 280 l 1x30b801
 182.376887462 280.376887462 182.611730765 280.469686606 183.346945861 280.760209395 c 0
 184.56248575 281.240534189 187.145762083 282.261324773 194 286 c 1
 197 282 l 1
 206 282 l 1
 208 283 208 283 218 285 c 1
 218 276 l 1
 224 278 230 280 236 282 c 1
 241 282 l 2
 251.304816468 282 257.756962008 274.053866212 257.756962008 264.305811359 c 0
 257.756962008 254.188480684 250.806716979 242.130122355 234 235 c 0
 230 234 217 229 217 229 c 1
 217 206 l 1
 213.5 204.5 212 203.75 211 203.25 c 0
 210 202.75 209.5 202.5 208 202 c 1
 208 274 l 1
 196 274 l 1
 196 231 l 1
 194 229.666666667 192 229.222222222 190 228.777777778 c 0
 189 228.555555556 188 228.333333333 187 228 c 1
 187 236 l 1x30b800a0
98 279 m 1
 110 286 l 1
 113 282 l 1
 124 282 l 1
 126 283 126 283 136 285 c 1
 135 282 135 278 135 273 c 2
 135 206 l 1
 128 203 128 203 125 202 c 1
 125 274 l 1
 112 274 l 1
 112 231 l 1
 110 229.666666667 108 229.222222222 106 228.777777778 c 0
 105 228.555555556 104 228.333333333 103 228 c 1
 103 273 l 1x30b860
 98 279 l 1
261 281 m 1
 264 283 272 286 272 286 c 1x30780001
 272.763932023 285.236067977 273.236067977 284.909830056 273.639320225 284.631189606 c 0
 274.291796068 284.180339887 274.763932023 283.854101966 276 282 c 1
 307 282 l 1
 309 283 309 283 319 285 c 1
 319 284.171572875 318.828427125 283.171572875 318.627416998 282 c 0
 318.343145751 280.343145751 318 278.343145751 318 276 c 2
 318 256 l 1
 320 256 l 2
 322.639320225 256 325.27864045 256.27864045 327.7708764 256.5417528 c 0
 330 256.77708764 332.11145618 257 334 257 c 2
 339 257 l 1
 339 256 338 253 336 247 c 0
 335.979889186 247 335.883893959 247.024782535 335.713275127 247.068830217 c 0
 334.351151831 247.42048175 328.232883012 249 318 249 c 1
 318 206 l 1
 311 203 311 203 308 202 c 1
 308 274 l 1
 297 274 l 1
 297 231 l 1
 293.5 229.5 292 228.75 291 228.25 c 0
 290 227.75 289.5 227.5 288 227 c 1
 288 274 l 1
 276 274 l 1
 276 206 l 1
 269 203 269 203 266 202 c 1
 266 273 l 1x30780002a0
 261 281 l 1
220 238 m 0
 245 242 247 262 247 262 c 2
 248 264 250 274 235 274 c 0
 229 274 219 269 217 267 c 1
 217 238 l 1x30380020
 218 238 219 238 220 238 c 0
168 221 m 2
 169 221 170 221 170 220 c 2
 170 218 l 2
 170 217.798753882 168.82943443 210.439245907 161 200 c 1
 159 206 153 219 153 219 c 1
 153 220 l 2
 153 221 155 221 156 221 c 2
 156 221 157 220 162 217 c 1
 168 221 l 2
223 193 m 1x37180108
 219 198 l 1
 219 200 l 1
 220 200 l 1
 225 202 229 203 233 204 c 1
 233 178 l 1
 328 178 l 1
 328 178 330 179 332 179 c 0
 334 179 334 178 334 178 c 2
 334 177.552786405 333.8 177.105572809 333.4 176.211145618 c 0
 332.905572809 175.105572809 332.105572809 173.316718427 331 170 c 0
 330.85714476 170.047479584 325.197612609 171.895188433 318.752928135 171.895188433 c 0
 310.086388411 171.895188433 300 168.553840632 300 153 c 1
 300 153 301.640441438 133.314702741 323.492359465 133.314702741 c 0
 325.768600926 133.314702741 328.264150943 133.528301887 331 134 c 1
 331 129 l 1
 313 126 l 1
 297.735140889 126 289.518022381 139.654997417 289.518022381 152.640112904 c 0
 289.518022381 159.220042468 291.627963845 165.627963845 296 170 c 1
 281 170 l 1
 281 141 l 1
 277 127 260 126 260 126 c 1
 246 126 244 138 244 142 c 2
 244 170 l 1
 233 170 l 1
 233 103 l 1
 230 101 227 100 223 99 c 1
 223 170 l 1
 212 170 l 1
 212 128 l 1
 209.725082782 126.483388522 208.025193159 126.116832231 205.592190955 125.592190955 c 0
 204.816721855 125.424972406 203.966777043 125.241694261 203 125 c 1
 203 170 l 1
 192 170 l 1
 192 137 l 1
 195 128 l 1
 192.946024685 126.630683123 190.423292192 126.198880601 187.752741079 125.741776762 c 0
 186.522732493 125.531242823 185.261366246 125.315341562 184 125 c 1
 183 129 l 1
 180 127 169 125 164 125 c 0
 149 125 148 142 148 144 c 2
 148 170 l 1
 137 170 l 1
 137 141 l 1
 133 127 116 126 116 126 c 1
 107 124 100 132 100 142 c 2
 100 170 l 1
 81 170 l 1
 79 171 l 1
 79 174 79 175 92 186 c 1
 94 184 96 181 98 178 c 1
 182 178 l 1
 182 193 l 1x3718094d40
 182 193 177 197 177 198 c 0x371802
 177.04249431 198.084988619 177.083182853 198.168171472 177.123063182 198.249702028 c 0
 178.021669196 200.086794385 178.509931715 201.084988619 190 203 c 0
 191 203 191 204 191 204 c 1
 192 204 l 1
 192 178 l 1
 223 178 l 1
 223 193 l 1x37180108
372 191 m 1x3018000010
 372 112 l 1
 355 112 l 1
 355 191 l 1
 372 191 l 1x3018000010
119 134 m 0x3618
 124 134 128 136 128 143 c 2
 128 170 l 1
 110 170 l 1
 110 161 110 154 110 145 c 0
 110 134 118 134 119 134 c 0x3618
158 170 m 1x361809
 158 146 l 2
 158 144 161 136 164 134 c 1
 176 134 l 1
 178 135 180 136 182 138 c 1
 182 170 l 1
 158 170 l 1x361809
263 134 m 0
 266 134 272 134 272 143 c 2
 272 170 l 1
 254 170 l 1
 254 147 l 2x36180005
 254 143 254 134 263 134 c 0
201 118 m 2
 201 118 202 117 208 114 c 1x30180020
 216 117 l 1
 216 114 l 1
 207 98 l 1
 206 100 205 102 199 116 c 1
 199 117 l 2
 199 118 200 118 201 118 c 2
372 95 m 1x3018000010
 372 14 l 1
 355 14 l 1
 355 95 l 1
 372 95 l 1x3018000010
372 -4 m 1
 372 -81 l 1
 355 -81 l 1
 355 -4 l 1
 372 -4 l 1
372 -98 m 1
 372 -188 l 1xb018000040
 300 -188 l 1
 300 -171 l 1x7018000040
 355 -171 l 1x7018000010
 355 -98 l 1
 372 -98 l 1
133 -171 m 1x701810
 204 -171 l 1
 204 -188 l 1
 133 -188 l 1
 133 -171 l 1x701810
217 -171 m 1x70180010
 288 -171 l 1
 288 -188 l 1
 217 -188 l 1
 217 -171 l 1x70180010
EndSplineSet
Validated: 1
EndChar

StartChar: a.init
Encoding: 104 57344 104
GlifName: a.init
Width: 540
VWidth: 800
Flags: W
HStem: -22.1366 53.2079<211.244 364.779> 366.661 35.8916<485.642 547.75> 370.042 40.7932<200.578 359.632>
VStem: 35.7891 81.042<125.918 295.417> 404.381 81.2607<55.2949 335.853 402.552 548.571>
LayerCount: 2
Fore
SplineSet
411.402013775 15.0388238655 m 1xd8
 407.961228437 13.7419085084 305.930377883 -22.1365989632 271.588852836 -22.1365989632 c 0
 142.454183365 -22.1365989632 35.7890625 52.8818591528 35.7890625 199.986328125 c 0
 35.7890625 303.392578125 91.146484375 344.919921875 135.509765625 370.59765625 c 0
 150.001953125 376.384765625 240.715820312 403.5546875 260.022460938 406.953125 c 0
 274.322789113 409.470442889 289.846856666 410.835217619 306.00168848 410.835217619 c 0xb8
 337.857634244 410.835217619 372.166273074 405.528364141 404.380859375 393.287332651 c 1
 404.380859375 548.571289062 l 1
 368.3671875 588.874023438 l 1
 399.543945312 598.603515625 452.573242188 611.291992188 485.641601562 615.80859375 c 1
 485.641601562 402.552134079 l 1
 547.75 402.552734375 l 1
 547.75 366.661132812 l 1
 485.641601562 366.660532517 l 1
 485.641601562 55.294921875 l 1
 519.485351562 9.5224609375 l 1
 493.884765625 -3.103515625 455.412109375 -13.9580078125 422.109375 -19.515625 c 1
 411.402013775 15.0388238655 l 1xd8
404.380859375 318.81640625 m 1
 363.301757812 359.796875 304.518554688 370.041992188 265.317382812 370.041992188 c 0
 181.491210938 370.041992188 116.831054688 305.529296875 116.831054688 217.963867188 c 0
 116.831054688 101.329101562 201.288085938 31.0712890625 298.51171875 31.0712890625 c 0
 334.865044541 31.0712890625 373.775557402 42.4845012887 404.380859375 66.1784187925 c 1
 404.380859375 318.81640625 l 1
EndSplineSet
Validated: 1
EndChar

StartChar: a.fina
Encoding: 105 57346 105
GlifName: a.fina
Width: 530
VWidth: 800
Flags: W
HStem: -233.049 21G<54.3223 67.8657> 366.661 35.8916<-7.78516 53.7434> 370.583 42.7896<241.3 384.701> 412.688 20G<121.595 138.918>
VStem: 54.3223 81.2617<-207.302 -5.90594 37.8651 321.315 358.48 365.609> 417.4 84.1855<193.907 339.098>
LayerCount: 2
Fore
SplineSet
313.270507812 412.473632812 m 1xdc
 322.615003931 413.07143283 331.675159682 413.372608238 340.436215898 413.372608238 c 0xac
 440.53229671 413.372608238 501.5859375 374.059197815 501.5859375 288.645507812 c 0
 501.5859375 157.252929688 387.939453125 75.111328125 290.944335938 38.7548828125 c 0
 202.476457819 5.59447767553 167.672722482 -5.46273336028 135.583984375 -9.96352576906 c 1
 135.583984375 -204.01171875 l 1
 113.850585938 -215.745117188 81.4091796875 -227.291992188 54.322265625 -233.048828125 c 1
 54.322265625 366.66015625 l 1
 -7.78515625 366.661132812 l 1
 -7.78515625 402.552734375 l 1
 37.1240234375 402.552734375 l 1
 73.4658203125 415.452148438 103.475585938 424.4140625 139.713867188 432.688476562 c 1
 138.122986776 419.437157317 136.532685733 388.926474191 135.885897194 358.480424967 c 1
 223.42353666 388.68235869 286.917571081 405.914528795 313.270507812 412.473632812 c 1xdc
135.583984375 37.8650599055 m 1
 137.889543762 37.7940587628 140.208093106 37.7587478849 142.538327719 37.7587478849 c 0
 264.075549416 37.7587478849 417.400390625 133.815484102 417.400390625 272.100585938 c 0
 417.400390625 351.615234375 364.362304688 370.583007812 301.588867188 370.583007812 c 0
 240.380859375 370.583007812 159.649414062 328.9375 135.583984375 305.06640625 c 1
 135.583984375 37.8650599055 l 1
EndSplineSet
Validated: 1
EndChar

StartChar: b.init
Encoding: 106 57347 106
GlifName: b.init
Width: 493
VWidth: 800
Flags: W
HStem: -233.05 21G<357.735 371.279> -21.2555 45.2497<182.552 323.356> 166.626 106.453<229.618 314.923> 366.661 35.8922<139.834 500.986>
VStem: 54.3223 81.2607<73.0056 353.826> 219.044 106.453<177.2 262.505> 357.735 81.2617<-207.303 12.8516>
LayerCount: 2
Fore
SplineSet
325.497070312 219.852539062 m 0
 325.497070312 190.456054688 301.666992188 166.625976562 272.270507812 166.625976562 c 0
 242.875 166.625976562 219.043945312 190.456054688 219.043945312 219.852539062 c 0
 219.043945312 249.249023438 242.875 273.079101562 272.270507812 273.079101562 c 0
 301.666992188 273.079101562 325.497070312 249.249023438 325.497070312 219.852539062 c 0
357.735351562 12.8515625 m 1
 316.738661471 -2.50861238915 266.586381569 -21.2555162163 209.21651099 -21.2555162163 c 0
 113.04906307 -21.2555162163 54.322265625 35.1668749725 54.322265625 136.5859375 c 2
 54.322265625 353.826171875 l 1
 12.5947265625 398.586914062 l 1
 35.5791015625 411.520507812 86.1298828125 436.439453125 113.32421875 446.393554688 c 1
 139.834424761 402.552734375 l 1
 501.104492188 402.552734375 l 1
 501.104492188 366.66015625 l 1
 501.104492188 366.66015625 338.650592023 366.660514206 230.347929985 366.660514206 c 0
 176.196598967 366.660514206 135.58307748 366.660424717 135.583007812 366.66015625 c 6
 135.583007812 160.140625 l 6
 135.583007812 77.66796875 173.586914062 23.994140625 257.009765625 23.994140625 c 0
 290.047851562 23.994140625 325.422851562 39.115234375 357.735351562 76.125 c 1
 388.171875 84.41015625 417.788085938 91.4638671875 446.79296875 97.599609375 c 1
 444.911132812 84.427734375 438.997070312 35.3349609375 438.997070312 8.72265625 c 2
 438.997070312 -204.012695312 l 1
 417.262695312 -215.74609375 384.822265625 -227.291992188 357.735351562 -233.049804688 c 1
 357.735351562 12.8515625 l 1
EndSplineSet
Validated: 1
EndChar

StartChar: b.medi
Encoding: 107 57348 107
GlifName: b.medi
Width: 445
VWidth: 800
Flags: W
HStem: -16.3253 45.8126<166.473 283.334> 366.659 35.8916<-7.78613 53.7414 394.773 452.629> 412.692 20G<121.592 138.679> 494.231 106.453<180.594 265.899>
VStem: 54.3184 81.2607<62.0048 366.434> 170.02 106.453<504.806 590.11> 309.26 81.2607<62.8725 353.826>
LayerCount: 2
Fore
SplineSet
276.47265625 547.458007812 m 0
 276.47265625 518.061523438 252.642578125 494.231445312 223.24609375 494.231445312 c 0
 193.850585938 494.231445312 170.01953125 518.061523438 170.01953125 547.458007812 c 0
 170.01953125 576.854492188 193.850585938 600.684570312 223.24609375 600.684570312 c 0
 252.642578125 600.684570312 276.47265625 576.854492188 276.47265625 547.458007812 c 0
390.520507812 366.659179688 m 1
 390.520507812 151.108398438 l 2
 390.520507812 68.29296875 354.633789062 37.4765625 316.303710938 19.109375 c 0
 293.876030697 8.36218653845 237.030153233 -16.325276847 188.219481534 -16.325276847 c 0
 123.218028549 -16.325276847 54.318359375 17.1702429901 54.318359375 119.80859375 c 2
 54.318359375 366.66015625 l 1
 -7.7861328125 366.66015625 l 1
 -7.7861328125 402.552734375 l 1
 37.1220703125 402.555664062 l 1
 73.4638671875 415.455078125 103.473632812 424.41796875 139.7109375 432.692382812 c 1
 137.647460938 415.485351562 135.579101562 369.193359375 135.579101562 331.71875 c 2
 135.579101562 143.364257812 l 2
 135.579101562 60.890625 173.86328125 29.4873046875 227.024414062 29.4873046875 c 0
 272.977539062 29.4873046875 309.259765625 58.1640625 309.259765625 127.552734375 c 2
 309.259765625 353.826171875 l 1
 267.532226562 398.586914062 l 1
 290.516601562 411.520507812 341.069335938 436.435546875 368.26171875 446.389648438 c 1
 394.772827436 402.55078125 l 1
 452.62890625 402.55078125 l 1
 452.62890625 366.659179688 l 1
 390.520507812 366.659179688 l 1
EndSplineSet
Validated: 1
EndChar

StartChar: b.fina
Encoding: 108 57349 108
GlifName: b.fina
Width: 440
VWidth: 800
Flags: W
HStem: -15.5741 39.123<234.869 359.98> 155.396 106.453<231.361 316.666> 366.659 35.8916<-7.78711 150.201 171.999 398.061>
VStem: 28.543 81.1133<138.148 296.501> 220.787 106.453<165.971 251.275>
LayerCount: 2
Fore
SplineSet
327.240234375 208.623046875 m 0
 327.240234375 179.2265625 303.409179688 155.396484375 274.013671875 155.396484375 c 0
 244.6171875 155.396484375 220.787109375 179.2265625 220.787109375 208.623046875 c 0
 220.787109375 238.01953125 244.6171875 261.849609375 274.013671875 261.849609375 c 0
 303.409179688 261.849609375 327.240234375 238.01953125 327.240234375 208.623046875 c 0
417.818359375 408.876953125 m 1
 399.543945312 355.953125 l 1
 367.939453125 364.421875 334.192382812 372.72265625 278.333007812 372.72265625 c 0
 165.208007812 372.72265625 109.65625 322.515625 109.65625 229.2109375 c 0
 109.65625 101.841786334 210.320586146 23.5489907313 330.837531084 23.5489907313 c 0
 351.471932 23.5489907313 372.68830893 25.8441313639 394.081054688 30.5810546875 c 1
 394.081054688 11.9951171875 l 1
 309.606445312 -8.4580078125 l 2
 289.811858835 -13.2507609329 270.014421306 -15.5740568246 250.608064519 -15.5740568246 c 0
 132.309290693 -15.5740568246 28.54296875 70.7589739754 28.54296875 210.31640625 c 0
 28.54296875 287.43359375 69.9873046875 343.45703125 134.747070312 362.357421875 c 0
 139.474609375 363.737304688 143.54296875 364.875 150.201171875 366.659179688 c 1
 -7.787109375 366.659179688 l 1
 -7.787109375 402.55078125 l 1
 306.853515625 402.55078125 l 2
 330.298828125 402.55078125 401.76171875 407.66015625 417.818359375 408.876953125 c 1
EndSplineSet
Validated: 1
EndChar

StartChar: c.init
Encoding: 109 57350 109
GlifName: c.init
Width: 424
VWidth: 800
Flags: W
HStem: -233.054 21G<54.3203 67.8643> -21.0781 21G<287.442 300.986> 366.66 35.8926<139.832 287.442 368.704 430.815>
VStem: 54.3203 81.2617<-207.308 353.826> 287.442 81.2617<4.6685 366.66>
LayerCount: 2
Fore
SplineSet
135.58203125 366.66015625 m 1
 135.58203125 -204.017578125 l 1
 113.84765625 -215.750976562 81.408203125 -227.295898438 54.3203125 -233.053710938 c 1
 54.3203125 353.826171875 l 1
 12.5927734375 398.586914062 l 1
 35.578125 411.520507812 86.1298828125 436.4375 113.32421875 446.391601562 c 1
 139.831701207 402.552734375 l 1
 430.815429688 402.552734375 l 1
 430.815429688 366.66015625 l 1
 368.704101562 366.66015625 l 1
 368.704101562 7.958984375 l 1
 346.97265625 -3.7744140625 314.530273438 -15.3212890625 287.442382812 -21.078125 c 1
 287.442382812 366.66015625 l 1
 135.58203125 366.66015625 l 1
EndSplineSet
Validated: 1
EndChar

StartChar: c.medi
Encoding: 110 57351 110
GlifName: c.medi
Width: 423
VWidth: 800
Flags: W
HStem: -233.054 21G<54.3213 67.8647> -21.0781 21G<287.443 300.987> 366.661 35.8916<-7.78516 54.3213 135.583 287.443 368.705 430.816>
VStem: 54.3213 81.2617<-207.308 366.661> 287.443 81.2617<4.6685 366.661>
LayerCount: 2
Fore
SplineSet
-7.78515625 402.552734375 m 1
 430.81640625 402.552734375 l 1
 430.81640625 366.661132812 l 1
 368.705078125 366.661132812 l 1
 368.705078125 7.958984375 l 1
 346.97265625 -3.7744140625 314.530273438 -15.3212890625 287.443359375 -21.078125 c 1
 287.443359375 366.661132812 l 1
 135.583007812 366.661132812 l 1
 135.583007812 -204.017578125 l 1
 113.848632812 -215.750976562 81.408203125 -227.295898438 54.3212890625 -233.053710938 c 1
 54.3212890625 366.661132812 l 1
 -7.78515625 366.661132812 l 1
 -7.78515625 402.552734375 l 1
EndSplineSet
Validated: 1
EndChar

StartChar: c.fina
Encoding: 111 57352 111
GlifName: c.fina
Width: 424
VWidth: 800
Flags: W
HStem: -233.054 21G<54.3213 67.8647> -21.0781 21G<287.443 300.987> 366.521 35.7497<-7.78516 54.3213 135.583 286.863> 412.407 20G<354.714 371.801>
VStem: 54.3213 81.2617<-207.308 366.521> 287.443 81.2617<4.66852 366.148>
LayerCount: 2
Fore
SplineSet
372.833007812 432.407226562 m 1
 370.768554688 415.203125 368.705078125 368.907226562 368.705078125 331.430664062 c 2
 368.705078125 7.958984375 l 1
 346.970703125 -3.7744140625 314.530273438 -15.3203125 287.443359375 -21.078125 c 1
 287.443359375 366.372070312 l 1
 135.583007812 366.520758974 l 1
 135.583007812 -204.017578125 l 1
 113.848632812 -215.750976562 81.408203125 -227.295898438 54.3212890625 -233.053710938 c 1
 54.3212890625 366.600323496 l 1
 -7.78515625 366.661132812 l 1
 -7.78515625 402.552734375 l 1
 270.244140625 402.270507812 l 1
 306.5859375 415.169921875 336.595703125 424.1328125 372.833007812 432.407226562 c 1
EndSplineSet
Validated: 1
EndChar

StartChar: d.init
Encoding: 112 57353 112
GlifName: d.init
Width: 190
VWidth: 800
Flags: W
HStem: -233.055 21G<54.3203 67.8638> 366.66 35.892<135.582 197.689>
VStem: 54.3203 81.2617<-207.308 366.66 402.552 548.571>
LayerCount: 2
Fore
SplineSet
135.58203125 402.552134083 m 1
 197.689453125 402.552734375 l 1
 197.689453125 366.66015625 l 1
 135.58203125 366.66015625 l 1
 135.58203125 -204.017578125 l 1
 113.84765625 -215.750976562 81.4072265625 -227.297851562 54.3203125 -233.0546875 c 1
 54.3203125 548.571289062 l 1
 18.3076171875 588.874023438 l 1
 49.4833984375 598.603515625 102.513671875 611.291992188 135.58203125 615.80859375 c 1
 135.58203125 402.552134083 l 1
EndSplineSet
Validated: 1
EndChar

StartChar: d.medi
Encoding: 113 57354 113
GlifName: d.medi
Width: 190
VWidth: 800
Flags: W
HStem: -233.055 21G<54.3223 67.8657> 366.66 35.8916<-7.78613 54.3223 135.583 197.691>
VStem: 54.3223 81.2607<-207.308 366.66 402.552 548.571>
LayerCount: 2
Fore
SplineSet
54.322265625 402.551757812 m 1
 54.322265625 548.571289062 l 1
 18.30859375 588.874023438 l 1
 49.4853515625 598.603515625 102.514648438 611.291992188 135.583007812 615.80859375 c 1
 135.583007812 402.551757812 l 1
 197.69140625 402.551757812 l 1
 197.69140625 366.66015625 l 1
 135.583007812 366.66015625 l 1
 135.583007812 -204.017578125 l 1
 113.849609375 -215.750976562 81.4091796875 -227.297851562 54.322265625 -233.0546875 c 1
 54.322265625 366.66015625 l 1
 -7.7861328125 366.66015625 l 1
 -7.7861328125 402.551757812 l 1
 54.322265625 402.551757812 l 1
EndSplineSet
Validated: 1
EndChar

StartChar: d.fina
Encoding: 114 57355 114
GlifName: d.fina
Width: 190
VWidth: 800
Flags: W
HStem: -233.055 21G<54.3213 67.8647> 366.66 35.8926<-7.78613 54.3213>
VStem: 54.3213 81.2617<-207.308 366.66 402.552 548.571>
LayerCount: 2
Fore
SplineSet
135.583007812 615.80859375 m 1
 135.583007812 -204.017578125 l 1
 113.848632812 -215.750976562 81.408203125 -227.297851562 54.3212890625 -233.0546875 c 1
 54.3212890625 366.66015625 l 1
 -7.7861328125 366.66015625 l 1
 -7.7861328125 402.552734375 l 5
 54.3212890625 402.552134083 l 5
 54.3212890625 548.571289062 l 1
 18.30859375 588.874023438 l 1
 49.484375 598.603515625 102.514648438 611.291992188 135.583007812 615.80859375 c 1
EndSplineSet
Validated: 1
EndChar

StartChar: e.init
Encoding: 115 57356 115
GlifName: e.init
Width: 190
VWidth: 800
Flags: W
HStem: -233.054 21G<54.3203 67.8643> 366.66 35.8916<139.832 197.689>
VStem: 54.3203 81.2617<-207.308 353.826>
LayerCount: 2
Fore
SplineSet
135.58203125 366.66015625 m 5
 135.58203125 -204.017578125 l 1
 113.84765625 -215.750976562 81.408203125 -227.295898438 54.3203125 -233.053710938 c 1
 54.3203125 353.826171875 l 5
 12.59375 398.586914062 l 1
 35.578125 411.520507812 86.1298828125 436.4375 113.32421875 446.391601562 c 1
 139.832291692 402.551757812 l 1
 197.689453125 402.551757812 l 1
 197.689453125 366.66015625 l 5
 135.58203125 366.66015625 l 5
EndSplineSet
Validated: 1
EndChar

StartChar: e.medi
Encoding: 116 57357 116
GlifName: e.medi
Width: 445
VWidth: 800
Flags: W
HStem: -16.3235 45.8148<166.475 283.332> 366.66 35.8923<-7.78516 54.3213 135.582 309.263 390.524 452.63>
VStem: 54.3213 81.2607<62.0053 366.66> 309.263 81.2617<62.8753 366.661>
LayerCount: 2
Fore
SplineSet
-7.78515625 402.552734375 m 1
 452.629882812 402.552734375 l 1
 452.629882812 366.661132812 l 1
 390.524414062 366.661001084 l 1
 390.524414062 151.110351562 l 2
 390.524414062 68.294921875 354.63671875 37.48046875 316.306640625 19.1123046875 c 0
 293.862434683 8.35766683905 237.025804879 -16.3235498552 188.220050857 -16.3235498552 c 0
 123.219294101 -16.3235498552 54.3212890625 17.1710308517 54.3212890625 119.80859375 c 2
 54.3212890625 366.660287981 l 1
 -7.78515625 366.66015625 l 1
 -7.78515625 402.552734375 l 1
135.58203125 366.660460339 m 1
 135.58203125 143.364257812 l 2
 135.58203125 60.890625 173.865234375 29.4912109375 227.026367188 29.4912109375 c 0
 272.979492188 29.4912109375 309.262695312 58.166015625 309.262695312 127.5546875 c 2
 309.262695312 366.660828724 l 1
 135.58203125 366.660460339 l 1
EndSplineSet
Validated: 1
EndChar

StartChar: e.fina
Encoding: 117 57358 117
GlifName: e.fina
Width: 344
VWidth: 800
Flags: W
HStem: -233.055 21G<54.3213 67.8647> 156.611 35.8916<135.583 299.961> 366.66 35.8926<-7.78516 53.7424> 412.688 20G<121.593 138.68>
VStem: 54.3213 81.2617<-207.308 156.611 192.503 366.429>
LayerCount: 2
Fore
SplineSet
319.2109375 198.829101562 m 1
 300.932617188 145.905273438 l 1
 280.629882812 151.411132812 232.732421875 156.611328125 211.649414062 156.611328125 c 2
 135.583007812 156.611328125 l 1
 135.583007812 -204.017578125 l 1
 113.849609375 -215.750976562 81.408203125 -227.296875 54.3212890625 -233.0546875 c 1
 54.3212890625 366.66015625 l 1
 -7.78515625 366.66015625 l 1
 -7.78515625 402.552734375 l 1
 37.123046875 402.552734375 l 1
 73.46484375 415.451171875 103.474609375 424.4140625 139.711914062 432.688476562 c 1
 137.647460938 415.484375 135.583007812 369.188476562 135.583007812 331.711914062 c 2
 135.583007812 192.502929688 l 1
 212.135742188 192.502929688 l 2
 235.580078125 192.502929688 303.153320312 197.612304688 319.2109375 198.829101562 c 1
EndSplineSet
Validated: 1
EndChar

StartChar: f.init
Encoding: 118 57359 118
GlifName: f.init
Width: 675
VWidth: 800
Flags: W
HStem: -233.055 21G<54.3213 67.8647> -19.1224 40.1986<382.435 500.904> 366.66 35.8926<624.392 682.251> 371.507 39.2689<203.249 373.46> 412.689 20G<119.048 135.582>
VStem: 54.3213 81.2607<-207.308 349.226> 237.962 80.877<82.1454 232.796> 538.882 81.2617<64.3402 353.826>
LayerCount: 2
Fore
SplineSet
135.58203125 370.134366445 m 1xdf
 187.368914251 387.156447253 233.275148133 400.438454709 263.79296875 407.987304688 c 0
 278.860110159 409.872004972 293.832257473 410.77571446 308.566800832 410.77571446 c 0xdf
 368.110673108 410.77571446 423.774342346 396.017642346 466.146484375 371.6015625 c 1
 466.146484375 353.201171875 l 1
 381.341796875 313.4296875 318.838867188 238.333984375 318.838867188 154.751953125 c 0
 318.838867188 66.9462890625 391.124023438 21.076171875 447.232421875 21.076171875 c 0
 490.743164062 21.076171875 538.881835938 58.1103515625 538.881835938 131.624023438 c 2
 538.881835938 353.826171875 l 1
 497.155273438 398.586914062 l 1
 520.139648438 411.520507812 570.689453125 436.439453125 597.884765625 446.393554688 c 1
 624.391525843 402.552734375 l 1
 682.250976562 402.552734375 l 1
 682.250976562 366.661132812 l 1
 620.143554688 366.66015625 l 25xef
 620.143554688 150.538085938 l 2
 620.143554688 58.66796875 561.680664062 4.16015625 506.567382812 -5.7041015625 c 0
 494.899067796 -7.79304290679 431.528998457 -19.1224322183 403.674798244 -19.1224322183 c 0
 331.554259548 -19.1224322183 237.961914062 29.2899798291 237.961914062 136.427734375 c 0
 237.961914062 229.876953125 289.622070312 301.572265625 380.119140625 349.095703125 c 1
 352.53125 364.140625 316.547851562 371.506835938 272.052734375 371.506835938 c 0
 234.142578125 371.506835938 177.216796875 360.571289062 135.58203125 340.489257812 c 1
 135.58203125 -204.017578125 l 1
 113.848632812 -215.750976562 81.408203125 -227.296875 54.3212890625 -233.0546875 c 1
 54.3212890625 365.453125 l 1
 18.3076171875 405.754882812 l 1
 49.484375 415.485351562 102.513671875 428.172851562 135.58203125 432.689453125 c 1
 135.58203125 370.134366445 l 1xdf
EndSplineSet
Validated: 1
EndChar

StartChar: f.medi
Encoding: 119 57360 119
GlifName: f.medi
Width: 190
VWidth: 800
Flags: W
HStem: -233.055 21G<54.3223 67.8657> 366.661 35.8916<-7.78516 54.3223 135.583 197.691>
VStem: 54.3223 81.2607<-207.308 366.661>
LayerCount: 2
Fore
SplineSet
-7.78515625 402.552734375 m 1
 197.69140625 402.552734375 l 1
 197.69140625 366.661132812 l 1
 135.583007812 366.661132812 l 1
 135.583007812 -204.017578125 l 1
 113.849609375 -215.750976562 81.4091796875 -227.296875 54.322265625 -233.0546875 c 1
 54.322265625 366.661132812 l 1
 -7.78515625 366.661132812 l 1
 -7.78515625 402.552734375 l 1
EndSplineSet
Validated: 1
EndChar

StartChar: f.fina
Encoding: 120 57361 120
GlifName: f.fina
Width: 472
VWidth: 800
Flags: W
HStem: -233.056 21G<54.3213 67.8647> -14.042 21G<297.635 354.419> 58.499 19.4639<198.717 249.813> 366.66 35.8926<-7.78418 335.823> 412.688 20G<403.674 420.761>
VStem: 54.3213 81.2617<-207.308 237.137> 336.402 81.2617<73.1877 366.429>
LayerCount: 2
Fore
SplineSet
198.716796875 77.962890625 m 1
 198.857721526 77.9566566369 200.536902115 77.858061655 203.389111328 77.6905909747 c 0
 223.066605745 76.5352047001 298.576391132 72.1015625 309.98828125 72.1015625 c 0
 329.4296875 72.1015625 336.40234375 77.78515625 336.40234375 94.0859375 c 2
 336.40234375 366.66015625 l 1
 -7.7841796875 366.66015625 l 1
 -7.7841796875 402.552734375 l 1
 319.204101562 402.552734375 l 1
 355.545898438 415.451171875 385.5546875 424.4140625 421.79296875 432.688476562 c 1
 419.728515625 415.484375 417.6640625 369.188476562 417.6640625 331.711914062 c 2
 417.6640625 78.6171875 l 2
 417.6640625 19.5859375 403.76953125 -3.4501953125 305.068359375 -14.0419921875 c 1
 290.201171875 39.8447265625 269.815429688 49.8837890625 198.716796875 58.4990234375 c 1
 198.716796875 77.962890625 l 1
135.583007812 304.373046875 m 1
 135.583007812 -204.017578125 l 1
 113.848632812 -215.750976562 81.408203125 -227.297851562 54.3212890625 -233.055664062 c 1
 54.3212890625 237.13671875 l 1
 18.30859375 277.438476562 l 1
 49.484375 287.16796875 102.514648438 299.856445312 135.583007812 304.373046875 c 1
EndSplineSet
Validated: 1
EndChar

StartChar: g.init
Encoding: 121 57362 121
GlifName: g.init
Width: 423
VWidth: 800
Flags: W
HStem: -233.054 21G<54.3203 67.8643> -21.0781 21G<287.442 300.986> 366.661 35.8916<139.831 287.442 368.704 430.815> 494.231 106.453<168.858 254.163>
VStem: 54.3203 81.2617<-207.308 353.826> 158.283 106.454<504.806 590.11> 287.442 81.2617<4.6685 366.661>
LayerCount: 2
Fore
SplineSet
264.737304688 547.458007812 m 0
 264.737304688 518.061523438 240.90625 494.231445312 211.509765625 494.231445312 c 0
 182.114257812 494.231445312 158.283203125 518.061523438 158.283203125 547.458007812 c 0
 158.283203125 576.854492188 182.114257812 600.684570312 211.509765625 600.684570312 c 0
 240.90625 600.684570312 264.737304688 576.854492188 264.737304688 547.458007812 c 0
135.58203125 366.661132812 m 1
 135.58203125 -204.017578125 l 1
 113.84765625 -215.750976562 81.408203125 -227.295898438 54.3203125 -233.053710938 c 1
 54.3203125 353.826171875 l 1
 12.5927734375 398.586914062 l 1
 35.5771484375 411.520507812 86.12890625 436.4375 113.32421875 446.391601562 c 1
 139.830839763 402.552734375 l 1
 430.815429688 402.552734375 l 1
 430.815429688 366.661132812 l 1
 368.704101562 366.661132812 l 1
 368.704101562 7.958984375 l 1
 346.971679688 -3.7744140625 314.529296875 -15.3212890625 287.442382812 -21.078125 c 1
 287.442382812 366.661132812 l 1
 135.58203125 366.661132812 l 1
EndSplineSet
Validated: 1
EndChar

StartChar: g.medi
Encoding: 122 57363 122
GlifName: g.medi
Width: 424
VWidth: 800
Flags: W
HStem: -233.054 21G<54.3203 67.8643> -21.0781 21G<287.443 300.987> 366.661 35.8916<-7.78516 54.3203 135.583 287.443 368.704 430.816> 494.231 106.453<168.858 254.163>
VStem: 54.3203 81.2627<-207.308 366.661> 158.284 106.453<504.806 590.11> 287.443 81.2607<4.6685 366.661>
LayerCount: 2
Fore
SplineSet
264.737304688 547.458007812 m 0
 264.737304688 518.061523438 240.90625 494.231445312 211.510742188 494.231445312 c 0
 182.114257812 494.231445312 158.284179688 518.061523438 158.284179688 547.458007812 c 0
 158.284179688 576.854492188 182.114257812 600.684570312 211.510742188 600.684570312 c 0
 240.90625 600.684570312 264.737304688 576.854492188 264.737304688 547.458007812 c 0
-7.78515625 402.552734375 m 1
 430.81640625 402.552734375 l 1
 430.81640625 366.661132812 l 1
 368.704101562 366.661132812 l 1
 368.704101562 7.958984375 l 1
 346.97265625 -3.7744140625 314.530273438 -15.3212890625 287.443359375 -21.078125 c 1
 287.443359375 366.661132812 l 1
 135.583007812 366.661132812 l 1
 135.583007812 -204.017578125 l 1
 113.84765625 -215.750976562 81.408203125 -227.295898438 54.3203125 -233.053710938 c 1
 54.3203125 366.661132812 l 1
 -7.78515625 366.661132812 l 1
 -7.78515625 402.552734375 l 1
EndSplineSet
Validated: 1
EndChar

StartChar: g.fina
Encoding: 123 57364 123
GlifName: g.fina
Width: 423
VWidth: 800
Flags: W
HStem: -233.054 21G<54.3203 67.8643> -21.0781 21G<287.442 300.986> 366.521 35.7497<-7.78613 54.3203 135.582 286.863> 412.407 20G<354.713 371.8> 494.231 106.453<168.858 254.163>
VStem: 54.3203 81.2617<-207.308 366.521> 158.283 106.454<504.806 590.11> 287.442 81.2617<4.66852 366.148>
LayerCount: 2
Fore
SplineSet
264.737304688 547.458007812 m 0
 264.737304688 518.061523438 240.90625 494.231445312 211.510742188 494.231445312 c 0
 182.114257812 494.231445312 158.283203125 518.061523438 158.283203125 547.458007812 c 0
 158.283203125 576.854492188 182.114257812 600.684570312 211.510742188 600.684570312 c 0
 240.90625 600.684570312 264.737304688 576.854492188 264.737304688 547.458007812 c 0
372.83203125 432.407226562 m 1
 370.768554688 415.203125 368.704101562 368.907226562 368.704101562 331.430664062 c 2
 368.704101562 7.958984375 l 1
 346.969726562 -3.7744140625 314.529296875 -15.3203125 287.442382812 -21.078125 c 1
 287.442382812 366.372070312 l 1
 135.58203125 366.520758974 l 1
 135.58203125 -204.017578125 l 1
 113.84765625 -215.750976562 81.408203125 -227.295898438 54.3203125 -233.053710938 c 1
 54.3203125 366.600323496 l 1
 -7.7861328125 366.661132812 l 1
 -7.7861328125 402.552734375 l 1
 270.243164062 402.270507812 l 1
 306.584960938 415.169921875 336.594726562 424.1328125 372.83203125 432.407226562 c 1
EndSplineSet
Validated: 1
EndChar

StartChar: h.init
Encoding: 124 57365 124
GlifName: h.init
Width: 590
VWidth: 800
Flags: W
HStem: -16.3253 45.8165<311.189 428.045> 366.66 35.8926<147.211 199.034 280.295 453.976 535.236 597.343>
VStem: 199.034 81.2607<62.0048 366.66> 453.976 81.2607<62.8743 366.66>
LayerCount: 2
Fore
SplineSet
92.0869140625 468.166015625 m 1
 147.2109375 402.552734375 l 1
 597.342773438 402.551757812 l 1
 597.342773438 366.66015625 l 1
 535.236328125 366.66015625 l 1
 535.236328125 151.107421875 l 2
 535.236328125 68.29296875 499.349609375 37.48046875 461.01953125 19.11328125 c 0
 438.571766555 8.3554882482 381.742454915 -16.325276847 332.935301847 -16.325276847 c 0
 267.933848862 -16.325276847 199.034179688 17.1702429901 199.034179688 119.80859375 c 2
 199.034179688 366.66015625 l 1
 -6.302734375 366.66015625 l 2
 -20.07421875 366.66015625 -22.369140625 370.600585938 -13.12890625 379.229492188 c 0
 13.34765625 403.93359375 60.13671875 443.180664062 92.0869140625 468.166015625 c 1
453.975585938 366.66015625 m 1
 280.294921875 366.66015625 l 1
 280.294921875 143.364257812 l 2
 280.294921875 60.890625 318.579101562 29.4912109375 371.740234375 29.4912109375 c 0
 417.693359375 29.4912109375 453.975585938 58.1640625 453.975585938 127.552734375 c 2
 453.975585938 366.66015625 l 1
EndSplineSet
Validated: 1
EndChar

StartChar: h.medi
Encoding: 125 57366 125
GlifName: h.medi
Width: 190
VWidth: 800
Flags: W
HStem: -21.0791 21G<54.3213 67.8652> 366.659 35.8916<-7.78516 54.3213 135.584 197.691>
VStem: 54.3213 81.2627<4.6668 366.659 402.551 548.57>
LayerCount: 2
Fore
SplineSet
135.583984375 366.659474864 m 5
 135.583984375 7.95703125 l 1
 113.852539062 -3.775390625 81.4091796875 -15.322265625 54.3212890625 -21.0791015625 c 1
 54.3212890625 366.659861078 l 1
 -7.78515625 366.66015625 l 1
 -7.78515625 402.551757812 l 1
 54.3212890625 402.551462641 l 1
 54.3212890625 548.5703125 l 1
 18.310546875 588.872070312 l 1
 49.48828125 598.603515625 102.515625 611.291015625 135.583984375 615.807617188 c 1
 135.583984375 402.551076426 l 1
 197.69140625 402.55078125 l 1
 197.69140625 366.659179688 l 5
 135.583984375 366.659474864 l 5
EndSplineSet
Validated: 1
EndChar

StartChar: h.fina
Encoding: 126 57367 126
GlifName: h.fina
Width: 190
VWidth: 800
Flags: W
HStem: -21.0791 21G<54.3213 67.8652> 366.66 35.8916<-7.78516 54.3213>
VStem: 54.3213 81.2627<4.6668 366.66 402.551 548.57>
LayerCount: 2
Fore
SplineSet
135.583984375 615.807617188 m 1
 135.583984375 7.95703125 l 1
 113.852539062 -3.775390625 81.4091796875 -15.322265625 54.3212890625 -21.0791015625 c 1
 54.3212890625 366.659618313 l 1
 -7.78515625 366.66015625 l 1
 -7.78515625 402.551757812 l 5
 54.3212890625 402.551219875 l 5
 54.3212890625 548.5703125 l 1
 18.310546875 588.872070312 l 1
 49.48828125 598.603515625 102.515625 611.291015625 135.583984375 615.807617188 c 1
EndSplineSet
Validated: 1
EndChar

StartChar: i.init
Encoding: 127 57368 127
GlifName: i.init
Width: 445
VWidth: 800
Flags: W
HStem: -16.3253 45.8165<166.479 283.328> 366.659 35.8925<139.837 309.266 390.527 452.634>
VStem: 54.3242 81.2607<62.0048 353.826> 309.266 81.2617<62.8744 366.66>
LayerCount: 2
Fore
SplineSet
390.52734375 366.659987629 m 5
 390.52734375 151.108398438 l 2
 390.52734375 68.29296875 354.639648438 37.48046875 316.310546875 19.11328125 c 0
 293.83604586 8.34412684711 237.02124099 -16.325276847 188.225340909 -16.325276847 c 0
 123.223887924 -16.325276847 54.32421875 17.1702429901 54.32421875 119.80859375 c 2
 54.32421875 353.826171875 l 1
 12.595703125 398.586914062 l 1
 35.5810546875 411.520507812 86.130859375 436.439453125 113.326171875 446.393554688 c 1
 139.836968406 402.551757812 l 1
 452.633789062 402.551757812 l 1
 452.633789062 366.66015625 l 5
 390.52734375 366.659987629 l 5
309.265625 366.659767 m 1
 135.584960938 366.65929545 l 5
 135.584960938 143.364257812 l 2
 135.584960938 60.890625 173.870117188 29.4912109375 227.03125 29.4912109375 c 0
 272.984375 29.4912109375 309.265625 58.1640625 309.265625 127.552734375 c 2
 309.265625 366.659767 l 1
EndSplineSet
Validated: 1
EndChar

StartChar: i.medi
Encoding: 128 57369 128
GlifName: i.medi
Width: 397
VWidth: 800
Flags: W
HStem: 366.66 76.7714<174.874 227.827> 366.66 35.8926<-7.78809 172.933 229.739 405.241> 542.056 35.8926<199.869 348.996>
LayerCount: 2
Fore
SplineSet
144.741210938 643.561523438 m 1x20
 199.869140625 577.948242188 l 1
 261.16796875 577.948242188 l 2
 284.611328125 577.948242188 352.189453125 583.057617188 368.24609375 584.274414062 c 1
 349.967773438 531.350585938 l 1
 329.666015625 536.85546875 281.767578125 542.055664062 260.684570312 542.055664062 c 2
 46.3525390625 542.055664062 l 2
 32.5830078125 542.055664062 30.283203125 545.99609375 39.5283203125 554.625 c 0
 66 579.329101562 112.794921875 618.576171875 144.741210938 643.561523438 c 1x20
154.393554688 402.552734375 m 1x60
 159.299360331 407.348390017 196.368868925 443.431518837 201.105773823 443.431518837 c 0xa0
 205.814515109 443.431518837 241.766641161 408.470934647 247.823242188 402.552734375 c 1
 405.241210938 402.552734375 l 1
 405.241210938 366.66015625 l 1
 -7.7880859375 366.66015625 l 1
 -7.7880859375 402.552734375 l 1
 154.393554688 402.552734375 l 1x60
EndSplineSet
Validated: 1
EndChar

StartChar: i.fina
Encoding: 129 57370 129
GlifName: i.fina
Width: 320
VWidth: 800
Flags: W
HStem: -153.297 19.4648<7.78711 79.509> -12.1865 21G<59.9336 69.876> 366.661 35.8916<-7.78711 183.821> 412.692 20G<251.671 268.758>
VStem: 59.9336 59.6553<5.91406 244.021> 184.4 81.2617<-138.608 366.433>
LayerCount: 2
Fore
SplineSet
119.588867188 293.37890625 m 1
 119.588867188 9.1298828125 l 1
 103.634765625 0.515625 79.818359375 -7.9599609375 59.93359375 -12.1865234375 c 1
 59.93359375 244.020507812 l 1
 33.498046875 273.606445312 l 1
 56.3857421875 280.749023438 95.3125 290.063476562 119.588867188 293.37890625 c 1
7.787109375 -133.83203125 m 1
 75.5718365061 -136.832119083 140.241472616 -139.694335938 157.985351562 -139.694335938 c 0
 177.426757812 -139.694335938 184.400390625 -134.008789062 184.400390625 -117.70703125 c 2
 184.400390625 366.6640625 l 1
 -7.787109375 366.661132812 l 1
 -7.787109375 402.552734375 l 1
 167.201171875 402.556640625 l 1
 203.54296875 415.455078125 233.552734375 424.41796875 269.790039062 432.692382812 c 1
 267.725585938 415.48828125 265.662109375 369.192382812 265.662109375 331.715820312 c 2
 265.662109375 -133.178710938 l 2
 265.662109375 -192.208984375 251.772460938 -215.24609375 153.071289062 -225.837890625 c 1
 138.045413881 -171.380565722 137.388907126 -169.001229995 7.787109375 -153.296875 c 1
 7.787109375 -133.83203125 l 1
EndSplineSet
Validated: 1
EndChar

StartChar: j.fina
Encoding: 130 57373 130
GlifName: j.fina
Width: 493
VWidth: 800
Flags: W
HStem: -21.2547 45.2498<182.548 322.986> 366.664 35.8889<-7.78613 54.3184 135.58 357.152> 412.696 20G<425.003 442.09>
VStem: 54.3184 81.2617<73.0056 366.662> 357.735 81.2571<55.2939 366.437>
LayerCount: 2
Fore
SplineSet
364.631203566 15.4388545741 m 1
 314.116717982 -3.78473142498 265.137802844 -21.2546590981 209.212347386 -21.2546590981 c 0
 113.044855548 -21.2546590981 54.318359375 35.1669306683 54.318359375 136.584960938 c 2
 54.318359375 366.662294295 l 5
 -7.7861328125 366.661132812 l 5
 -7.7861328125 402.552734375 l 1
 340.532226562 402.560546875 l 1
 376.874023438 415.458984375 406.883789062 424.421875 443.122070312 432.696289062 c 1
 441.057617188 415.4921875 438.9921875 369.196289062 438.9921875 331.719726562 c 2
 438.9921875 55.2939453125 l 1
 472.8359375 9.521484375 l 1
 447.235351562 -3.103515625 408.76171875 -13.9580078125 375.458984375 -19.515625 c 1
 364.631203566 15.4388545741 l 1
357.735054973 62.677681305 m 1
 357.731445312 366.66796875 l 1
 135.580078125 366.663814058 l 5
 135.580078125 160.140625 l 2
 135.580078125 77.6669921875 173.583984375 23.9951171875 257.006835938 23.9951171875 c 0
 290.048105924 23.9951171875 315.198505566 27.2694617253 357.735054973 62.677681305 c 1
EndSplineSet
Validated: 1
EndChar

StartChar: k.init
Encoding: 131 57374 131
GlifName: k.init
Width: 566
VWidth: 800
Flags: W
HStem: -152.569 35.8926<100.098 249.221> -20.254 46.4679<145.785 315.132> 366.661 35.8916<517.142 573.752> 376.422 33.0353<139.15 184.961>
VStem: 247.977 82.0566<173.236 325.092> 430.382 81.2607<4.6685 52.9886 102.715 355.891>
LayerCount: 2
Fore
SplineSet
90.6455078125 104.125976562 m 1xec
 105.563669209 103.965820312 105.563669209 103.965820312 112.516601562 103.965820312 c 0
 192.768554688 103.965820312 247.9765625 166.137695312 247.9765625 241.98046875 c 0
 247.9765625 327.865423638 204.269403852 376.422452274 106.954343474 376.422452274 c 0
 106.414571515 376.422452274 105.873150295 376.420958405 105.330078125 376.41796875 c 1
 105.330078125 393.818359375 l 1
 166.551757812 409.435546875 l 2
 167.856223931 409.450329028 169.152992581 409.457720794 170.442059834 409.457720794 c 0xdc
 276.114515647 409.457720794 330.033203125 359.784684096 330.033203125 259.677734375 c 0
 330.033203125 176.412109375 277.87109375 114.467773438 208.546875 93.2890625 c 0
 207.606964096 93.0019530364 137.921171935 72.7942955926 113.252545571 69.2550388581 c 1
 142.916551442 41.984369113 193.269613026 26.2138671875 251.369140625 26.2138671875 c 0
 328.839469333 26.2138671875 400.857791471 69.9810702001 430.381835938 138.53980789 c 1
 430.381835938 355.890625 l 1
 388.654296875 400.651367188 l 1
 411.638671875 413.584960938 462.188476562 438.50390625 489.383789062 448.458007812 c 1
 517.14235396 402.552734375 l 1
 573.751953125 402.552734375 l 1
 573.751953125 366.661132812 l 1
 511.642578125 366.661132812 l 1
 511.642578125 7.958984375 l 1
 489.908203125 -3.7744140625 457.467773438 -15.3212890625 430.381835938 -21.0791015625 c 1
 430.381835938 52.9886082463 l 1
 379.14422968 14.4900089758 247.217613177 -18.8614231191 245.283203125 -19.31640625 c 0
 238.308431175 -19.9464921961 231.100452998 -20.2540024439 223.730339712 -20.2540024439 c 0
 140.448727915 -20.2540024439 36.4644164486 19.0113508878 14.3232421875 75.8046875 c 1
 14.3232421875 85.044921875 l 1
 90.6455078125 104.125976562 l 1xec
304.349609375 -218.182617188 m 1
 249.220703125 -152.569335938 l 1
 187.922851562 -152.569335938 l 2
 164.478515625 -152.569335938 96.9052734375 -157.677734375 80.84765625 -158.89453125 c 1
 99.1259765625 -105.971679688 l 1
 119.427734375 -111.477539062 167.326171875 -116.676757812 188.409179688 -116.676757812 c 2
 402.737304688 -116.676757812 l 2
 416.506835938 -116.676757812 418.806640625 -120.6171875 409.561523438 -129.24609375 c 0
 383.090820312 -153.950195312 336.294921875 -193.197265625 304.349609375 -218.182617188 c 1
EndSplineSet
Validated: 1
EndChar

StartChar: k.medi
Encoding: 132 57375 132
GlifName: k.medi
Width: 310
VWidth: 800
Flags: W
HStem: -152.568 35.8916<27.0556 130.923> -21.252 21G<114.462 128.005> 366.661 35.8916<-7.78613 114.462 195.723 317.97>
VStem: 114.462 81.2607<4.49565 366.661>
LayerCount: 2
Fore
SplineSet
186.051757812 -218.181640625 m 1
 130.922851562 -152.568359375 l 1
 114.879882812 -152.568359375 l 2
 91.4365234375 -152.568359375 23.86328125 -157.677734375 7.8046875 -158.89453125 c 1
 26.083984375 -105.970703125 l 1
 46.384765625 -111.4765625 94.283203125 -116.676757812 115.366210938 -116.676757812 c 2
 284.439453125 -116.676757812 l 2
 298.208984375 -116.676757812 300.508789062 -120.6171875 291.263671875 -129.24609375 c 0
 264.79296875 -153.950195312 217.997070312 -193.197265625 186.051757812 -218.181640625 c 1
-7.7861328125 402.552734375 m 1
 317.969726562 402.552734375 l 1
 317.969726562 366.661132812 l 1
 195.72265625 366.661132812 l 1
 195.72265625 7.7861328125 l 1
 173.98828125 -3.947265625 141.547851562 -15.494140625 114.461914062 -21.251953125 c 1
 114.461914062 366.661132812 l 1
 -7.7861328125 366.661132812 l 1
 -7.7861328125 402.552734375 l 1
EndSplineSet
Validated: 1
EndChar

StartChar: k.fina
Encoding: 133 57376 133
GlifName: k.fina
Width: 472
VWidth: 800
Flags: W
HStem: -233.056 21G<54.3203 67.8638> -14.041 21G<297.634 354.418> 58.499 19.4648<198.716 249.811> 366.66 35.8926<-7.78613 335.822> 412.688 20G<403.672 420.759> 486.923 35.8926<201.642 350.769>
VStem: 54.3203 81.2607<-207.308 237.137> 336.401 81.2617<73.1877 366.429>
LayerCount: 2
Fore
SplineSet
198.715820312 77.9638671875 m 1
 198.856644486 77.9576343013 200.533372915 77.8591555573 203.381618027 77.6918705061 c 0
 223.047606151 76.5368344397 298.56386736 72.1015625 309.986328125 72.1015625 c 0
 329.428710938 72.1015625 336.401367188 77.78515625 336.401367188 94.0869140625 c 2
 336.401367188 366.66015625 l 1
 -7.7861328125 366.66015625 l 1
 -7.7861328125 402.552734375 l 1
 319.202148438 402.552734375 l 1
 355.543945312 415.452148438 385.553710938 424.4140625 421.791015625 432.688476562 c 1
 419.727539062 415.484375 417.663085938 369.188476562 417.663085938 331.711914062 c 2
 417.663085938 78.6171875 l 2
 417.663085938 19.5859375 403.768554688 -3.4501953125 305.067382812 -14.041015625 c 1
 290.200195312 39.8447265625 269.813476562 49.8837890625 198.715820312 58.4990234375 c 1
 198.715820312 77.9638671875 l 1
135.581054688 304.373046875 m 1
 135.581054688 -204.017578125 l 1
 113.84765625 -215.750976562 81.4072265625 -227.297851562 54.3203125 -233.055664062 c 1
 54.3203125 237.13671875 l 1
 18.306640625 277.438476562 l 1
 49.4833984375 287.16796875 102.512695312 299.856445312 135.581054688 304.373046875 c 1
146.512695312 588.428710938 m 1
 201.641601562 522.815429688 l 1
 262.943359375 522.815429688 l 2
 286.38671875 522.815429688 353.95703125 527.924804688 370.014648438 529.141601562 c 1
 351.740234375 476.217773438 l 1
 331.4375 481.72265625 283.5390625 486.922851562 262.45703125 486.922851562 c 2
 48.125 486.922851562 l 2
 34.35546875 486.922851562 32.0556640625 490.86328125 41.30078125 499.4921875 c 0
 67.7724609375 524.196289062 114.56640625 563.443359375 146.512695312 588.428710938 c 1
EndSplineSet
Validated: 1
EndChar

StartChar: l.init
Encoding: 134 57377 134
GlifName: l.init
Width: 566
VWidth: 800
Flags: W
HStem: -20.254 46.4679<145.785 315.132> 366.661 35.8916<517.142 573.752> 376.422 33.0353<139.15 184.961>
VStem: 247.977 82.0566<173.236 325.092> 430.382 81.2607<4.95368 52.9881 102.715 355.891>
LayerCount: 2
Fore
SplineSet
266.266601562 -108.51953125 m 5x98
 265.630479843 -110.001667928 202.479889844 -253.791992188 196.197265625 -253.791992188 c 4
 189.916194643 -253.791992188 126.765026296 -110.00166403 126.12890625 -108.51953125 c 5
 138.3359375 -108.51953125 l 5
 196.197265625 -137.556640625 l 5
 254.059570312 -108.51953125 l 5
 266.266601562 -108.51953125 l 5x98
90.646484375 104.125976562 m 1
 105.562019827 103.965820312 105.562019827 103.965820312 112.516601562 103.965820312 c 0
 192.768554688 103.965820312 247.9765625 166.137695312 247.9765625 241.98046875 c 0
 247.9765625 327.865423638 204.270369671 376.422452274 106.955319947 376.422452274 c 0
 106.415548048 376.422452274 105.874126858 376.420958405 105.331054688 376.41796875 c 1
 105.331054688 393.818359375 l 1
 166.551757812 409.435546875 l 2
 167.856223931 409.450329028 169.152992581 409.457720794 170.442059834 409.457720794 c 0xb8
 276.114515647 409.457720794 330.033203125 359.784684096 330.033203125 259.677734375 c 0
 330.033203125 176.412109375 277.87109375 114.467773438 208.546875 93.2890625 c 0
 207.606969869 93.0019359866 137.922535808 72.7942850806 113.252618084 69.2549721955 c 1
 142.9166335 41.9843434126 193.269660367 26.2138671875 251.369140625 26.2138671875 c 0
 328.839469333 26.2138671875 400.857791471 69.9810702001 430.381835938 138.53980789 c 1
 430.381835938 355.890625 l 1
 388.654296875 400.651367188 l 1
 411.638671875 413.584960938 462.189453125 438.50390625 489.383789062 448.458007812 c 1
 517.14235396 402.552734375 l 1
 573.751953125 402.552734375 l 1
 573.751953125 366.661132812 l 1
 511.642578125 366.661132812 l 1xd8
 511.642578125 8.244140625 l 1
 489.908203125 -3.4892578125 457.46875 -15.03515625 430.381835938 -20.79296875 c 1
 430.381835938 52.9881329909 l 1
 379.144336128 14.4900039225 247.218579202 -18.8614255976 245.284179688 -19.31640625 c 0
 238.309328342 -19.9464921961 231.101277223 -20.2540024439 223.731096927 -20.2540024439 c 0
 140.448727915 -20.2540024439 36.4644164486 19.0113508878 14.3232421875 75.8046875 c 1
 14.3232421875 85.044921875 l 1
 90.646484375 104.125976562 l 1
EndSplineSet
Validated: 1
EndChar

StartChar: l.medi
Encoding: 135 57378 135
GlifName: l.medi
Width: 190
VWidth: 800
Flags: W
HStem: -21.25 21G<54.3232 67.8667> 366.661 35.8916<-7.78613 54.3232 135.584 197.691>
VStem: 54.3232 81.2607<4.49688 366.661>
LayerCount: 2
Fore
SplineSet
165.020507812 -108.51953125 m 1
 164.384386093 -110.001667928 101.234608012 -253.791992188 94.951171875 -253.791992188 c 0
 88.6701008927 -253.791992188 25.5189325457 -110.00166403 24.8828125 -108.51953125 c 1
 37.08984375 -108.51953125 l 1
 94.951171875 -137.556640625 l 1
 152.813476562 -108.51953125 l 1
 165.020507812 -108.51953125 l 1
-7.7861328125 402.552734375 m 1
 197.69140625 402.552734375 l 1
 197.69140625 366.661132812 l 1
 135.583984375 366.661132812 l 1
 135.583984375 7.787109375 l 1
 113.850585938 -3.9453125 81.41015625 -15.4921875 54.3232421875 -21.25 c 1
 54.3232421875 366.661132812 l 1
 -7.7861328125 366.661132812 l 1
 -7.7861328125 402.552734375 l 1
EndSplineSet
Validated: 1
EndChar

StartChar: l.fina
Encoding: 136 57379 136
GlifName: l.fina
Width: 472
VWidth: 800
Flags: W
HStem: -233.055 21G<54.3213 67.8647> -14.041 21G<297.635 354.418> 58.499 19.4648<198.716 249.812> 366.661 35.8916<-7.78516 335.822> 412.688 20G<403.673 420.76>
VStem: 54.3213 81.2607<-207.308 237.137> 336.402 81.2617<73.1878 366.429>
LayerCount: 2
Fore
SplineSet
198.715820312 77.9638671875 m 1
 198.856650581 77.9576341732 200.533516746 77.8591489164 203.381985695 77.691853397 c 0
 223.04874284 76.5367906568 298.565467607 72.1015625 309.987304688 72.1015625 c 0
 329.428710938 72.1015625 336.40234375 77.78515625 336.40234375 94.0869140625 c 2
 336.40234375 366.661132812 l 1
 -7.78515625 366.661132812 l 1
 -7.78515625 402.552734375 l 1
 319.203125 402.552734375 l 1
 355.544921875 415.452148438 385.5546875 424.4140625 421.791992188 432.688476562 c 1
 419.727539062 415.484375 417.6640625 369.188476562 417.6640625 331.711914062 c 2
 417.6640625 78.6171875 l 2
 417.6640625 19.5869140625 403.768554688 -3.4501953125 305.068359375 -14.041015625 c 1
 290.201171875 39.8447265625 269.814453125 49.8837890625 198.715820312 58.4990234375 c 1
 198.715820312 77.9638671875 l 1
135.58203125 304.373046875 m 1
 135.58203125 -204.017578125 l 1
 113.848632812 -215.750976562 81.408203125 -227.297851562 54.3212890625 -233.0546875 c 1
 54.3212890625 237.13671875 l 1
 18.3076171875 277.438476562 l 1
 49.484375 287.168945312 102.513671875 299.856445312 135.58203125 304.373046875 c 1
135.422851562 490.087890625 m 1
 136.058971608 491.570023405 199.210139954 635.360351562 205.491210938 635.360351562 c 0
 211.774647076 635.360351562 274.924425156 491.570027303 275.560546875 490.087890625 c 1
 263.353515625 490.087890625 l 1
 205.491210938 519.125 l 1
 147.629882812 490.087890625 l 1
 135.422851562 490.087890625 l 1
EndSplineSet
Validated: 1
EndChar

StartChar: m.init
Encoding: 137 57380 137
GlifName: m.init
Width: 566
VWidth: 800
Flags: W
HStem: -233.051 21G<430.382 443.925> -20.254 46.4679<145.785 315.132> 366.66 35.8916<517.142 573.752> 376.422 33.0353<139.151 184.962> 494.23 106.453<240.1 325.403>
VStem: 229.525 106.452<504.805 590.109> 247.977 82.0576<173.235 325.092> 430.382 81.2607<-207.303 52.9877 102.713 355.891>
LayerCount: 2
Fore
SplineSet
335.977539062 547.45703125 m 0xcd
 335.977539062 518.060546875 312.147460938 494.23046875 282.751953125 494.23046875 c 0
 253.35546875 494.23046875 229.525390625 518.060546875 229.525390625 547.45703125 c 0
 229.525390625 576.853515625 253.35546875 600.68359375 282.751953125 600.68359375 c 0
 312.147460938 600.68359375 335.977539062 576.853515625 335.977539062 547.45703125 c 0xcd
90.646484375 104.125976562 m 1
 105.321446659 103.965820312 105.321446659 103.965820312 112.516601562 103.965820312 c 0
 192.768554688 103.965820312 247.9765625 166.137695312 247.9765625 241.979492188 c 0
 247.9765625 327.865418277 204.270369644 376.422452274 106.955319859 376.422452274 c 0
 106.415547988 376.422452274 105.874126828 376.420958405 105.331054688 376.41796875 c 1
 105.331054688 393.818359375 l 1
 166.552734375 409.435546875 l 2
 167.857188724 409.450329028 169.153945889 409.457720794 170.443001935 409.457720794 c 0xdb
 276.114539043 409.457720794 330.034179688 359.784684096 330.034179688 259.677734375 c 0
 330.034179688 176.411132812 277.87109375 114.466796875 208.547851562 93.2890625 c 0
 207.607930867 93.0019500457 137.927474765 72.7950665124 113.25259483 69.2545294511 c 1
 142.91671523 41.9839287601 193.269380708 26.2138671875 251.369140625 26.2138671875 c 0
 328.838633283 26.2138671875 400.856237046 69.9801255451 430.381835938 138.536632394 c 1
 430.381835938 355.890625 l 1
 388.654296875 400.651367188 l 1
 411.638671875 413.584960938 462.189453125 438.50390625 489.384765625 448.458007812 c 1
 517.142473586 402.551757812 l 1
 573.751953125 402.551757812 l 1
 573.751953125 366.66015625 l 1
 511.642578125 366.66015625 l 1xeb
 511.642578125 -204.012695312 l 1
 489.909179688 -215.74609375 457.46875 -227.29296875 430.381835938 -233.05078125 c 1
 430.381835938 52.9877450291 l 1
 379.144373865 14.4902330105 247.218577828 -18.8614259208 245.284179688 -19.31640625 c 0
 238.309193833 -19.9465043472 231.101005665 -20.2540207596 223.730688843 -20.2540207596 c 0
 140.448525327 -20.2540207596 36.4653552241 19.0104712512 14.32421875 75.8037109375 c 1
 14.32421875 85.044921875 l 1
 90.646484375 104.125976562 l 1
EndSplineSet
Validated: 1
EndChar

StartChar: m.medi
Encoding: 138 57381 138
GlifName: m.medi
Width: 190
VWidth: 800
Flags: W
HStem: -218.401 106.453<57.1653 142.47> -21.25 21G<54.3232 67.8667> 366.661 35.8916<-7.78613 54.3232 135.585 197.691>
VStem: 46.5908 106.453<-207.827 -122.522> 54.3232 81.2617<4.49688 366.661>
LayerCount: 2
Fore
SplineSet
-7.7861328125 402.552734375 m 1xe8
 197.69140625 402.552734375 l 1
 197.69140625 366.661132812 l 1
 135.584960938 366.661132812 l 1
 135.584960938 7.787109375 l 1
 113.850585938 -3.9453125 81.41015625 -15.4921875 54.3232421875 -21.25 c 1
 54.3232421875 366.661132812 l 1
 -7.7861328125 366.661132812 l 1
 -7.7861328125 402.552734375 l 1xe8
153.043945312 -165.174804688 m 0xf0
 153.043945312 -194.571289062 129.213867188 -218.401367188 99.8173828125 -218.401367188 c 0
 70.421875 -218.401367188 46.5908203125 -194.571289062 46.5908203125 -165.174804688 c 0
 46.5908203125 -135.778320312 70.421875 -111.948242188 99.8173828125 -111.948242188 c 0
 129.213867188 -111.948242188 153.043945312 -135.778320312 153.043945312 -165.174804688 c 0xf0
EndSplineSet
Validated: 1
EndChar

StartChar: m.fina
Encoding: 139 57382 139
GlifName: m.fina
Width: 472
VWidth: 800
Flags: W
HStem: -233.055 21G<54.3203 67.8638> -14.041 21G<297.634 354.418> 58.499 19.4648<198.716 249.811> 366.661 35.8916<-7.78613 335.822> 412.689 20G<403.673 420.76> 494.231 106.453<175.884 261.189>
VStem: 54.3203 81.2607<-207.308 237.137> 165.31 106.454<504.806 590.11> 336.401 81.2617<73.1887 366.429>
LayerCount: 2
Fore
SplineSet
198.715820312 77.9638671875 m 1
 198.856787857 77.9576311602 200.537045165 77.858960726 203.39099305 77.6913671823 c 0
 223.073435125 76.5355471215 298.579691187 72.1015625 309.986328125 72.1015625 c 0
 329.428710938 72.1015625 336.401367188 77.78515625 336.401367188 94.0869140625 c 2
 336.401367188 366.661132812 l 1
 -7.7861328125 366.661132812 l 1
 -7.7861328125 402.552734375 l 1
 319.202148438 402.552734375 l 1
 355.543945312 415.452148438 385.553710938 424.415039062 421.791992188 432.689453125 c 1
 419.727539062 415.484375 417.663085938 369.188476562 417.663085938 331.711914062 c 2
 417.663085938 78.6181640625 l 2
 417.663085938 19.5869140625 403.768554688 -3.4501953125 305.067382812 -14.041015625 c 1
 290.200195312 39.8447265625 269.813476562 49.8837890625 198.715820312 58.4990234375 c 1
 198.715820312 77.9638671875 l 1
135.581054688 304.374023438 m 1
 135.581054688 -204.017578125 l 1
 113.84765625 -215.750976562 81.4072265625 -227.296875 54.3203125 -233.0546875 c 1
 54.3203125 237.13671875 l 1
 18.306640625 277.438476562 l 1
 49.4833984375 287.168945312 102.512695312 299.856445312 135.581054688 304.374023438 c 1
271.763671875 547.458007812 m 0
 271.763671875 518.061523438 247.932617188 494.231445312 218.537109375 494.231445312 c 0
 189.141601562 494.231445312 165.309570312 518.061523438 165.309570312 547.458007812 c 0
 165.309570312 576.854492188 189.141601562 600.684570312 218.537109375 600.684570312 c 0
 247.932617188 600.684570312 271.763671875 576.854492188 271.763671875 547.458007812 c 0
EndSplineSet
Validated: 1
EndChar

StartChar: n.fina
Encoding: 140 57385 140
GlifName: n.fina
Width: 190
VWidth: 800
Flags: W
HStem: -233.055 21G<54.3223 67.8657> 366.66 35.8926<-7.78516 53.7434> 412.688 20G<121.595 138.681>
VStem: 54.3223 81.2617<-207.308 366.429>
LayerCount: 2
Fore
SplineSet
139.713867188 432.688476562 m 1
 137.6484375 415.484375 135.583984375 369.188476562 135.583984375 331.711914062 c 2
 135.583984375 -204.017578125 l 1
 113.850585938 -215.750976562 81.4091796875 -227.296875 54.322265625 -233.0546875 c 1
 54.322265625 366.66015625 l 1
 -7.78515625 366.66015625 l 1
 -7.78515625 402.552734375 l 1
 37.1240234375 402.552734375 l 1
 73.4658203125 415.452148438 103.475585938 424.4140625 139.713867188 432.688476562 c 1
EndSplineSet
Validated: 1
EndChar

StartChar: o.init
Encoding: 141 57386 141
GlifName: o.init
Width: 493
VWidth: 800
Flags: W
HStem: -21.2555 45.2497<182.552 322.99> 366.66 35.8924<139.834 357.738 438.999 501.104> 518.56 106.453<203.442 288.747>
VStem: 54.3223 81.2617<73.0052 353.825> 192.867 106.454<529.134 614.439> 357.738 81.2607<55.293 366.66>
LayerCount: 2
Fore
SplineSet
299.321289062 571.786132812 m 0
 299.321289062 542.389648438 275.490234375 518.559570312 246.094726562 518.559570312 c 0
 216.698242188 518.559570312 192.8671875 542.389648438 192.8671875 571.786132812 c 0
 192.8671875 601.182617188 216.698242188 625.012695312 246.094726562 625.012695312 c 0
 275.490234375 625.012695312 299.321289062 601.182617188 299.321289062 571.786132812 c 0
357.73828125 366.66015625 m 1
 135.583984375 366.66015625 l 1
 135.583984375 160.140625 l 2
 135.583984375 77.6669921875 173.587890625 23.994140625 257.010742188 23.994140625 c 0
 290.051730056 23.994140625 315.202537859 27.2695403063 357.73828125 62.6770359597 c 1
 357.73828125 366.66015625 l 1
139.834058535 402.552553846 m 1
 501.103515625 402.551757812 l 1
 501.103515625 366.66015625 l 1
 438.999023438 366.66015625 l 1
 438.999023438 55.29296875 l 1
 472.841796875 9.5205078125 l 1
 447.241210938 -3.1044921875 408.767578125 -13.958984375 375.46484375 -19.5166015625 c 1
 364.634849962 15.4392438559 l 1
 314.121782524 -3.78497205267 265.147143703 -21.2555251768 209.216907139 -21.2555251768 c 0
 113.049027848 -21.2555251768 54.322265625 35.1667009408 54.322265625 136.584960938 c 2
 54.322265625 353.825195312 l 1
 12.595703125 398.586914062 l 1
 35.580078125 411.520507812 86.1298828125 436.438476562 113.325195312 446.392578125 c 1
 139.834058535 402.552553846 l 1
EndSplineSet
Validated: 1
EndChar

StartChar: o.medi
Encoding: 142 57387 142
GlifName: o.medi
Width: 493
VWidth: 800
Flags: W
HStem: -21.255 45.2492<182.548 322.984> 366.661 35.8913<-7.78516 54.3193 135.58 357.73 438.992 501.101>
VStem: 54.3193 81.2607<73.005 366.661> 357.732 81.2619<55.2939 366.662 402.553 548.571>
LayerCount: 2
Fore
SplineSet
135.580078125 366.661407933 m 1
 135.580078125 160.139648438 l 2
 135.580078125 77.6669921875 173.584960938 23.994140625 257.006835938 23.994140625 c 0
 290.047970615 23.994140625 315.19809586 27.2688678765 357.732230909 62.6743115048 c 1
 357.729906548 366.661834244 l 1
 135.580078125 366.661407933 l 1
364.629442066 15.4377866219 m 1
 314.113676904 -3.78641240938 265.134635346 -21.2550425122 209.21226079 -21.2550425122 c 0
 113.045595783 -21.2550425122 54.3193359375 35.1671347319 54.3193359375 136.584960938 c 2
 54.3193359375 366.661251992 l 1
 -7.78515625 366.661132812 l 1
 -7.78515625 402.552734375 l 1
 357.729632118 402.552734375 l 1
 357.728515625 548.571289062 l 1
 321.71875 588.874023438 l 1
 352.895507812 598.603515625 405.921875 611.291992188 438.990234375 615.80859375 c 1
 438.991720564 402.552734375 l 1
 501.100585938 402.552734375 l 1
 501.100585938 366.662109375 l 1
 438.991970688 366.661990187 l 1
 438.994140625 55.2939453125 l 1
 472.8359375 9.521484375 l 1
 447.236328125 -3.103515625 408.76171875 -13.958984375 375.458984375 -19.5166015625 c 1
 364.629442066 15.4377866219 l 1
EndSplineSet
Validated: 1
EndChar

StartChar: o.fina
Encoding: 143 57388 143
GlifName: o.fina
Width: 493
VWidth: 800
Flags: W
HStem: -21.2547 45.2498<182.549 322.988> 366.664 35.8895<-7.78516 54.3193 135.581 357.153> 412.697 20G<425.003 442.09> 518.561 106.453<203.437 288.741>
VStem: 54.3193 81.2617<73.006 366.662> 192.862 106.453<529.135 614.44> 357.735 81.258<55.2939 366.437>
LayerCount: 2
Fore
SplineSet
299.315429688 571.787109375 m 0
 299.315429688 542.390625 275.484375 518.560546875 246.088867188 518.560546875 c 0
 216.693359375 518.560546875 192.862304688 542.390625 192.862304688 571.787109375 c 0
 192.862304688 601.18359375 216.693359375 625.013671875 246.088867188 625.013671875 c 0
 275.484375 625.013671875 299.315429688 601.18359375 299.315429688 571.787109375 c 0
364.631566445 15.4389097054 m 1
 314.120301457 -3.78228877314 265.145670676 -21.2546501373 209.213410469 -21.2546501373 c 0
 113.045867334 -21.2546501373 54.3193359375 35.1671047011 54.3193359375 136.5859375 c 2
 54.3193359375 366.662460222 l 5
 -7.78515625 366.661132812 l 5
 -7.78515625 402.553710938 l 1
 340.533203125 402.560546875 l 1
 376.875 415.459960938 406.884765625 424.421875 443.122070312 432.697265625 c 1
 441.05859375 415.4921875 438.993164062 369.196289062 438.993164062 331.719726562 c 2
 438.993164062 55.2939453125 l 1
 472.8359375 9.521484375 l 1
 447.236328125 -3.103515625 408.76171875 -13.9580078125 375.459960938 -19.515625 c 1
 364.631566445 15.4389097054 l 1
357.735129121 62.677700568 m 1
 357.732421875 366.668945312 l 1
 135.581054688 366.664197093 l 5
 135.581054688 160.140625 l 2
 135.581054688 77.66796875 173.584960938 23.9951171875 257.006835938 23.9951171875 c 0
 290.048721066 23.9951171875 315.199238306 27.269993196 357.735129121 62.677700568 c 1
EndSplineSet
Validated: 1
EndChar

StartChar: p.fina
Encoding: 144 57391 144
GlifName: p.fina
Width: 190
VWidth: 800
Flags: W
HStem: -20.7891 21G<54.3223 67.8657> 366.661 35.8916<-7.78516 53.7424> 412.696 20G<121.593 138.68>
VStem: 54.3223 81.2617<4.95759 366.437>
LayerCount: 2
Fore
SplineSet
139.711914062 432.696289062 m 1
 137.647460938 415.4921875 135.583984375 369.196289062 135.583984375 331.719726562 c 2
 135.583984375 8.248046875 l 1
 113.849609375 -3.4853515625 81.4091796875 -15.03125 54.322265625 -20.7890625 c 1
 54.322265625 366.661132812 l 1
 -7.78515625 366.661132812 l 1
 -7.78515625 402.552734375 l 1
 37.123046875 402.559570312 l 1
 73.46484375 415.458984375 103.474609375 424.421875 139.711914062 432.696289062 c 1
EndSplineSet
Validated: 1
EndChar

StartChar: q.fina
Encoding: 145 57394 145
GlifName: q.fina
Width: 530
VWidth: 800
Flags: W
HStem: -233.05 21G<54.3223 67.8657> 366.659 35.8926<-7.78516 53.7431> 370.582 42.7896<241.776 384.701> 412.688 20G<121.594 138.918> 542.055 35.8926<220.251 419.496>
VStem: 54.3223 81.2617<-207.303 -5.90657 37.8641 321.315 358.48 365.608> 417.4 84.1846<193.906 339.097>
LayerCount: 2
Fore
SplineSet
313.270507812 412.47265625 m 1xde
 322.615003931 413.070456267 331.675153357 413.371631676 340.43619794 413.371631676 c 0xae
 440.532145844 413.371631676 501.584960938 374.058221252 501.584960938 288.64453125 c 0
 501.584960938 157.251953125 387.939453125 75.1103515625 290.943359375 38.75390625 c 0
 202.476172894 5.5941739104 167.672644548 -5.46327555875 135.583984375 -9.96429117399 c 1
 135.583984375 -204.012695312 l 1
 113.849609375 -215.74609375 81.4091796875 -227.291992188 54.322265625 -233.049804688 c 1
 54.322265625 366.659179688 l 1
 -7.78515625 366.659179688 l 1
 -7.78515625 402.551757812 l 1
 37.1240234375 402.551757812 l 1
 73.46484375 415.451171875 103.475585938 424.413085938 139.712890625 432.6875 c 1
 138.122763455 419.436189518 136.532636284 388.925537983 135.885886633 358.479508807 c 1
 223.422745218 388.681512279 286.91758572 405.914473361 313.270507812 412.47265625 c 1xde
165.123046875 643.560546875 m 1
 220.250976562 577.947265625 l 1
 331.671875 577.947265625 l 2
 355.115234375 577.947265625 422.688476562 583.056640625 438.74609375 584.2734375 c 1
 420.467773438 531.349609375 l 1
 400.166015625 536.854492188 352.267578125 542.0546875 331.184570312 542.0546875 c 2
 66.73046875 542.0546875 l 2
 52.9619140625 542.0546875 50.662109375 545.995117188 59.9072265625 554.624023438 c 0
 86.37890625 579.328125 133.176757812 618.575195312 165.123046875 643.560546875 c 1
135.583984375 37.864083343 m 1
 137.889543762 37.7930822003 140.208093106 37.7577713224 142.538327719 37.7577713224 c 0
 264.075549416 37.7577713224 417.400390625 133.81450754 417.400390625 272.099609375 c 0
 417.400390625 351.614257812 364.362304688 370.58203125 301.587890625 370.58203125 c 0
 242.53204877 370.58203125 159.651656094 328.937649982 135.583984375 305.066398302 c 1
 135.583984375 37.864083343 l 1
EndSplineSet
Validated: 1
EndChar

StartChar: r.init
Encoding: 146 57395 146
GlifName: r.init
Width: 493
VWidth: 800
Flags: W
HStem: -233.05 21G<357.735 371.279> -21.2555 45.2497<182.552 323.356> 366.661 35.8922<139.835 500.986>
VStem: 54.3223 81.2607<73.0056 353.826> 357.735 81.2617<-207.303 12.8516>
LayerCount: 2
Fore
SplineSet
357.735351562 12.8515625 m 1
 316.738661471 -2.50861238915 266.586381569 -21.2555162163 209.21651099 -21.2555162163 c 0
 113.04906307 -21.2555162163 54.322265625 35.1668749725 54.322265625 136.5859375 c 0
 54.322265625 208.999348958 54.322265625 281.412760417 54.322265625 353.826171875 c 1
 12.5947265625 398.586914062 l 1
 35.5791015625 411.520507812 86.1298828125 436.439453125 113.325195312 446.393554688 c 1
 139.834539875 402.552734375 l 1
 501.104492188 402.552734375 l 1
 501.104492188 366.66015625 l 5
 501.104492188 366.66015625 338.650592023 366.660514206 230.347929985 366.660514206 c 0
 176.196598967 366.660514206 135.58307748 366.660424717 135.583007812 366.66015625 c 0
 135.583007812 297.8203125 135.583007812 228.98046875 135.583007812 160.140625 c 0
 135.583007812 77.66796875 173.587890625 23.994140625 257.009765625 23.994140625 c 0
 290.047851562 23.994140625 325.422851562 39.115234375 357.735351562 76.125 c 1
 388.172851562 84.41015625 417.788085938 91.4638671875 446.79296875 97.599609375 c 1
 444.911132812 84.427734375 438.997070312 35.3349609375 438.997070312 8.72265625 c 2
 438.997070312 -204.012695312 l 1
 417.263671875 -215.74609375 384.822265625 -227.291992188 357.735351562 -233.049804688 c 1
 357.735351562 12.8515625 l 1
EndSplineSet
Validated: 1
EndChar

StartChar: r.medi
Encoding: 147 57396 147
GlifName: r.medi
Width: 445
VWidth: 800
Flags: W
HStem: -16.3253 45.8126<166.473 283.338> 366.659 35.8916<-7.78613 53.742 394.773 452.629> 412.692 20G<121.593 138.68>
VStem: 54.3184 81.2607<62.0048 366.434> 309.26 81.2617<62.8724 353.826>
LayerCount: 2
Fore
SplineSet
390.521484375 366.659179688 m 1
 390.521484375 151.107421875 l 2
 390.521484375 68.29296875 354.634765625 37.4765625 316.3046875 19.109375 c 0
 293.891008313 8.36838604352 237.035847734 -16.325276847 188.219481534 -16.325276847 c 0
 123.218028549 -16.325276847 54.318359375 17.1702429901 54.318359375 119.80859375 c 2
 54.318359375 366.66015625 l 1
 -7.7861328125 366.66015625 l 1
 -7.7861328125 402.551757812 l 1
 37.123046875 402.555664062 l 1
 73.4638671875 415.455078125 103.473632812 424.41796875 139.711914062 432.692382812 c 1
 137.647460938 415.485351562 135.579101562 369.192382812 135.579101562 331.71875 c 2
 135.579101562 143.36328125 l 2
 135.579101562 60.890625 173.864257812 29.4873046875 227.025390625 29.4873046875 c 0
 272.978515625 29.4873046875 309.259765625 58.1640625 309.259765625 127.552734375 c 2
 309.259765625 353.826171875 l 1
 267.533203125 398.586914062 l 1
 290.517578125 411.520507812 341.0703125 436.435546875 368.26171875 446.389648438 c 1
 394.773167937 402.55078125 l 1
 452.62890625 402.55078125 l 1
 452.62890625 366.659179688 l 1
 390.521484375 366.659179688 l 1
EndSplineSet
Validated: 1
EndChar

StartChar: r.fina
Encoding: 148 57397 148
GlifName: r.fina
Width: 441
VWidth: 800
Flags: W
HStem: -15.5741 39.123<234.868 359.979> 366.659 35.8916<-7.78711 150.2 171.999 398.06>
VStem: 28.542 81.1133<138.148 296.501>
LayerCount: 2
Fore
SplineSet
417.818359375 408.876953125 m 1
 399.54296875 355.953125 l 1
 367.939453125 364.421875 334.19140625 372.72265625 278.333007812 372.72265625 c 0
 165.208007812 372.72265625 109.655273438 322.515625 109.655273438 229.2109375 c 0
 109.655273438 101.841786334 210.320321495 23.5489907313 330.836866737 23.5489907313 c 0
 351.471199219 23.5489907313 372.687475128 25.8441313639 394.080078125 30.5810546875 c 1
 394.080078125 11.9951171875 l 1
 309.60546875 -8.4580078125 l 2
 289.811019897 -13.2507609329 270.013681202 -15.5740568246 250.607392659 -15.5740568246 c 0
 132.30903484 -15.5740568246 28.5419921875 70.7589739754 28.5419921875 210.31640625 c 0
 28.5419921875 287.43359375 69.9873046875 343.45703125 134.74609375 362.357421875 c 0
 139.474609375 363.737304688 143.54296875 364.875 150.200195312 366.659179688 c 1
 -7.787109375 366.659179688 l 1
 -7.787109375 402.55078125 l 1
 306.853515625 402.55078125 l 2
 330.297851562 402.55078125 401.76171875 407.66015625 417.818359375 408.876953125 c 1
EndSplineSet
Validated: 1
EndChar

StartChar: s.init
Encoding: 149 57398 149
GlifName: s.init
Width: 566
VWidth: 800
Flags: W
HStem: -20.255 46.4679<145.785 315.132> 366.659 35.8926<517.142 573.752> 376.421 33.0353<139.15 184.961>
VStem: 247.977 82.0566<173.235 325.091> 430.382 81.2607<4.9527 52.9876 102.714 355.89>
LayerCount: 2
Fore
SplineSet
90.6455078125 104.125 m 1xd8
 105.563669209 103.96484375 105.563669209 103.96484375 112.516601562 103.96484375 c 0
 192.768554688 103.96484375 247.9765625 166.13671875 247.9765625 241.979492188 c 0
 247.9765625 327.864447075 204.269403852 376.421475712 106.955303965 376.421475712 c 0
 106.415537333 376.421475712 105.874121471 376.419981842 105.331054688 376.416992188 c 1
 105.331054688 393.817382812 l 1
 166.551757812 409.434570312 l 2
 167.856223931 409.449352465 169.152992581 409.456744232 170.442059834 409.456744232 c 0xb8
 276.114515647 409.456744232 330.033203125 359.783707533 330.033203125 259.676757812 c 0
 330.033203125 176.411132812 277.87109375 114.466796875 208.546875 93.2880859375 c 0
 207.606969353 93.0009592663 137.922744692 72.7935446766 113.252545571 69.2540622956 c 1
 142.916551442 41.9833925505 193.269613026 26.212890625 251.369140625 26.212890625 c 0
 328.839469333 26.212890625 400.857791471 69.9800936376 430.381835938 138.538831328 c 1
 430.381835938 355.889648438 l 1
 388.654296875 400.650390625 l 1
 411.638671875 413.583984375 462.189453125 438.502929688 489.383789062 448.45703125 c 1
 517.14235396 402.551757812 l 1
 573.751953125 402.551757812 l 1
 573.751953125 366.659179688 l 1
 511.642578125 366.659179688 l 1
 511.642578125 8.2431640625 l 1
 489.908203125 -3.490234375 457.467773438 -15.0361328125 430.381835938 -20.7939453125 c 1
 430.381835938 52.9876199398 l 1
 379.144273099 14.4893397412 247.218577434 -18.8623872769 245.284179688 -19.3173828125 c 0
 238.309328342 -19.9474687586 231.101277223 -20.2549790064 223.731096927 -20.2549790064 c 0
 140.448727915 -20.2549790064 36.4644164486 19.0103743253 14.3232421875 75.8037109375 c 1
 14.3232421875 85.0439453125 l 1
 90.6455078125 104.125 l 1xd8
EndSplineSet
Validated: 1
EndChar

StartChar: s.medi
Encoding: 150 57399 150
GlifName: s.medi
Width: 339
VWidth: 800
Flags: W
HStem: 65.4512 25.4053<139.024 204.278> 224.817 25.4043<138.624 204.694> 366.66 35.8916<-7.78711 153.622 209.892 346.848>
VStem: 78.9893 36.3281<108.49 207.196> 227.441 36.3271<108.156 207.519>
LayerCount: 2
Fore
SplineSet
-7.787109375 402.551757812 m 1
 346.84765625 402.551757812 l 1
 346.84765625 366.66015625 l 1
 219.84875934 366.66015625 l 1
 210.68611569 351.19051597 196.861152218 325.413933519 178.338867188 284.322265625 c 1
 154.981445312 284.322265625 l 1
 158.193359375 302.774414062 159.745117188 319.625 159.745117188 331.391601562 c 0
 159.745117188 359.395507812 125.708984375 366.659179688 74.22265625 366.659179688 c 2
 -7.787109375 366.66015625 l 1
 -7.787109375 402.551757812 l 1
171.376953125 224.817382812 m 0
 143.055855605 224.817382812 115.317379092 199.594749446 115.317379092 157.809483591 c 0
 115.317379092 116.164890052 142.982482893 90.8564452843 171.373357131 90.8564452843 c 0
 199.786151038 90.8569338289 227.44140625 115.363609116 227.44140625 157.8359375 c 0
 227.44140625 200.318359375 199.776367188 224.817382812 171.376953125 224.817382812 c 0
171.3828125 250.221679688 m 0
 225.73828125 250.221679688 263.768554688 213.44921875 263.768554688 157.834960938 c 0
 263.761718932 102.226086027 223.660332878 65.4511717972 171.376235433 65.4511717972 c 0
 119.106315042 65.4511717989 78.9892578125 103.059039556 78.9892578125 157.836914062 c 0
 79 212.61328125 117.014648438 250.221679688 171.3828125 250.221679688 c 0
EndSplineSet
Validated: 1
EndChar

StartChar: s.fina
Encoding: 151 57400 151
GlifName: s.fina
Width: 472
VWidth: 800
Flags: W
HStem: -233.057 21G<54.3203 67.8638> -14.042 21G<297.634 354.418> 58.498 19.4648<198.716 249.812> 366.66 35.8916<-7.78613 335.822> 412.688 20G<403.673 420.76> 457.634 25.4043<172.213 237.464> 617 25.4043<171.809 237.883>
VStem: 54.3203 81.2617<-207.309 237.136> 112.178 36.3271<500.672 599.375> 260.629 36.3281<500.337 599.701> 336.401 81.2617<73.1869 366.428>
LayerCount: 2
Fore
SplineSet
135.58203125 304.372070312 m 1xff60
 135.58203125 -204.018554688 l 1
 113.84765625 -215.751953125 81.4072265625 -227.298828125 54.3203125 -233.056640625 c 1
 54.3203125 237.135742188 l 1
 18.3076171875 277.4375 l 1
 49.4833984375 287.16796875 102.512695312 299.85546875 135.58203125 304.372070312 c 1xff60
198.715820312 77.962890625 m 1
 198.856648123 77.9566577194 200.533445074 77.858175791 203.38180212 77.6908855924 c 0
 223.048179526 76.5358365134 298.564721041 72.1005859375 309.987304688 72.1005859375 c 0
 329.428710938 72.1005859375 336.401367188 77.7841796875 336.401367188 94.0859375 c 2
 336.401367188 366.66015625 l 1
 -7.7861328125 366.66015625 l 1
 -7.7861328125 402.551757812 l 1
 319.203125 402.551757812 l 1
 355.544921875 415.451171875 385.553710938 424.413085938 421.791992188 432.6875 c 1
 419.727539062 415.483398438 417.663085938 369.1875 417.663085938 331.7109375 c 2
 417.663085938 78.6162109375 l 2
 417.663085938 19.5859375 403.768554688 -3.451171875 305.067382812 -14.0419921875 c 1
 290.200195312 39.84375 269.814453125 49.8828125 198.715820312 58.498046875 c 1
 198.715820312 77.962890625 l 1
204.571289062 642.404296875 m 0
 258.926757812 642.404296875 296.95703125 605.630859375 296.95703125 550.017578125 c 0
 296.950195494 494.408703214 256.84880944 457.633788985 204.564711996 457.633788985 c 0
 152.294791605 457.633788986 112.177734375 495.241656744 112.177734375 550.01953125 c 0xfee0
 112.188476562 604.795898438 150.202148438 642.404296875 204.571289062 642.404296875 c 0
204.565429688 617 m 0
 176.230909749 617 148.504879686 591.759810429 148.504879686 549.993327894 c 0
 148.504879686 508.346620596 176.171525936 483.038085938 204.563476562 483.038085938 c 0
 232.96484375 483.0390625 260.62890625 507.537109375 260.62890625 550.018554688 c 0
 260.62890625 592.500976562 232.96484375 617 204.565429688 617 c 0
EndSplineSet
Validated: 1
EndChar

StartChar: t.init
Encoding: 152 57401 152
GlifName: t.init
Width: 190
VWidth: 800
Flags: W
HStem: -233.054 21G<54.3203 67.8643> 366.66 35.892<139.832 197.689>
VStem: 54.3203 81.2617<-207.309 353.825>
LayerCount: 2
Fore
SplineSet
24.8779296875 483.581054688 m 1
 25.5140497332 485.063187468 88.6652010691 628.853515625 94.9462890625 628.853515625 c 0
 101.228913281 628.853515625 164.379503281 485.063191366 165.015625 483.581054688 c 1
 152.80859375 483.581054688 l 1
 94.9462890625 512.618164062 l 1
 37.0849609375 483.581054688 l 1
 24.8779296875 483.581054688 l 1
135.58203125 366.659722369 m 5
 135.58203125 -204.018554688 l 1
 113.84765625 -215.751953125 81.408203125 -227.295898438 54.3203125 -233.053710938 c 1
 54.3203125 353.825195312 l 1
 12.5927734375 398.586914062 l 1
 35.5771484375 411.520507812 86.1298828125 436.436523438 113.32421875 446.390625 c 1
 139.831701207 402.551757812 l 1
 197.689453125 402.551757812 l 1
 197.689453125 366.66015625 l 5
 135.58203125 366.659722369 l 5
EndSplineSet
Validated: 1
EndChar

StartChar: t.medi
Encoding: 153 57402 153
GlifName: t.medi
Width: 190
VWidth: 800
Flags: W
HStem: -233.05 21G<54.3213 67.8647> 366.66 35.8916<-7.78516 54.3213 135.583 197.69>
VStem: 54.3213 81.2617<-207.303 366.66>
LayerCount: 2
Fore
SplineSet
24.880859375 483.581054688 m 1
 25.5169794207 485.063187468 88.6673188381 628.853515625 94.94921875 628.853515625 c 0
 101.231842968 628.853515625 164.382432969 485.063191366 165.018554688 483.581054688 c 1
 152.811523438 483.581054688 l 1
 94.94921875 512.618164062 l 1
 37.087890625 483.581054688 l 1
 24.880859375 483.581054688 l 1
-7.78515625 402.551757812 m 1
 197.690429688 402.551757812 l 1
 197.690429688 366.66015625 l 1
 135.583007812 366.66015625 l 1
 135.583007812 -204.012695312 l 1
 113.848632812 -215.74609375 81.408203125 -227.29296875 54.3212890625 -233.049804688 c 1
 54.3212890625 366.66015625 l 1
 -7.78515625 366.66015625 l 1
 -7.78515625 402.551757812 l 1
EndSplineSet
Validated: 1
EndChar

StartChar: t.fina
Encoding: 154 57403 154
GlifName: t.fina
Width: 190
VWidth: 800
Flags: W
HStem: -233.056 21G<54.3223 67.8657> 366.66 35.8916<-7.78516 53.7433> 412.688 20G<121.594 138.681>
VStem: 54.3223 81.2617<-207.309 366.428>
LayerCount: 2
Fore
SplineSet
24.87890625 483.581054688 m 1
 25.515027969 485.063191366 88.6655536742 628.853515625 94.9482421875 628.853515625 c 0
 101.230823183 628.853515625 164.381456406 485.063191366 165.017578125 483.581054688 c 1
 152.810546875 483.581054688 l 1
 94.9482421875 512.618164062 l 1
 37.0859375 483.581054688 l 1
 24.87890625 483.581054688 l 1
139.712890625 432.6875 m 1
 137.6484375 415.483398438 135.583984375 369.1875 135.583984375 331.7109375 c 2
 135.583984375 -204.018554688 l 1
 113.850585938 -215.751953125 81.4091796875 -227.297851562 54.322265625 -233.055664062 c 1
 54.322265625 366.66015625 l 1
 -7.78515625 366.66015625 l 1
 -7.78515625 402.551757812 l 1
 37.1240234375 402.551757812 l 1
 73.4658203125 415.451171875 103.474609375 424.413085938 139.712890625 432.6875 c 1
EndSplineSet
Validated: 1
EndChar

StartChar: u.fina
Encoding: 155 57406 155
GlifName: u.fina
Width: 190
VWidth: 800
Flags: W
HStem: -233.055 21G<54.3223 67.8657> 366.66 35.8926<-7.78516 53.7433> 412.688 20G<121.594 138.681> 494.231 106.453<52.2981 137.603>
VStem: 41.7236 106.454<504.806 590.11> 54.3223 81.2617<-207.308 366.429>
LayerCount: 2
Fore
SplineSet
148.177734375 547.458007812 m 0xf8
 148.177734375 518.061523438 124.346679688 494.231445312 94.951171875 494.231445312 c 0
 65.5546875 494.231445312 41.7236328125 518.061523438 41.7236328125 547.458007812 c 0
 41.7236328125 576.854492188 65.5546875 600.684570312 94.951171875 600.684570312 c 0
 124.346679688 600.684570312 148.177734375 576.854492188 148.177734375 547.458007812 c 0xf8
139.712890625 432.688476562 m 1
 137.6484375 415.484375 135.583984375 369.188476562 135.583984375 331.711914062 c 2
 135.583984375 -204.017578125 l 1
 113.850585938 -215.750976562 81.4091796875 -227.296875 54.322265625 -233.0546875 c 1
 54.322265625 366.66015625 l 1xf4
 -7.78515625 366.66015625 l 1
 -7.78515625 402.552734375 l 1
 37.1240234375 402.552734375 l 1
 73.4658203125 415.452148438 103.474609375 424.4140625 139.712890625 432.688476562 c 1
EndSplineSet
Validated: 1
EndChar

StartChar: v.fina
Encoding: 156 57409 156
GlifName: v.fina
Width: 530
VWidth: 800
Flags: W
HStem: -21.0791 21G<54.3223 85.8086> 366.66 35.8916<-7.78516 53.7424> 370.583 42.7905<241.539 384.701> 412.688 20G<121.593 138.917>
VStem: 54.3223 81.2617<37.6514 321.313 358.479 365.608> 417.399 84.1855<196.544 339.097>
LayerCount: 2
Fore
SplineSet
192.139648438 483.581054688 m 1x8c
 192.775770157 485.063191366 255.926295861 628.853515625 262.208984375 628.853515625 c 0
 268.490803004 628.853515625 331.641223704 485.063187468 332.27734375 483.581054688 c 1
 320.0703125 483.581054688 l 1
 262.208984375 512.618164062 l 1
 204.346679688 483.581054688 l 1
 192.139648438 483.581054688 l 1x8c
301.588867188 370.583007812 m 0xac
 241.456054688 370.583007812 159.649414062 328.935546875 135.583984375 305.064453125 c 1
 135.583984375 37.6513671875 l 1
 266.977539062 42.3505859375 417.399414062 131.161132812 417.399414062 272.100585938 c 0
 417.399414062 351.614257812 364.362304688 370.583007812 301.588867188 370.583007812 c 0xac
139.711914062 432.6875 m 1xdc
 138.122070312 419.434570312 136.54296875 388.927734375 135.895507812 358.478515625 c 1
 223.423828125 388.676757812 286.920898438 405.916015625 313.271484375 412.474609375 c 1
 322.61562747 413.072386808 331.675439033 413.373549394 340.436163602 413.373549394 c 0xac
 440.532567786 413.373549394 501.584960938 374.058582277 501.584960938 288.645507812 c 0
 501.584960938 157.252929688 387.310546875 76.7490234375 290.944335938 38.755859375 c 0
 217.88671875 9.953125 117.294921875 -13.3837890625 54.322265625 -21.0791015625 c 1
 54.322265625 366.66015625 l 1
 -7.78515625 366.66015625 l 1
 -7.78515625 402.551757812 l 1
 37.123046875 402.551757812 l 1
 73.46484375 415.451171875 103.474609375 424.413085938 139.711914062 432.6875 c 1xdc
EndSplineSet
Validated: 1
EndChar

StartChar: w.fina
Encoding: 157 57412 157
GlifName: w.fina
Width: 494
VWidth: 800
Flags: W
HStem: -233.055 21G<357.731 371.275> -21.2556 45.2488<182.548 323.4> 366.663 35.8889<-7.78613 54.3184 135.58 357.152> 412.695 20G<425.002 442.089>
VStem: 54.3184 81.2617<73.004 366.661> 357.731 81.2617<-207.311 12.8341 47.1185 366.436>
LayerCount: 2
Fore
SplineSet
357.731445312 12.8340903991 m 1
 316.454218745 -2.61947073284 266.420532551 -21.2556356606 209.212347386 -21.2556356606 c 0
 113.044855548 -21.2556356606 54.318359375 35.1659541058 54.318359375 136.583984375 c 2
 54.318359375 366.661317733 l 5
 -7.7861328125 366.66015625 l 5
 -7.7861328125 402.551757812 l 1
 340.532226562 402.559570312 l 1
 376.874023438 415.458007812 406.883789062 424.420898438 443.12109375 432.6953125 c 1
 441.057617188 415.491210938 438.993164062 369.1953125 438.993164062 331.71875 c 2
 438.993164062 -204.020507812 l 1
 417.258789062 -215.75390625 384.818359375 -227.296875 357.731445312 -233.0546875 c 1
 357.731445312 12.8340903991 l 1
135.580078125 366.662837496 m 5
 135.580078125 160.138671875 l 2
 135.580078125 77.666015625 173.583984375 23.9931640625 257.006835938 23.9931640625 c 0
 290.047279769 23.9931640625 315.197247853 27.2679003715 357.731445312 62.6734818327 c 1
 357.731445312 366.666992188 l 1
 135.580078125 366.662837496 l 5
EndSplineSet
Validated: 1
EndChar

StartChar: x.init
Encoding: 158 57413 158
GlifName: x.init
Width: 566
VWidth: 800
Flags: W
HStem: -233.05 21G<430.382 443.925> -20.254 46.4679<145.786 315.132> 372.525 21.293<105.331 132.772> 372.53 36.9275<139.151 189.649 517.142 573.752>
VStem: 247.977 82.0566<173.236 324.424> 430.382 81.2607<-207.303 52.9879 102.714 355.891>
LayerCount: 2
Fore
SplineSet
90.646484375 104.125976562 m 1xdc
 105.562019827 103.965820312 105.562019827 103.965820312 112.516601562 103.965820312 c 0
 192.768554688 103.965820312 247.9765625 166.137695312 247.9765625 241.98046875 c 0
 247.9765625 327.824667251 204.311841052 372.53025839 107.09382522 372.53025839 c 0xdc
 106.508179167 372.53025839 105.92058971 372.528636062 105.331054688 372.525390625 c 1
 105.331054688 393.818359375 l 1xec
 166.552734375 409.435546875 l 2
 167.857188724 409.450329028 169.153945747 409.457720794 170.443001513 409.457720794 c 0
 276.114515647 409.457720794 330.033203125 359.784684096 330.033203125 259.677734375 c 0
 330.033203125 176.412109375 277.87109375 114.467773438 208.547851562 93.2890625 c 0
 207.607935486 93.0019514564 137.922615574 72.794338187 113.252968503 69.2550224694 c 1
 142.917138084 41.9843627947 193.269624665 26.2138671875 251.369140625 26.2138671875 c 0
 328.838633283 26.2138671875 400.856237046 69.9801255451 430.381835938 138.537588267 c 1
 430.381835938 355.890625 l 1
 388.654296875 400.651367188 l 1
 411.638671875 413.584960938 462.189453125 438.50390625 489.383789062 448.458007812 c 1
 517.14235396 402.552734375 l 1
 573.751953125 402.552734375 l 1
 573.751953125 366.661132812 l 1
 511.642578125 366.661132812 l 1
 511.642578125 -204.012695312 l 1
 489.909179688 -215.74609375 457.46875 -227.291992188 430.381835938 -233.049804688 c 1
 430.381835938 52.9878627687 l 1
 379.144390959 14.4901833097 247.218578245 -18.8614258227 245.284179688 -19.31640625 c 0
 238.309328342 -19.9464921961 231.101283678 -20.2540024439 223.731114718 -20.2540024439 c 0
 140.448873797 -20.2540024439 36.4653136152 19.0113508878 14.3232421875 75.8046875 c 1
 14.3232421875 85.044921875 l 1
 90.646484375 104.125976562 l 1xdc
EndSplineSet
Validated: 1
EndChar

StartChar: x.medi
Encoding: 159 57414 159
GlifName: x.medi
Width: 190
VWidth: 800
Flags: W
HStem: 366.66 76.7714<68.7216 121.675> 366.66 35.8916<-7.78613 66.7811 123.587 197.688> 494.231 106.453<52.3035 137.596>
VStem: 41.7236 106.453<504.812 590.104>
LayerCount: 2
Fore
SplineSet
48.23828125 402.551757812 m 1x70
 53.1510543069 407.354224429 90.2146753903 443.431518837 94.9506226441 443.431518837 c 0xb0
 99.6599112869 443.431518837 135.616694169 408.466125429 141.668945312 402.551757812 c 1
 197.6875 402.551757812 l 1
 197.6875 366.66015625 l 1
 -7.7861328125 366.66015625 l 1
 -7.7861328125 402.551757812 l 1
 48.23828125 402.551757812 l 1x70
148.176757812 547.458007812 m 0
 148.176757812 518.08203125 124.325195312 494.231445312 94.94921875 494.231445312 c 0
 65.5732421875 494.232421875 41.7236328125 518.08203125 41.7236328125 547.458007812 c 0
 41.7236328125 576.833984375 65.5732421875 600.68359375 94.94921875 600.684570312 c 0
 124.325195312 600.684570312 148.176757812 576.834960938 148.176757812 547.458007812 c 0
EndSplineSet
Validated: 1
EndChar

StartChar: x.fina
Encoding: 160 57415 160
GlifName: x.fina
Width: 190
VWidth: 800
Flags: W
HStem: -153.301 19.4648<-122.291 -50.5692> 366.66 35.8926<-7.78711 53.7424> 412.688 20G<121.593 138.68> 494.231 106.453<52.2978 137.603>
VStem: 41.7236 106.453<504.806 590.11> 54.3223 81.2617<-138.611 366.429>
LayerCount: 2
Fore
SplineSet
-122.291015625 -133.8359375 m 1xf4
 -53.5402204292 -136.877219755 10.2314124877 -139.698242188 27.9072265625 -139.698242188 c 0
 47.349609375 -139.698242188 54.322265625 -134.012695312 54.322265625 -117.7109375 c 2
 54.322265625 366.661132812 l 1
 -7.787109375 366.66015625 l 1
 -7.787109375 402.552734375 l 1
 37.123046875 402.552734375 l 1
 73.46484375 415.452148438 103.474609375 424.4140625 139.711914062 432.688476562 c 1
 137.6484375 415.484375 135.583984375 369.188476562 135.583984375 331.711914062 c 2
 135.583984375 -133.181640625 l 2
 135.583984375 -192.212890625 121.694335938 -215.25 22.9931640625 -225.841796875 c 1
 7.96728872865 -171.384471809 7.31078201002 -169.00513623 -122.291015625 -153.30078125 c 1
 -122.291015625 -133.8359375 l 1xf4
148.176757812 547.458007812 m 0xf8
 148.176757812 518.061523438 124.346679688 494.231445312 94.9501953125 494.231445312 c 0
 65.5537109375 494.231445312 41.7236328125 518.061523438 41.7236328125 547.458007812 c 0
 41.7236328125 576.854492188 65.5537109375 600.684570312 94.9501953125 600.684570312 c 0
 124.346679688 600.684570312 148.176757812 576.854492188 148.176757812 547.458007812 c 0xf8
EndSplineSet
Validated: 1
EndChar

StartChar: y.init
Encoding: 161 57416 161
GlifName: y.init
Width: 392
VWidth: 800
Flags: W
HStem: -233.057 21G<54.3203 67.8638> -21.0791 21G<256.297 269.84> 161.324 42.3723<136.688 230.4> 366.66 35.8916<343.057 399.667> 412.688 20G<119.047 135.581>
VStem: 54.3203 81.2607<-207.309 161.324 188.359 365.451> 256.297 81.2607<4.66755 120.537 199.448 355.89>
LayerCount: 2
Fore
SplineSet
135.581054688 188.359448217 m 1
 175.331504535 197.097390349 205.353298547 203.696779785 224.880459463 203.696779785 c 0
 235.920344715 203.696779785 246.440411966 202.298317274 256.296875 199.44759167 c 1
 256.296875 355.889648438 l 1
 214.569335938 400.650390625 l 1
 237.553710938 413.583984375 288.104492188 438.502929688 315.298828125 448.45703125 c 1
 343.057393023 402.551757812 l 1
 399.666992188 402.551757812 l 1
 399.666992188 366.66015625 l 1
 337.557617188 366.66015625 l 1
 337.557617188 7.9580078125 l 1
 315.823242188 -3.775390625 283.383789062 -15.3212890625 256.296875 -21.0791015625 c 1
 256.296875 28.6181640625 l 2
 256.296875 114.387397032 221.269249981 161.324488397 157.457335966 161.324488397 c 0
 150.504294514 161.324488397 143.20950851 160.767222755 135.581054688 159.642206445 c 1
 135.581054688 -204.018554688 l 1
 113.84765625 -215.751953125 81.4072265625 -227.298828125 54.3203125 -233.056640625 c 1
 54.3203125 365.451171875 l 1
 18.306640625 405.75390625 l 1
 49.4833984375 415.483398438 102.512695312 428.171875 135.581054688 432.688476562 c 1
 135.581054688 188.359448217 l 1
EndSplineSet
Validated: 1
EndChar

StartChar: y.medi
Encoding: 162 57417 162
GlifName: y.medi
Width: 190
VWidth: 800
Flags: W
HStem: -233.056 21G<54.3223 67.8657> 366.66 35.8916<-7.78516 54.3223 135.583 197.691> 494.231 106.453<52.2981 137.603>
VStem: 41.7236 106.454<504.806 590.11> 54.3223 81.2607<-207.308 366.66>
LayerCount: 2
Fore
SplineSet
148.177734375 547.458007812 m 0xf0
 148.177734375 518.061523438 124.346679688 494.231445312 94.951171875 494.231445312 c 0
 65.5546875 494.231445312 41.7236328125 518.061523438 41.7236328125 547.458007812 c 0
 41.7236328125 576.854492188 65.5546875 600.684570312 94.951171875 600.684570312 c 0
 124.346679688 600.684570312 148.177734375 576.854492188 148.177734375 547.458007812 c 0xf0
-7.78515625 402.551757812 m 1
 197.69140625 402.551757812 l 1
 197.69140625 366.66015625 l 1
 135.583007812 366.66015625 l 1
 135.583007812 -204.017578125 l 1
 113.849609375 -215.750976562 81.4091796875 -227.297851562 54.322265625 -233.055664062 c 1
 54.322265625 366.66015625 l 1xe8
 -7.78515625 366.66015625 l 1
 -7.78515625 402.551757812 l 1
EndSplineSet
Validated: 1
EndChar

StartChar: y.fina
Encoding: 163 57418 163
GlifName: y.fina
Width: 472
VWidth: 800
Flags: W
HStem: -233.057 21G<54.3203 67.8638> -14.042 21G<297.634 354.418> 58.498 19.4648<198.716 249.812> 366.66 35.8916<-7.78516 335.822> 412.688 20G<403.673 420.76> 465.44 30.5693<99.6751 194.079 229.188 317.641> 533.252 91.7607<167.406 221.42>
VStem: 54.3203 81.2617<-207.309 237.136> 158.328 106.456<540.876 614.709> 336.401 81.2617<73.1869 366.428>
LayerCount: 2
Fore
SplineSet
198.715820312 77.962890625 m 1
 198.856648123 77.9566577194 200.533445074 77.858175791 203.38180212 77.6908855924 c 0
 223.048179526 76.5358365134 298.564721041 72.1005859375 309.987304688 72.1005859375 c 0
 329.428710938 72.1005859375 336.401367188 77.7841796875 336.401367188 94.0859375 c 2
 336.401367188 366.66015625 l 1
 -7.78515625 366.66015625 l 1
 -7.78515625 402.551757812 l 1
 319.203125 402.551757812 l 1
 355.544921875 415.451171875 385.553710938 424.413085938 421.791992188 432.6875 c 1
 419.727539062 415.483398438 417.663085938 369.1875 417.663085938 331.7109375 c 2
 417.663085938 78.6162109375 l 2
 417.663085938 19.5859375 403.768554688 -3.451171875 305.067382812 -14.0419921875 c 1
 290.200195312 39.84375 269.814453125 49.8828125 198.715820312 58.498046875 c 1
 198.715820312 77.962890625 l 1
135.58203125 304.372070312 m 1
 135.58203125 -204.018554688 l 1
 113.84765625 -215.751953125 81.4072265625 -227.298828125 54.3203125 -233.056640625 c 1
 54.3203125 237.135742188 l 1
 18.3076171875 277.4375 l 1
 49.4833984375 287.16796875 102.513671875 299.85546875 135.58203125 304.372070312 c 1
211.555664062 625.012695312 m 0
 240.951171875 625.012695312 264.784179688 603.131835938 264.784179688 569.553710938 c 0
 264.784179688 544.663081167 252.38071338 516.821162099 229.187688833 496.009765625 c 1
 250.428710938 496.009765625 l 2
 273.874023438 496.009765625 316.713867188 498.161132812 332.7734375 499.377929688 c 1
 318.595703125 457.422851562 l 1
 298.291015625 462.927734375 274.103515625 465.440429688 243.512695312 465.440429688 c 2
 142.66796875 465.440429688 l 2
 116.576171875 465.440429688 101.9296875 465.171875 94.537109375 464.633789062 c 1
 100.740234375 497.622070312 l 1
 105.713867188 496.681640625 117.762695312 496.009765625 125.3515625 496.009765625 c 0
 164.599835494 496.009765625 201.477920758 507.649900809 221.590803152 534.233033064 c 1
 217.948900313 533.60250475 213.927914029 533.2519531 209.470703125 533.251953125 c 0
 180.728515625 533.251953125 158.328125 551.1328125 158.328125 577.487304688 c 0
 158.328125 600.80078125 179.498046875 625.012695312 211.555664062 625.012695312 c 0
EndSplineSet
Validated: 1
EndChar

StartChar: z.fina
Encoding: 164 57421 164
GlifName: z.fina
Width: 190
VWidth: 800
Flags: W
HStem: -153.301 19.4648<-122.291 -50.5692> 366.66 35.8926<-7.78711 53.7424> 412.688 20G<121.593 138.68>
VStem: 54.3223 81.2617<-138.611 366.429>
LayerCount: 2
Fore
SplineSet
-122.291015625 -133.8359375 m 1
 -53.5402204292 -136.877219755 10.2314124877 -139.698242188 27.9072265625 -139.698242188 c 0
 47.349609375 -139.698242188 54.322265625 -134.012695312 54.322265625 -117.7109375 c 2
 54.322265625 366.661132812 l 1
 -7.787109375 366.66015625 l 1
 -7.787109375 402.552734375 l 1
 37.123046875 402.552734375 l 1
 73.46484375 415.452148438 103.474609375 424.4140625 139.711914062 432.688476562 c 1
 137.6484375 415.484375 135.583984375 369.188476562 135.583984375 331.711914062 c 2
 135.583984375 -133.181640625 l 2
 135.583984375 -192.212890625 121.694335938 -215.25 22.9931640625 -225.841796875 c 1
 7.96728872865 -171.384471809 7.31078201002 -169.00513623 -122.291015625 -153.30078125 c 1
 -122.291015625 -133.8359375 l 1
EndSplineSet
Validated: 1
EndChar

StartChar: xy_kashida
Encoding: 165 57423 165
GlifName: xy_kashida
Width: 87
VWidth: 800
Flags: W
HStem: 366.661 35.8916<-7.7832 94.7773>
VStem: -7.7832 102.561<366.661 402.553>
LayerCount: 2
Fore
SplineSet
-7.783203125 402.552734375 m 1
 94.77734375 402.552734375 l 1
 94.77734375 366.661132812 l 1
 -7.783203125 366.661132812 l 1
 -7.783203125 402.552734375 l 1
EndSplineSet
Validated: 1
EndChar

StartChar: x.long
Encoding: 166 57425 166
GlifName: x.long
Width: 308
VWidth: 800
Flags: W
HStem: -153.297 19.4639<-3.8916 67.8303> 366.66 35.8916<-7.78711 172.142> 412.692 20G<239.993 257.079> 494.23 106.453<83.5478 168.852>
VStem: 72.9736 106.453<504.805 590.109> 172.722 81.2617<-138.608 366.432>
LayerCount: 2
Fore
SplineSet
179.426757812 547.45703125 m 0xf8
 179.426757812 518.060546875 155.595703125 494.23046875 126.200195312 494.23046875 c 0
 96.8037109375 494.23046875 72.9736328125 518.060546875 72.9736328125 547.45703125 c 0
 72.9736328125 576.853515625 96.8037109375 600.68359375 126.200195312 600.68359375 c 0
 155.595703125 600.68359375 179.426757812 576.853515625 179.426757812 547.45703125 c 0xf8
-3.8916015625 -133.833007812 m 1
 64.5449199927 -136.860387772 128.608749893 -139.694335938 146.306640625 -139.694335938 c 0
 165.748046875 -139.694335938 172.721679688 -134.009765625 172.721679688 -117.708007812 c 2
 172.721679688 366.6640625 l 1
 -7.787109375 366.66015625 l 1
 -7.787109375 402.551757812 l 1
 155.522460938 402.555664062 l 1
 191.864257812 415.455078125 221.874023438 424.41796875 258.111328125 432.692382812 c 1
 256.046875 415.487304688 253.983398438 369.19140625 253.983398438 331.71484375 c 2
 253.983398438 -133.178710938 l 2xf4
 253.983398438 -192.209960938 240.09375 -215.247070312 141.392578125 -225.837890625 c 1
 126.366702791 -171.380565559 125.710196073 -169.00122998 -3.8916015625 -153.296875 c 1
 -3.8916015625 -133.833007812 l 1
EndSplineSet
Validated: 1
EndChar

StartChar: z.long
Encoding: 167 57426 167
GlifName: z.long
Width: 308
VWidth: 800
Flags: W
HStem: -153.297 19.4648<-3.89258 67.8293> 366.661 35.8916<-7.78711 172.141> 412.692 20G<239.992 257.078>
VStem: 172.721 81.2617<-138.607 366.433>
LayerCount: 2
Fore
SplineSet
-3.892578125 -133.83203125 m 1
 63.8487501297 -136.830266435 128.558774643 -139.694335938 146.305664062 -139.694335938 c 0
 165.747070312 -139.694335938 172.720703125 -134.008789062 172.720703125 -117.70703125 c 2
 172.720703125 366.6640625 l 1
 -7.787109375 366.661132812 l 1
 -7.787109375 402.552734375 l 1
 155.521484375 402.556640625 l 1
 191.86328125 415.455078125 221.873046875 424.41796875 258.110351562 432.692382812 c 1
 256.045898438 415.48828125 253.982421875 369.192382812 253.982421875 331.715820312 c 2
 253.982421875 -133.177734375 l 2
 253.982421875 -192.208984375 240.092773438 -215.24609375 141.391601562 -225.837890625 c 1
 126.365726381 -171.380565722 125.709219626 -169.001229995 -3.892578125 -153.296875 c 1
 -3.892578125 -133.83203125 l 1
EndSplineSet
Validated: 1
EndChar

StartChar: xy_fullstop
Encoding: 168 57472 168
GlifName: xy_fullstop
Width: 257
VWidth: 800
Flags: W
HStem: 219.433 25.4629<91.1097 165.614> 376.906 25.4639<91.112 165.605>
VStem: 36.9014 29.8984<267.397 354.406> 189.899 29.9053<267.245 354.567>
LayerCount: 2
Fore
SplineSet
128.368164062 402.370117188 m 0
 178.909179688 402.370117188 219.8046875 361.418945312 219.8046875 310.901367188 c 0
 219.8046875 260.384391383 178.910154875 219.43261717 128.369971858 219.43261717 c 0
 77.8115244402 219.43261717 36.9013671875 260.384391383 36.9013671875 310.901367188 c 0
 36.9013671875 361.418945312 77.8125 402.370117188 128.368164062 402.370117188 c 0
128.368164062 376.90625 m 0
 94.328125 376.90625 66.7998046875 350.784179688 66.7998046875 310.901367188 c 0
 66.7998046875 271.022049353 94.3219531436 244.895506827 128.356715988 244.895506827 c 0
 162.422989162 244.89843881 189.899414062 270.283314978 189.899414062 310.901367188 c 0
 189.899414062 351.559570312 162.377929688 376.90625 128.368164062 376.90625 c 0
EndSplineSet
Validated: 1
EndChar

StartChar: xy_comma
Encoding: 169 57473 169
GlifName: xy_comma
Width: 267
VWidth: 800
Flags: W
HStem: 245.399 168.369
VStem: 31.8916 185.397
LayerCount: 2
Fore
SplineSet
31.8916015625 400.629882812 m 1
 36.75390625 413.768554688 l 1
 146.244140625 404.5234375 217.2890625 351.481445312 217.2890625 307.19921875 c 0
 217.2890625 273.135742188 194.909179688 245.399414062 172.522460938 245.399414062 c 0
 154.409434106 245.399414062 144.525426426 263.128252581 130.368015601 288.522248464 c 0
 112.572052141 320.442677166 88.0238279086 364.474563562 31.8916015625 400.629882812 c 1
EndSplineSet
Validated: 1
EndChar

StartChar: xy_commacn
Encoding: 170 57474 170
GlifName: xy_commacn
Width: 179
VWidth: 800
Flags: W
HStem: 302.225 103.021<41.6028 101.252>
VStem: 101.456 57.4854<362.053 460.479>
LayerCount: 2
Fore
SplineSet
83.7490234375 302.224609375 m 0
 52.041015625 302.224609375 29.970703125 327.0234375 29.970703125 350.5078125 c 0
 29.970703125 379.43359375 47.384765625 398.166015625 86.529296875 405.245117188 c 0
 95.9677734375 406.953125 101.456054688 411.419921875 101.456054688 422.756835938 c 0
 101.456054688 448.338867188 81.078125 480.583984375 28.1611328125 511.877929688 c 1
 49.7822265625 537.274414062 l 1
 118.795898438 502.349609375 158.94140625 447.680664062 158.94140625 389.4375 c 0
 158.94140625 334.66796875 133.458007812 302.224609375 83.7490234375 302.224609375 c 0
EndSplineSet
Validated: 1
EndChar

StartChar: xy_exclamdown
Encoding: 171 57475 171
GlifName: xy_exclamdown
Width: 201
VWidth: 800
Flags: W
VStem: 44.9424 101.141<-208.515 67.2645> 58.376 71.124<-137.677 181.367> 73.2139 107.622<305.954 367.099>
LayerCount: 2
Fore
SplineSet
40.2705078125 318.920898438 m 1x20
 73.2138671875 333.738117765 73.2138671875 333.738117765 73.2138671875 341.151367188 c 0
 73.2138671875 354.377929688 59.890625 379.719726562 30.412109375 409.294921875 c 1
 36.099609375 418.95703125 l 1
 85.68359375 414.930664062 180.8359375 386.736328125 180.8359375 313.23828125 c 0
 180.8359375 295.290117278 173.548790796 281.805848215 153.655562426 281.805848215 c 0
 143.509885815 281.805848215 131.032169266 286.089222819 115.633746596 291.375223054 c 0
 96.3623182398 297.990756151 72.5161837878 306.176703181 42.94140625 309.501953125 c 1
 40.2705078125 318.920898438 l 1x20
44.9423828125 -141.60546875 m 0x80
 44.9423828125 -126.871895945 46.6393496031 -112.933514178 48.8270149108 -94.9646803705 c 0
 52.7945233041 -62.3767434972 58.3759765625 -16.5323423223 58.3759765625 71.353515625 c 0
 58.3759765625 246.040183206 55.7446122222 255.0305237 28.6424672711 272.238734862 c 0
 26.7082938902 273.466817143 24.6811701698 274.753917227 22.2392578125 276.639648438 c 1
 30.353515625 277.997070312 37.349609375 278.1953125 43.5224609375 278.1953125 c 0
 75.0751953125 278.1953125 165.122070312 222.151367188 165.122070312 203.237304688 c 0
 165.122070312 194.072155893 160.955945422 190.273360303 155.473196846 185.274028391 c 0
 144.923795455 175.654772959 129.5 161.590901206 129.5 96.3037109375 c 0x40
 129.5 -19.4496705647 142.402296253 -111.231603173 145.445494709 -132.87973698 c 0
 145.852370353 -135.774092539 146.083007812 -137.414757992 146.083007812 -137.69140625 c 0
 146.083007812 -194.146484375 111.314453125 -231.900390625 93.12890625 -231.900390625 c 0
 65.12890625 -231.900390625 44.9423828125 -199.638671875 44.9423828125 -141.60546875 c 0x80
EndSplineSet
Validated: 1
EndChar

StartChar: xy_questiondown
Encoding: 172 57476 172
GlifName: xy_questiondown
Width: 361
VWidth: 800
Flags: W
HStem: -220.687 65.7617<99.8817 218.576> 388.841 20G<111.859 142.599>
VStem: 62.8037 42.453<171.655 232.734> 172.169 97.9922<295.753 352.478> 242.367 89.9141<-130.661 8.43825>
LayerCount: 2
Fore
SplineSet
252.865234375 283.245117188 m 0xf0
 245.740318093 283.245117188 240.734520248 284.616081055 235.098373453 286.159681864 c 0
 227.838283932 288.148040305 219.532269775 290.422851562 204.303710938 290.422851562 c 0
 196.71875 290.422851562 185.043945312 287.74609375 165.930664062 280.47265625 c 1
 147.47265625 299.23828125 l 1
 164.268554688 308.934570312 172.168945312 314.885742188 172.168945312 325.884765625 c 0
 172.168945312 342.889648438 149.989257812 369.471679688 111.859375 395.88671875 c 1
 119.708984375 408.840820312 l 1
 165.489257812 400.786132812 270.161132812 371.583984375 270.161132812 303.380859375 c 0
 270.161132812 293.897460938 262.840820312 283.245117188 252.865234375 283.245117188 c 0xf0
105.256748854 216.634829698 m 0
 105.256748854 176.307761862 144.836036375 153.475818929 190.942775448 126.878411516 c 0
 255.260878384 89.7754885542 332.28125 45.3450594196 332.28125 -64.126953125 c 0
 332.28125 -161.0546875 277.583984375 -220.686523438 184.92578125 -220.686523438 c 0
 107.614257812 -220.686523438 46.2734375 -171.1484375 14.271484375 -113.967773438 c 1
 26.9697265625 -101.04296875 l 1
 73.140625 -134.874023438 114.7578125 -154.924804688 161.751953125 -154.924804688 c 0
 207.702148438 -154.924804688 242.3671875 -125.673828125 242.3671875 -68.97265625 c 0xe8
 242.3671875 15.427734375 184.197265625 56.3896484375 116.228515625 102.09375 c 0
 79.9970703125 126.454101562 62.8037109375 147.314453125 62.8037109375 184.583984375 c 0
 62.8037109375 208.858398438 76.7529296875 232.502929688 97.8076171875 242.706054688 c 1
 109.622070312 238.2421875 l 1
 106.586382766 230.719849232 105.256748854 223.501096853 105.256748854 216.634829698 c 0
EndSplineSet
Validated: 1
EndChar

StartChar: xy_colon
Encoding: 173 57477 173
GlifName: xy_colon
Width: 179
VWidth: 800
Flags: W
HStem: 19.3789 119.506<43.4903 135.69> 302.226 119.506<43.4903 135.69>
VStem: 29.8389 119.503<33.0314 125.233 315.878 408.079>
LayerCount: 2
Fore
SplineSet
149.341796875 361.978515625 m 0
 149.341796875 329.000976562 122.568359375 302.2265625 89.5908203125 302.225585938 c 0
 56.6123046875 302.2265625 29.8388671875 329.000976562 29.8388671875 361.978515625 c 0
 29.8388671875 394.956054688 56.6123046875 421.73046875 89.5908203125 421.731445312 c 0
 122.568359375 421.73046875 149.341796875 394.956054688 149.341796875 361.978515625 c 0
149.341796875 79.1318359375 m 0
 149.341796875 46.154296875 122.568359375 19.3798828125 89.5908203125 19.37890625 c 0
 56.6123046875 19.3798828125 29.8388671875 46.154296875 29.8388671875 79.1318359375 c 0
 29.8388671875 112.110351562 56.6123046875 138.883789062 89.5908203125 138.884765625 c 0
 122.568359375 138.883789062 149.341796875 112.110351562 149.341796875 79.1318359375 c 0
EndSplineSet
Validated: 1
EndChar

StartChar: xy_semicolon
Encoding: 174 57478 174
GlifName: xy_semicolon
Width: 179
VWidth: 800
Flags: W
HStem: 19.3789 119.506<43.4824 135.677> 302.225 103.021<41.6028 101.252>
VStem: 29.8311 119.495<33.0337 125.23> 101.456 57.4854<362.053 460.479>
LayerCount: 2
Fore
SplineSet
149.326171875 79.1318359375 m 0xe0
 149.326171875 46.15625 122.556640625 19.3837890625 89.58203125 19.37890625 c 0
 56.6044921875 19.3798828125 29.8310546875 46.154296875 29.8310546875 79.1318359375 c 0
 29.8310546875 112.110351562 56.6044921875 138.883789062 89.58203125 138.884765625 c 0
 122.556640625 138.879882812 149.326171875 112.107421875 149.326171875 79.1318359375 c 0xe0
83.7490234375 302.224609375 m 0
 52.041015625 302.224609375 29.970703125 327.0234375 29.970703125 350.5078125 c 0
 29.970703125 379.43359375 47.3837890625 398.166015625 86.529296875 405.245117188 c 0
 95.9677734375 406.953125 101.456054688 411.419921875 101.456054688 422.756835938 c 0
 101.456054688 448.338867188 81.078125 480.583984375 28.1611328125 511.877929688 c 1
 49.7822265625 537.274414062 l 1
 118.795898438 502.349609375 158.94140625 447.680664062 158.94140625 389.4375 c 0xd0
 158.94140625 334.66796875 133.458007812 302.224609375 83.7490234375 302.224609375 c 0
EndSplineSet
Validated: 1
EndChar

StartChar: xy_period
Encoding: 175 57479 175
GlifName: xy_period
Width: 179
VWidth: 800
Flags: W
HStem: 302.226 119.506<43.4903 135.69>
VStem: 29.8389 119.503<315.878 408.079>
LayerCount: 2
Fore
SplineSet
149.341796875 361.978515625 m 0
 149.341796875 329.000976562 122.568359375 302.2265625 89.5908203125 302.225585938 c 0
 56.6123046875 302.2265625 29.8388671875 329.000976562 29.8388671875 361.978515625 c 0
 29.8388671875 394.95703125 56.6123046875 421.73046875 89.5908203125 421.731445312 c 0
 122.568359375 421.73046875 149.341796875 394.95703125 149.341796875 361.978515625 c 0
EndSplineSet
Validated: 1
EndChar

StartChar: xy_ellipsis
Encoding: 176 57480 176
GlifName: xy_ellipsis
Width: 602
VWidth: 800
Flags: W
HStem: 302.226 119.506<43.4902 135.69 255.033 347.227 466.574 558.769>
VStem: 29.8389 119.503<315.878 408.079> 241.382 119.495<315.88 408.077> 452.925 119.495<315.88 408.077>
LayerCount: 2
Fore
SplineSet
572.419921875 361.978515625 m 0
 572.419921875 329.000976562 545.646484375 302.2265625 512.668945312 302.225585938 c 0
 479.694335938 302.23046875 452.924804688 329.002929688 452.924804688 361.978515625 c 0
 452.924804688 394.954101562 479.694335938 421.7265625 512.668945312 421.731445312 c 0
 545.646484375 421.73046875 572.419921875 394.95703125 572.419921875 361.978515625 c 0
360.876953125 361.978515625 m 0
 360.876953125 329.002929688 334.107421875 302.23046875 301.1328125 302.225585938 c 0
 268.155273438 302.2265625 241.381835938 329.000976562 241.381835938 361.978515625 c 0
 241.381835938 394.95703125 268.155273438 421.73046875 301.1328125 421.731445312 c 0
 334.107421875 421.7265625 360.876953125 394.954101562 360.876953125 361.978515625 c 0
149.341796875 361.978515625 m 0
 149.341796875 329.000976562 122.567382812 302.2265625 89.58984375 302.225585938 c 0
 56.6123046875 302.2265625 29.8388671875 329.000976562 29.8388671875 361.978515625 c 0
 29.8388671875 394.95703125 56.6123046875 421.73046875 89.58984375 421.731445312 c 0
 122.567382812 421.73046875 149.341796875 394.95703125 149.341796875 361.978515625 c 0
EndSplineSet
Validated: 1
EndChar

StartChar: xy_apos
Encoding: 177 57481 177
GlifName: xy_apos
Width: 140
VWidth: 800
Flags: W
HStem: 282.233 193.276
VStem: 18.502 67.4473<353.295 425.199>
LayerCount: 2
Fore
SplineSet
56.8310546875 282.233398438 m 1
 35.3046875 297.348632812 18.501953125 331.157226562 18.501953125 362.3828125 c 0
 18.501953125 410.567382812 49.5546875 453.838867188 121.607421875 475.509765625 c 1
 121.607421875 456.969726562 l 1
 98.2421875 444.600585938 85.94921875 425.124023438 85.94921875 401.450195312 c 0
 85.94921875 376.439453125 109.321289062 347.934570312 126.727539062 334.844726562 c 1
 126.727539062 323.166015625 l 1
 103.693359375 314.676757812 73.3466796875 297.751953125 56.8310546875 282.233398438 c 1
EndSplineSet
Validated: 1
EndChar

StartChar: xy_kome
Encoding: 178 57486 178
GlifName: xy_kome
Width: 487
VWidth: 800
Flags: W
HStem: -2.53613 85.3145<209.246 283.258> 161.251 85.3145<34.8353 106.709 381.299 455.31> 338.113 85.3145<220.951 294.963> 382.553 20G<48.0488 143.708 381.585 446.098>
VStem: 28.1152 85.3135<168.967 242.978> 203.595 85.3145<3.11553 77.1267> 215.3 85.3145<343.765 417.776> 375.647 85.3135<166.903 240.914>
LayerCount: 2
Fore
SplineSet
375.647460938 203.908203125 m 0xc9
 375.647460938 227.466796875 394.745117188 246.565429688 418.3046875 246.565429688 c 0
 441.86328125 246.565429688 460.9609375 227.466796875 460.9609375 203.908203125 c 0
 460.9609375 180.349609375 441.86328125 161.250976562 418.3046875 161.250976562 c 0
 394.745117188 161.250976562 375.647460938 180.349609375 375.647460938 203.908203125 c 0xc9
28.115234375 205.97265625 m 0
 28.115234375 229.53125 47.212890625 248.629882812 70.7724609375 248.629882812 c 0
 94.3310546875 248.629882812 113.428710938 229.53125 113.428710938 205.97265625 c 0
 113.428710938 182.4140625 94.3310546875 163.315429688 70.7724609375 163.315429688 c 0
 47.212890625 163.315429688 28.115234375 182.4140625 28.115234375 205.97265625 c 0
203.594726562 40.12109375 m 0xcd
 203.594726562 63.6796875 222.693359375 82.7783203125 246.251953125 82.7783203125 c 0
 269.811523438 82.7783203125 288.909179688 63.6796875 288.909179688 40.12109375 c 0
 288.909179688 16.5625 269.811523438 -2.5361328125 246.251953125 -2.5361328125 c 0
 222.693359375 -2.5361328125 203.594726562 16.5625 203.594726562 40.12109375 c 0xcd
215.299804688 380.770507812 m 0xeb
 215.299804688 404.329101562 234.3984375 423.427734375 257.95703125 423.427734375 c 0
 281.515625 423.427734375 300.614257812 404.329101562 300.614257812 380.770507812 c 0
 300.614257812 357.211914062 281.515625 338.11328125 257.95703125 338.11328125 c 0
 234.3984375 338.11328125 215.299804688 357.211914062 215.299804688 380.770507812 c 0xeb
398.412109375 402.552734375 m 1xd9
 446.09765625 402.552734375 l 1
 286.487779582 212.848693298 l 1
 465.567382812 0 l 1
 386.735351562 0 l 1
 239.288277572 175.251209313 l 1
 91.841796875 0 l 1
 44.1552734375 0 l 1
 215.445112329 203.590486788 l 1
 48.048828125 402.552734375 l 1
 126.880859375 402.552734375 l 1
 262.645933757 241.186402552 l 1
 398.412109375 402.552734375 l 1xd9
EndSplineSet
Validated: 1
EndChar

StartChar: xy_lentleft
Encoding: 179 57487 179
GlifName: xy_lentleft
Width: 299
VWidth: 800
Flags: W
HStem: 0.00195312 15.9824<260.566 271.729> 574.682 15.9824<260.566 271.729>
VStem: 79.1074 81.292<145.973 444.693>
LayerCount: 2
Fore
SplineSet
79.107421875 590.6640625 m 1
 271.728515625 590.6640625 l 1
 271.728515625 574.681640625 l 1
 211.580078125 545.795898438 160.399414062 439.745117188 160.399414062 295.333007812 c 0
 160.399414062 150.920898438 211.580078125 44.8701171875 271.728515625 15.984375 c 1
 271.728515625 0.001953125 l 1
 79.107421875 0.001953125 l 1
 79.107421875 196.889322917 79.107421875 393.776692708 79.107421875 590.6640625 c 1
EndSplineSet
Validated: 1
EndChar

StartChar: xy_lentright
Encoding: 180 57488 180
GlifName: xy_lentright
Width: 299
VWidth: 800
Flags: W
HStem: 0.00195312 15.9824<27.1025 38.265> 574.682 15.9824<27.1025 38.265>
VStem: 138.432 81.2842<145.973 444.693>
LayerCount: 2
Fore
SplineSet
219.715820312 590.6640625 m 1
 219.715820312 393.776692708 219.715820312 196.889322917 219.715820312 0.001953125 c 1
 27.1025390625 0.001953125 l 1
 27.1025390625 15.984375 l 1
 87.2509765625 44.8701171875 138.431640625 150.920898438 138.431640625 295.333007812 c 0
 138.431640625 439.745117188 87.2509765625 545.795898438 27.1025390625 574.681640625 c 1
 27.1025390625 590.6640625 l 1
 219.715820312 590.6640625 l 1
EndSplineSet
Validated: 1
EndChar

StartChar: xy_lentwhiteleft
Encoding: 181 57489 181
GlifName: xy_lentwhiteleft
Width: 349
VWidth: 800
Flags: W
HStem: -13.6279 27.2578<106.371 286.927> 577.038 27.2568<106.371 286.927>
VStem: 79.1143 27.2568<13.6299 577.038> 168.196 27.2422<192.791 397.883>
LayerCount: 2
Fore
SplineSet
106.37109375 577.038085938 m 1
 106.37109375 389.235351563 106.37109375 201.432617188 106.37109375 13.6298828125 c 1
 286.926757812 13.6298828125 l 1
 224.600585938 54.8203125 168.196289062 158.342773438 168.196289062 295.326171875 c 0
 168.196289062 432.310546875 224.600585938 535.846679688 286.926757812 577.038085938 c 1
 106.37109375 577.038085938 l 1
195.438476562 295.326171875 m 0
 195.438476562 195.432068631 234.688993351 66.8612113867 322.342773438 24.5498046875 c 1
 322.342773438 -13.6279296875 l 1
 79.1142578125 -13.6279296875 l 1
 79.1142578125 604.294921875 l 1
 322.342773438 604.294921875 l 1
 322.342773438 566.1171875 l 1
 234.73312215 523.838179091 195.438476562 395.286838781 195.438476562 295.326171875 c 0
EndSplineSet
Validated: 1
EndChar

StartChar: xy_lentwhiteright
Encoding: 182 57490 182
GlifName: xy_lentwhiteright
Width: 349
VWidth: 800
Flags: W
HStem: -13.6279 27.2578<62.5254 243.081> 577.038 27.2568<62.5254 243.081>
VStem: 154.014 27.2412<192.73 397.959> 243.081 27.2646<13.6299 577.038>
LayerCount: 2
Fore
SplineSet
243.081054688 577.038085938 m 1
 62.525390625 577.038085938 l 1
 124.8515625 535.846679688 181.254882812 432.310546875 181.254882812 295.326171875 c 0
 181.254882812 158.342773438 124.8515625 54.8203125 62.525390625 13.6298828125 c 1
 243.081054688 13.6298828125 l 1
 243.081054688 201.432617188 243.081054688 389.235351563 243.081054688 577.038085938 c 1
154.013671875 295.326171875 m 0
 154.013671875 395.566303832 114.546176712 523.964307008 27.109375 566.1171875 c 1
 27.109375 604.294921875 l 1
 270.345703125 604.294921875 l 1
 270.345703125 -13.6279296875 l 1
 27.109375 -13.6279296875 l 1
 27.109375 24.5498046875 l 1
 114.621259658 66.749955571 154.013671875 195.211950631 154.013671875 295.326171875 c 0
EndSplineSet
Validated: 1
EndChar

StartChar: xy_kagileft
Encoding: 183 57491 183
GlifName: xy_kagileft
Width: 327
VWidth: 800
Flags: HW
HStem: 528.709 60.0088<152.194 308.61>
VStem: 79.11 73.084<101.833 528.709>
LayerCount: 2
Fore
SplineSet
79.1103515625 588.717773438 m 1
 308.610351562 588.717773438 l 1
 308.610351562 528.708984375 l 1
 152.194335938 528.708984375 l 1
 152.194335938 101.833007812 l 1
 79.1103515625 101.833007812 l 1
 79.1103515625 588.717773438 l 1
EndSplineSet
Validated: 1
EndChar

StartChar: xy_kagiright
Encoding: 184 57492 184
GlifName: xy_kagiright
Width: 328
VWidth: 800
Flags: HW
HStem: -0.000976562 60.0088<19.5947 176.018>
VStem: 176.018 73.084<60.0078 486.884>
LayerCount: 2
Fore
SplineSet
176.017578125 60.0078125 m 1
 176.017578125 486.883789062 l 1
 249.1015625 486.883789062 l 1
 249.1015625 -0.0009765625 l 1
 19.5947265625 -0.0009765625 l 1
 19.5947265625 60.0078125 l 1
 176.017578125 60.0078125 l 1
EndSplineSet
Validated: 1
EndChar

StartChar: xy_kagiwhiteleft
Encoding: 185 57493 185
GlifName: xy_kagiwhiteleft
Width: 383
VWidth: 800
Flags: W
HStem: 76.5352 27.2432<106.363 175.576> 503.398 27.2432<202.825 331.98> 586.779 27.2432<106.363 331.98>
VStem: 79.1074 27.2559<103.778 586.779> 175.576 27.249<103.778 503.398> 331.98 27.2568<530.642 586.779>
LayerCount: 2
Fore
SplineSet
106.36328125 586.779296875 m 1
 106.36328125 103.778320312 l 1
 175.576171875 103.778320312 l 1
 175.576171875 530.641601562 l 1
 331.98046875 530.641601562 l 1
 331.98046875 586.779296875 l 1
 106.36328125 586.779296875 l 1
79.107421875 614.022460938 m 1
 359.237304688 614.022460938 l 1
 359.237304688 503.3984375 l 1
 202.825195312 503.3984375 l 1
 202.825195312 76.53515625 l 1
 79.107421875 76.53515625 l 1
 79.107421875 255.697591146 79.107421875 434.860026042 79.107421875 614.022460938 c 1
EndSplineSet
Validated: 1
EndChar

StartChar: xy_kagiwhiteright
Encoding: 186 57494 186
GlifName: xy_kagiwhiteright
Width: 383
VWidth: 800
Flags: W
HStem: -25.2949 27.2432<50.7324 276.349> 58.0723 27.2422<50.7324 179.909> 484.949 27.2432<207.151 276.349>
VStem: 23.4756 27.2568<1.94824 58.0723> 179.909 27.2422<85.3145 484.949> 276.349 27.2568<1.94824 484.949>
LayerCount: 2
Fore
SplineSet
207.151367188 484.94921875 m 1
 207.151367188 58.072265625 l 1
 50.732421875 58.072265625 l 1
 50.732421875 1.9482421875 l 1
 276.348632812 1.9482421875 l 1
 276.348632812 484.94921875 l 1
 207.151367188 484.94921875 l 1
179.909179688 512.192382812 m 1
 303.60546875 512.192382812 l 1
 303.60546875 -25.294921875 l 1
 23.4755859375 -25.294921875 l 1
 23.4755859375 85.314453125 l 1
 179.909179688 85.314453125 l 1
 179.909179688 227.607096354 179.909179688 369.899739583 179.909179688 512.192382812 c 1
EndSplineSet
Validated: 1
EndChar

